<?xml version="1.0" standalone="no"?>
<!DOCTYPE svg PUBLIC "-//W3C//DTD SVG 1.1//EN" "http://www.w3.org/Graphics/SVG/1.1/DTD/svg11.dtd" >
<svg xmlns="http://www.w3.org/2000/svg">
<metadata></metadata>
<defs>
<font id="din_next_lt_procondensed" horiz-adv-x="790" >
<font-face units-per-em="2048" ascent="1536" descent="-512" />
<missing-glyph horiz-adv-x="389" />
<glyph unicode="&#xfb01;" horiz-adv-x="894" d="M59 877v84q0 20 21 20h59q13 0 13 12v129q0 132 61 201.5t195 69.5h36q9 0 15 -6t6 -15v-108q0 -9 -6 -15t-15 -6h-47q-48 0 -68 -20.5t-20 -71.5v-158q0 -12 13 -12h122q21 0 21 -20v-84q0 -9 -6 -15t-15 -6h-122q-13 0 -13 -12v-824q0 -20 -20 -20h-117q-20 0 -20 20 v824q0 12 -13 12h-59q-9 0 -15 6t-6 15zM610 1225v147q0 9 6 15t15 6h129q20 0 20 -21v-147q0 -21 -20 -21h-129q-9 0 -15 6t-6 15zM616 20v941q0 20 21 20h117q20 0 20 -20v-941q0 -20 -20 -20h-117q-21 0 -21 20z" />
<glyph unicode="&#xfb02;" horiz-adv-x="952" d="M59 877v84q0 20 21 20h59q13 0 13 12v129q0 132 61 201.5t195 69.5h36q9 0 15 -6t6 -15v-108q0 -9 -6 -15t-15 -6h-47q-48 0 -68 -20.5t-20 -71.5v-158q0 -12 13 -12h122q21 0 21 -20v-84q0 -9 -6 -15t-15 -6h-122q-13 0 -13 -12v-824q0 -20 -20 -20h-117q-20 0 -20 20 v824q0 12 -13 12h-59q-9 0 -15 6t-6 15zM616 260v1112q0 9 6 15t15 6h117q20 0 20 -21v-1118q0 -53 20 -79.5t66 -33.5l10 -2q21 -3 21 -22v-107q0 -20 -21 -20l-10 2q-134 4 -189 65t-55 203z" />
<glyph unicode="&#xfb03;" horiz-adv-x="1394" d="M59 877v84q0 20 21 20h59q13 0 13 12v129q0 132 61 201.5t195 69.5h36q9 0 15 -6t6 -15v-108q0 -9 -6 -15t-15 -6h-47q-48 0 -68 -20.5t-20 -71.5v-158q0 -12 13 -12h122q21 0 21 -20v-84q0 -9 -6 -15t-15 -6h-122q-13 0 -13 -12v-824q0 -20 -20 -20h-117q-20 0 -20 20 v824q0 12 -13 12h-59q-9 0 -15 6t-6 15zM557 877v84q0 20 21 20h59q12 0 12 12v129q0 132 61 201.5t195 69.5h37q9 0 15 -6t6 -15v-108q0 -9 -6 -15t-15 -6h-47q-48 0 -68 -20.5t-20 -71.5v-158q0 -12 12 -12h123q21 0 21 -20v-84q0 -9 -6 -15t-15 -6h-123q-12 0 -12 -12 v-824q0 -20 -21 -20h-116q-21 0 -21 20v824q0 12 -12 12h-59q-9 0 -15 6t-6 15zM1110 1225v147q0 21 20 21h130q20 0 20 -21v-147q0 -21 -20 -21h-130q-20 0 -20 21zM1116 20v941q0 20 21 20h116q21 0 21 -20v-941q0 -20 -21 -20h-116q-21 0 -21 20z" />
<glyph unicode="&#xfb04;" horiz-adv-x="1452" d="M59 877v84q0 20 21 20h59q13 0 13 12v129q0 132 61 201.5t195 69.5h36q9 0 15 -6t6 -15v-108q0 -9 -6 -15t-15 -6h-47q-48 0 -68 -20.5t-20 -71.5v-158q0 -12 13 -12h122q21 0 21 -20v-84q0 -9 -6 -15t-15 -6h-122q-13 0 -13 -12v-824q0 -20 -20 -20h-117q-20 0 -20 20 v824q0 12 -13 12h-59q-9 0 -15 6t-6 15zM557 877v84q0 20 21 20h59q12 0 12 12v129q0 132 61 201.5t195 69.5h37q9 0 15 -6t6 -15v-108q0 -9 -6 -15t-15 -6h-47q-48 0 -68 -20.5t-20 -71.5v-158q0 -12 12 -12h123q21 0 21 -20v-84q0 -9 -6 -15t-15 -6h-123q-12 0 -12 -12 v-824q0 -20 -21 -20h-116q-21 0 -21 20v824q0 12 -12 12h-59q-9 0 -15 6t-6 15zM1116 260v1112q0 9 6 15t15 6h116q9 0 15 -6t6 -15v-1118q0 -53 20 -79.5t66 -33.5l10 -2q21 -3 21 -22v-107q0 -20 -21 -20l-10 2q-134 4 -189 65t-55 203z" />
<glyph horiz-adv-x="2048" />
<glyph horiz-adv-x="2048" />
<glyph unicode="&#xd;" horiz-adv-x="2048" />
<glyph unicode=" "  horiz-adv-x="389" />
<glyph unicode="&#x09;" horiz-adv-x="389" />
<glyph unicode="&#xa0;" horiz-adv-x="389" />
<glyph unicode="!" horiz-adv-x="464" d="M145 20v173q0 20 21 20h133q20 0 20 -20v-173q0 -20 -20 -20h-133q-21 0 -21 20zM145 1372q0 9 6 15t15 6h133q20 0 20 -21l-32 -1003q0 -9 -6 -15t-15 -6h-67q-9 0 -15 6t-6 15z" />
<glyph unicode="&#x22;" horiz-adv-x="520" d="M84 1057v315q0 21 20 21h80q9 0 15 -6t6 -15v-315q0 -9 -6 -15t-15 -6h-80q-20 0 -20 21zM313 1057v315q0 9 6 15t15 6h82q20 0 20 -21v-315q0 -21 -20 -21h-82q-9 0 -15 6t-6 15z" />
<glyph unicode="#" horiz-adv-x="1048" d="M123 477v78q0 20 20 20h121l31 289h-115q-20 0 -20 21v76q0 20 20 20h127l41 391q4 21 23 21h80q21 0 18 -21l-41 -391h236l41 391q3 21 22 21h80q21 0 18 -21l-41 -391h121q21 0 21 -20v-76q0 -9 -6 -15t-15 -6h-133l-31 -289h125q21 0 21 -20v-78q0 -20 -21 -20h-137 l-45 -437q-3 -20 -22 -20h-80q-22 0 -19 20l45 437h-235l-45 -437q-3 -20 -23 -20h-80q-21 0 -18 20l45 437h-109q-20 0 -20 20zM385 575h236l30 289h-235z" />
<glyph unicode="$" d="M86 332q0 19 16 22l107 19q22 3 22 -19q3 -111 33.5 -161.5t95.5 -59.5v520l-38 17q-128 50 -175 132t-47 245q0 344 260 362v84q0 20 21 20h31q20 0 20 -20v-84q124 -12 184.5 -92t69.5 -230q3 -19 -16 -22l-105 -16q-19 -3 -22 16q-6 92 -31 137t-80 55v-456l39 -15 q127 -50 176 -134.5t49 -260.5q0 -204 -64 -300t-200 -107v-121q0 -21 -20 -21h-31q-9 0 -15 6t-6 15v121q-137 9 -202.5 94.5t-71.5 253.5zM252 1055q0 -99 22.5 -147.5t85.5 -78.5v428q-58 -9 -83 -56t-25 -146zM432 133q59 8 86 61.5t27 178.5q0 110 -25 165.5t-88 86.5 v-492z" />
<glyph unicode="%" horiz-adv-x="1329" d="M123 1040q0 133 2.5 174.5t11.5 71.5q40 119 178 119q68 0 114 -31.5t63 -87.5q9 -30 11.5 -71.5t2.5 -174.5q0 -134 -2.5 -175.5t-11.5 -71.5q-17 -56 -63 -87.5t-114 -31.5q-138 0 -178 119q-9 30 -11.5 71.5t-2.5 175.5zM240 1040q0 -187 8 -215q16 -45 67 -45 q54 0 66 45q8 19 8 215q0 194 -8 213q-12 45 -66 45q-51 0 -67 -45q-8 -28 -8 -213zM352 2l504 1389q9 20 27 20h78q9 0 13 -5.5t1 -14.5l-502 -1389q-9 -20 -27 -20h-79q-9 0 -13.5 5.5t-1.5 14.5zM821 352q0 132 3 174.5t12 73.5q19 57 64.5 88t113.5 31t113 -31.5 t63 -87.5q11 -29 13.5 -70.5t2.5 -177.5q0 -134 -2.5 -175.5t-13.5 -70.5q-17 -56 -62.5 -87t-113.5 -31q-138 0 -178 118q-9 31 -12 73.5t-3 172.5zM938 352q0 -185 8 -213q16 -45 68 -45q53 0 65 45q8 19 8 213q0 196 -8 215q-12 45 -65 45q-52 0 -68 -45q-8 -28 -8 -215z " />
<glyph unicode="&#x26;" horiz-adv-x="1091" d="M135 285q0 98 58.5 202t195.5 265l-29 49q-67 116 -97 192t-30 144q0 125 75.5 199.5t195.5 74.5t196 -75t76 -199q0 -84 -46 -173t-165 -227l178 -309l95 164q10 19 26 8l80 -45q16 -9 6 -29l-129 -231l58 -98q18 -33 31 -43.5t32 -10.5h8q21 0 21 -20v-103 q0 -20 -21 -20h-45q-49 0 -74.5 16.5t-52.5 63.5l-43 74q-63 -88 -136.5 -130t-168.5 -42q-138 0 -216.5 82.5t-78.5 220.5zM283 289q0 -79 42 -122.5t113 -43.5q61 0 112 35.5t109 124.5l-194 338q-100 -116 -141 -189t-41 -143zM381 1141q0 -81 108 -273q84 98 113 155 t29 118q0 67 -33.5 104t-91.5 37t-91.5 -37t-33.5 -104z" />
<glyph unicode="'" horiz-adv-x="288" d="M84 1057v315q0 21 20 21h80q9 0 15 -6t6 -15v-315q0 -9 -6 -15t-15 -6h-80q-20 0 -20 21z" />
<glyph unicode="(" horiz-adv-x="522" d="M139 672q0 209 47.5 424t135.5 399q7 21 26 21h70q9 0 13 -6t1 -15q-133 -393 -133 -823q0 -431 133 -824q3 -9 -1 -14.5t-13 -5.5h-70q-19 0 -26 20q-88 184 -135.5 399t-47.5 425z" />
<glyph unicode=")" horiz-adv-x="522" d="M90 -152q135 399 135 824q0 424 -135 823q-3 9 1 15t13 6h72q16 0 27 -21q87 -183 133.5 -397.5t46.5 -425.5t-46.5 -426t-133.5 -398q-10 -20 -27 -20h-72q-9 0 -13 5.5t-1 14.5z" />
<glyph unicode="*" horiz-adv-x="667" d="M96 997q-11 19 6 29l134 76l-134 76q-17 10 -6 28l29 54q10 16 27 6l133 -80v186q0 21 20 21h57q9 0 15 -6t6 -15l-2 -186l135 80q17 10 27 -6l30 -54q11 -18 -6 -28l-137 -76l137 -76q17 -10 6 -29l-30 -53q-10 -16 -27 -6l-135 80l2 -187q0 -20 -21 -20h-57 q-20 0 -20 20v187l-133 -80q-17 -10 -27 6z" />
<glyph unicode="+" d="M78 514v102q0 21 20 21h211q13 0 13 12v215q0 21 20 21h107q20 0 20 -21v-215q0 -12 12 -12h211q9 0 15 -6t6 -15v-102q0 -20 -21 -20h-211q-12 0 -12 -13v-215q0 -20 -20 -20h-107q-20 0 -20 20v215q0 13 -13 13h-211q-20 0 -20 20z" />
<glyph unicode="," horiz-adv-x="366" d="M102 -190v383q0 20 21 20h121q20 0 20 -20v-154q0 -34 -12 -53l-111 -181q-8 -14 -22 -14q-17 0 -17 19z" />
<glyph unicode="-" horiz-adv-x="686" d="M84 492v106q0 20 20 20h476q20 0 20 -20v-106q0 -21 -20 -21h-476q-20 0 -20 21z" />
<glyph unicode="." horiz-adv-x="378" d="M102 20v173q0 20 21 20h133q20 0 20 -20v-173q0 -20 -20 -20h-133q-21 0 -21 20z" />
<glyph unicode="/" horiz-adv-x="479" d="M51 2l254 1389q3 20 23 20h84q21 0 18 -20l-256 -1389q-3 -20 -22 -20h-82q-9 0 -14.5 5.5t-4.5 14.5z" />
<glyph unicode="0" d="M102 696q0 299 5.5 396t17.5 137q29 90 98.5 136t171.5 46t172 -46t99 -136q12 -37 16 -132t4 -401t-4 -400.5t-16 -131.5q-29 -90 -99 -136t-172 -46t-171.5 46t-98.5 136q-12 40 -17.5 136.5t-5.5 395.5zM262 696q0 -440 12 -483q28 -82 121 -82q94 0 119 82 q8 24 11 107t3 376t-3 376.5t-11 107.5q-25 82 -119 82q-93 0 -121 -82q-5 -17 -7 -46.5t-3.5 -133t-1.5 -304.5z" />
<glyph unicode="1" d="M164 1083v127q0 18 18 33l178 137q20 13 35 13h109q20 0 20 -21v-1352q0 -20 -20 -20h-119q-20 0 -20 20v1182h-3l-176 -133q-8 -7 -15 -3t-7 17z" />
<glyph unicode="2" d="M106 20v105q0 18 11 37l348 655q32 59 45.5 113.5t13.5 136.5q0 84 -10 113q-28 82 -123 82q-93 0 -121 -82q-10 -29 -10 -144q0 -23 -24 -20l-111 12q-19 3 -19 25q0 119 17 174q61 184 270 184q210 0 271 -182q18 -59 18 -162q0 -104 -19.5 -174.5t-64.5 -155.5 l-319 -587v-3h383q20 0 20 -20v-107q0 -20 -20 -20h-535q-21 0 -21 20z" />
<glyph unicode="3" d="M102 330q0 21 21 24l110 11q11 2 18 -3.5t7 -15.5q0 -104 10 -133q28 -82 121 -82q94 0 121 82q10 29 10 178q0 155 -10 180q-26 80 -129 80h-33q-20 0 -20 21v104q0 21 20 21h33q103 0 129 77q10 29 10 158q0 119 -10 148q-27 82 -121 82q-93 0 -121 -82 q-10 -29 -10 -133q0 -10 -7 -15.5t-18 -3.5l-110 10q-21 3 -21 25q0 102 19 164q61 184 270 184q210 0 271 -182q16 -52 16 -197q0 -131 -14 -180q-24 -74 -105 -121v-4q80 -47 105 -123q14 -46 14 -213q0 -175 -16 -227q-61 -182 -271 -182q-209 0 -270 184q-19 62 -19 164 z" />
<glyph unicode="4" d="M55 250v104q0 13 4 25l287 997q6 17 25 17h118q9 0 13.5 -6.5t1.5 -16.5l-285 -989v-4h225q13 0 13 12v389q0 21 20 21h117q20 0 20 -21v-389q0 -12 11 -12h94q20 0 20 -21v-106q0 -21 -20 -21h-92q-13 0 -13 -12v-197q0 -20 -20 -20h-117q-20 0 -20 20v197q0 12 -13 12 h-368q-9 0 -15 6t-6 15z" />
<glyph unicode="5" d="M111 313q0 22 18 25l111 10q24 3 24 -18q0 -88 10 -117q28 -82 121 -82q95 0 119 80q12 34 12 231q0 196 -12 230q-25 82 -119 82q-77 0 -116 -70q-10 -18 -31 -18h-101q-20 0 -20 20v686q0 21 20 21h519q20 0 20 -21v-106q0 -21 -20 -21h-381q-13 0 -13 -12v-395h2 q56 63 158 63q178 0 232 -160q11 -35 15.5 -91.5t4.5 -207.5q0 -213 -20 -278q-58 -182 -267 -182t-270 184q-16 52 -16 147z" />
<glyph unicode="6" d="M106 399q0 147 13 221t53 177l223 577q6 19 25 19h123q22 0 12 -23l-219 -571l2 -4q23 20 88 20q182 0 240 -178q18 -59 18 -238t-16 -231q-30 -89 -99.5 -137.5t-173.5 -48.5t-173 48.5t-99 137.5q-17 55 -17 231zM264 399q0 -157 10 -186q28 -82 121 -82t121 82 q10 29 10 186q0 156 -10 185q-27 84 -121 84t-121 -84q-10 -29 -10 -185z" />
<glyph unicode="7" d="M102 1079v293q0 9 6 15t15 6h553q20 0 20 -21v-108q0 -11 -4 -27l-356 -1217q-6 -20 -27 -20h-121q-18 0 -12 25l361 1216v4h-275q-12 0 -12 -12v-154q0 -20 -21 -20h-106q-21 0 -21 20z" />
<glyph unicode="8" d="M106 393q0 151 19 207q26 83 96 127v4q-69 44 -96 127q-19 56 -19 174q0 131 19 193q62 186 270 186q104 0 173.5 -48.5t99.5 -137.5q16 -52 16 -193q0 -119 -16 -174q-27 -82 -97 -127v-4q71 -45 97 -127q10 -30 13 -69t3 -138q0 -173 -16 -225q-30 -89 -99.5 -137.5 t-173.5 -48.5q-208 0 -270 186q-19 62 -19 225zM264 393q0 -151 10 -180q28 -82 121 -82t121 82q10 29 10 180q0 149 -10 178q-27 84 -121 84t-121 -84q-10 -29 -10 -178zM264 1032q0 -116 10 -145q29 -84 121 -84t121 84q10 29 10 145q0 119 -10 148q-28 82 -121 82 t-121 -82q-10 -29 -10 -148z" />
<glyph unicode="9" d="M106 993q0 177 17 232q30 89 99 137.5t173 48.5t173.5 -48.5t99.5 -137.5q16 -52 16 -232q0 -147 -13 -220.5t-53 -176.5l-223 -578q-6 -18 -24 -18h-123q-22 0 -12 23l219 571l-2 4q-23 -20 -88 -20q-182 0 -240 178q-19 62 -19 237zM264 993q0 -155 10 -184 q27 -84 121 -84t121 84q10 29 10 184q0 158 -10 187q-28 82 -121 82t-121 -82q-10 -29 -10 -187z" />
<glyph unicode=":" horiz-adv-x="405" d="M115 20v173q0 20 20 20h135q21 0 21 -20v-173q0 -20 -21 -20h-135q-20 0 -20 20zM115 791v170q0 20 20 20h135q21 0 21 -20v-170q0 -9 -6 -15t-15 -6h-135q-20 0 -20 21z" />
<glyph unicode=";" horiz-adv-x="405" d="M115 791v170q0 20 20 20h135q21 0 21 -20v-170q0 -9 -6 -15t-15 -6h-135q-20 0 -20 21zM121 -188v381q0 20 20 20h123q21 0 21 -20v-150q0 -28 -15 -55l-110 -181q-8 -14 -23 -14q-16 0 -16 19z" />
<glyph unicode="&#x3c;" d="M78 522v86q0 21 20 31l594 242q21 7 21 -13v-112q0 -19 -21 -27l-413 -162v-4l413 -162q21 -8 21 -26v-113q0 -19 -21 -12l-594 242q-20 10 -20 30z" />
<glyph unicode="=" d="M78 336v100q0 21 20 21h594q9 0 15 -6t6 -15v-100q0 -9 -6 -15t-15 -6h-594q-20 0 -20 21zM78 694v101q0 20 20 20h594q21 0 21 -20v-101q0 -20 -21 -20h-594q-20 0 -20 20z" />
<glyph unicode="&#x3e;" d="M78 262v113q0 17 20 26l416 162v4l-416 162q-20 9 -20 27v112q0 9 6 12.5t14 0.5l594 -242q21 -9 21 -31v-86q0 -21 -21 -30l-594 -242q-8 -3 -14 0t-6 12z" />
<glyph unicode="?" horiz-adv-x="737" d="M63 1053q0 117 19 176q28 85 98 133.5t168 48.5q102 0 169.5 -48t96.5 -134q19 -67 19 -142q0 -76 -13.5 -129t-48.5 -118l-112 -215q-31 -60 -31 -113v-143q0 -21 -20 -21h-117q-9 0 -15 6t-6 15v149q0 74 37 141l113 211q29 57 41 102.5t12 114.5q0 64 -10 93 q-27 82 -117 82q-91 0 -117 -82q-12 -34 -12 -144q0 -10 -6.5 -16t-15.5 -4l-113 12q-19 3 -19 25zM262 20v173q0 20 21 20h133q20 0 20 -20v-173q0 -20 -20 -20h-133q-21 0 -21 20z" />
<glyph unicode="@" horiz-adv-x="1378" d="M84 549q0 178 8.5 262t28.5 145q61 187 211.5 291.5t355.5 104.5q206 0 357 -104.5t212 -291.5q20 -61 28.5 -145t8.5 -262q0 -207 -18 -268q-52 -160 -223 -160q-74 0 -128.5 33t-80.5 96h-2q-27 -68 -71 -98.5t-120 -30.5q-149 0 -192 135q-19 62 -19 283q0 220 19 282 q43 135 188 135q106 0 152 -86h4v52q0 20 20 20h95q20 0 20 -20v-543q0 -70 31 -104.5t84 -34.5q81 0 106 73q6 20 8 58.5t2 177.5q0 177 -7 252t-23 125q-45 147 -164.5 227t-286.5 80q-166 0 -284.5 -80t-163.5 -227q-17 -51 -24 -126t-7 -251q0 -171 7.5 -247t23.5 -128 q50 -147 167 -228t281 -81q187 0 318 90q17 13 28 -4l41 -60q11 -18 -6 -28q-165 -115 -381 -115q-205 0 -355.5 104t-211.5 291q-20 61 -28.5 144.5t-8.5 261.5zM573 539q0 -186 11 -220q24 -71 104 -71q83 0 107 71q10 31 10 220q0 188 -10 219q-24 71 -107 71 q-80 0 -104 -71q-11 -34 -11 -219z" />
<glyph unicode="A" horiz-adv-x="831" d="M37 20l297 1352q7 21 22 21h123q19 0 23 -21l293 -1352q1 -9 -4.5 -14.5t-14.5 -5.5h-123q-19 0 -22 20l-62 306h-309l-61 -306q-3 -20 -21 -20h-123q-21 0 -18 20zM289 469h252l-119 606h-6z" />
<glyph unicode="B" horiz-adv-x="839" d="M123 20v1352q0 21 20 21h265q182 0 264 -84.5t82 -274.5q0 -126 -41 -198t-121 -107v-4q176 -56 176 -326q0 -219 -90.5 -309t-290.5 -90h-244q-20 0 -20 20zM289 166q0 -12 12 -12h92q116 0 161.5 52.5t45.5 194.5q0 137 -46.5 190.5t-154.5 53.5h-98q-12 0 -12 -12 v-467zM289 803q0 -12 12 -12h98q101 0 144 48t43 175q0 131 -41.5 178t-149.5 47h-94q-12 0 -12 -12v-424z" />
<glyph unicode="C" horiz-adv-x="780" d="M100 696q0 280 5 372t20 138q67 205 299 205q285 0 311 -311v-6q0 -17 -16 -19l-117 -22q-9 -2 -15.5 2.5t-6.5 13.5q-8 94 -45 140t-109 46q-110 0 -139 -96q-10 -34 -14.5 -116t-4.5 -347t4.5 -347t14.5 -116q29 -96 139 -96q71 0 108.5 46t45.5 141q0 9 6.5 13.5 t15.5 2.5l117 -23q16 -3 16 -19v-5q-26 -311 -311 -311q-232 0 -299 204q-15 46 -20 138t-5 372z" />
<glyph unicode="D" horiz-adv-x="886" d="M123 20v1352q0 21 20 21h289q254 0 322 -217q19 -58 25.5 -153.5t6.5 -326.5t-6 -326t-26 -153q-68 -217 -322 -217h-289q-20 0 -20 20zM289 166q0 -12 12 -12h115q70 0 112 28t64 90q14 46 20 131t6 293t-6 293t-20 131q-22 62 -64 90.5t-112 28.5h-115q-12 0 -12 -12 v-1061z" />
<glyph unicode="E" horiz-adv-x="751" d="M123 20v1352q0 21 20 21h527q20 0 20 -21v-112q0 -21 -20 -21h-369q-12 0 -12 -12v-434q0 -13 12 -13h320q20 0 20 -20v-113q0 -20 -20 -20h-320q-12 0 -12 -13v-448q0 -12 12 -12h369q20 0 20 -21v-113q0 -20 -20 -20h-527q-20 0 -20 20z" />
<glyph unicode="F" horiz-adv-x="745" d="M123 20v1352q0 21 20 21h527q20 0 20 -21v-112q0 -21 -20 -21h-369q-12 0 -12 -12v-443q0 -12 12 -12h320q20 0 20 -20v-113q0 -21 -20 -21h-320q-12 0 -12 -12v-586q0 -20 -21 -20h-125q-20 0 -20 20z" />
<glyph unicode="G" horiz-adv-x="854" d="M100 696q0 280 5.5 369.5t21.5 138.5q33 101 110 154t195 53q143 0 225 -77.5t99 -225.5q4 -22 -15 -25l-114 -22q-22 -3 -25 16q-22 178 -168 178q-56 0 -94 -25.5t-53 -72.5q-12 -34 -15.5 -110.5t-3.5 -350.5t3.5 -350t15.5 -110q15 -47 54 -73t95 -26t95.5 26 t54.5 73q10 33 14 95.5t4 260.5q0 12 -12 12h-137q-9 0 -15 6t-6 15v108q0 9 6 15t15 6h288q9 0 15 -6t6 -15v-59q0 -265 -5.5 -351t-21.5 -135q-31 -100 -109 -153t-196 -53q-238 0 -305 206q-16 49 -21.5 138.5t-5.5 369.5z" />
<glyph unicode="H" horiz-adv-x="901" d="M123 20v1352q0 21 20 21h125q9 0 15 -6t6 -15v-569q0 -12 12 -12h299q12 0 12 12v569q0 9 6 15t15 6h125q20 0 20 -21v-1352q0 -20 -20 -20h-125q-21 0 -21 20v605q0 12 -12 12h-299q-12 0 -12 -12v-605q0 -20 -21 -20h-125q-20 0 -20 20z" />
<glyph unicode="I" horiz-adv-x="411" d="M123 20v1352q0 21 20 21h125q9 0 15 -6t6 -15v-1352q0 -20 -21 -20h-125q-20 0 -20 20z" />
<glyph unicode="J" horiz-adv-x="700" d="M51 66q-6 7 -6 14q0 8 8 14l82 80q15 15 33 0q43 -37 96 -37q150 0 150 180v1055q0 21 20 21h125q9 0 15 -6t6 -15v-1042q0 -174 -85 -261t-233 -87q-66 0 -121.5 22t-89.5 62z" />
<glyph unicode="K" horiz-adv-x="868" d="M123 20v1352q0 21 20 21h125q9 0 15 -6t6 -15v-639l317 643q8 17 27 17h133q9 0 12 -6.5t0 -12.5l-276 -538l319 -816q1 -4 1 -8t-2 -6q-4 -6 -11 -6h-135q-17 0 -23 14l-250 648l-112 -230v-412q0 -20 -21 -20h-125q-20 0 -20 20z" />
<glyph unicode="L" horiz-adv-x="733" d="M123 20v1352q0 21 20 21h125q9 0 15 -6t6 -15v-1206q0 -12 12 -12h365q20 0 20 -21v-113q0 -20 -20 -20h-523q-20 0 -20 20z" />
<glyph unicode="M" horiz-adv-x="1107" d="M123 20v1352q0 21 20 21h127q23 0 29 -21l254 -852h8l248 852q6 21 31 21h125q20 0 20 -21v-1352q0 -20 -20 -20h-111q-20 0 -20 20v965h-11l-211 -717q-7 -20 -24 -20h-68q-17 0 -24 20l-211 717h-11v-965q0 -20 -20 -20h-111q-20 0 -20 20z" />
<glyph unicode="N" horiz-adv-x="919" d="M123 20v1352q0 21 20 21h154q25 0 31 -21l311 -1044h8v1044q0 9 6 15t15 6h108q9 0 15 -6t6 -15v-1352q0 -20 -21 -20h-145q-25 0 -31 20l-317 1045h-11v-1045q0 -20 -20 -20h-109q-20 0 -20 20z" />
<glyph unicode="O" horiz-adv-x="864" d="M100 696q0 280 5.5 369.5t21.5 138.5q33 101 110 154t195 53t196 -53.5t109 -153.5q16 -49 21.5 -138.5t5.5 -369.5t-5.5 -369.5t-21.5 -138.5q-31 -100 -109 -153t-196 -53q-238 0 -305 206q-16 49 -21.5 138.5t-5.5 369.5zM268 696q0 -274 3.5 -350t15.5 -110 q15 -48 52.5 -73.5t92.5 -25.5q56 0 94.5 26t53.5 73q10 34 13 109.5t3 350.5t-3 351.5t-13 109.5q-15 47 -53.5 72.5t-94.5 25.5q-114 0 -145 -98q-12 -34 -15.5 -110.5t-3.5 -350.5z" />
<glyph unicode="P" horiz-adv-x="833" d="M123 20v1352q0 21 20 21h244q191 0 284 -97t93 -321q0 -220 -94.5 -319t-282.5 -99h-86q-12 0 -12 -12v-525q0 -20 -21 -20h-125q-20 0 -20 20zM289 723q0 -12 12 -12h86q115 0 163 58t48 206q0 146 -48 205t-163 59h-86q-12 0 -12 -12v-504z" />
<glyph unicode="Q" horiz-adv-x="864" d="M100 696q0 280 5.5 369.5t21.5 138.5q33 101 110 154t195 53t196 -53.5t109 -153.5q16 -49 21.5 -138.5t5.5 -369.5q0 -205 -5 -310.5t-12 -139.5t-24 -80l106 -88q10 -8 10 -16q0 -6 -5 -13l-66 -78q-7 -9 -15 -9q-7 0 -14 7l-94 84q-83 -71 -213 -71q-238 0 -305 206 q-16 49 -21.5 138.5t-5.5 369.5zM266 696q0 -274 3.5 -351t15.5 -112q15 -47 53 -72.5t94 -25.5q62 0 103 23l-109 94q-15 15 -2 31l55 65q12 15 29 2l82 -76q8 68 8 422q0 277 -3.5 352.5t-14.5 108.5q-15 47 -53.5 72.5t-94.5 25.5t-94 -25.5t-53 -72.5 q-12 -34 -15.5 -110.5t-3.5 -350.5z" />
<glyph unicode="R" horiz-adv-x="862" d="M123 20v1352q0 21 20 21h244q191 0 284 -93.5t93 -308.5q0 -268 -170 -354l194 -617q2 -4 2 -7.5t-2 -6.5q-3 -6 -10 -6h-139q-17 0 -23 14l-174 582q-18 -2 -57 -2h-84q-12 0 -12 -12v-562q0 -20 -21 -20h-125q-20 0 -20 20zM289 756q0 -13 12 -13h88q111 0 160 54.5 t49 193.5q0 138 -48 193t-161 55h-88q-12 0 -12 -12v-471z" />
<glyph unicode="S" horiz-adv-x="802" d="M74 340q0 19 16 22l121 23q22 3 22 -18q6 -126 47 -180t123 -54q83 0 119.5 52t36.5 188q0 121 -29 175.5t-112 86.5l-84 33q-141 55 -192.5 137.5t-51.5 245.5q0 360 311 360q154 0 231 -83.5t85 -248.5q0 -19 -19 -22l-114 -19q-9 -3 -16 2.5t-7 14.5q-3 104 -40 154.5 t-115 50.5q-77 0 -114.5 -49t-37.5 -154q0 -107 30 -155.5t115 -80.5l84 -33q136 -55 189 -139.5t53 -255.5q0 -214 -75 -312.5t-249 -98.5q-158 0 -238.5 89t-88.5 269z" />
<glyph unicode="T" horiz-adv-x="755" d="M33 1260v112q0 21 20 21h649q9 0 15 -6t6 -15v-112q0 -9 -6 -15t-15 -6h-229q-12 0 -12 -12v-1207q0 -20 -21 -20h-125q-20 0 -20 20v1207q0 12 -12 12h-230q-20 0 -20 21z" />
<glyph unicode="U" horiz-adv-x="892" d="M121 342v1030q0 21 20 21h125q9 0 15 -6t6 -15v-1050q0 -89 42 -137t117 -48t117.5 48t42.5 137v1050q0 9 6 15t15 6h125q20 0 20 -21v-1030q0 -176 -86.5 -268t-239.5 -92t-239 92t-86 268z" />
<glyph unicode="V" horiz-adv-x="796" d="M45 1372v5q0 16 16 16h127q18 0 21 -21l190 -1024h7l184 1024q3 21 22 21h123q18 0 18 -15q0 -3 -1 -6l-277 -1352q-3 -20 -20 -20h-113q-17 0 -20 20z" />
<glyph unicode="W" horiz-adv-x="1179" d="M51 1372v5q0 16 17 16h125q19 0 22 -21l135 -999h4l170 999q3 21 21 21h90q17 0 20 -21l170 -999h4l140 999q3 21 22 21h121q17 0 17 -15q0 -3 -1 -6l-221 -1352q-3 -20 -20 -20h-111q-17 0 -20 20l-162 992h-4l-168 -992q-3 -20 -21 -20h-108q-18 0 -21 20z" />
<glyph unicode="X" horiz-adv-x="802" d="M45 20l272 705l-247 647q-3 9 1 15t13 6h127q18 0 25 -21l165 -448h2l164 448q7 21 25 21h129q9 0 13 -6t1 -15l-250 -647l273 -705q1 -4 1 -7q-1 -5 -3 -7q-4 -6 -13 -6h-129q-17 0 -24 20l-187 498h-2l-188 -498q-7 -20 -23 -20h-131q-9 0 -13 6q-2 3 -2 7q0 3 1 7z " />
<glyph unicode="Y" horiz-adv-x="768" d="M33 1372q-2 5 -2 9q0 12 16 12h129q19 0 25 -21l182 -584h6l182 584q6 21 23 21h127q16 0 16 -12q0 -4 -2 -9l-268 -797v-555q0 -20 -21 -20h-124q-21 0 -21 20v555z" />
<glyph unicode="Z" horiz-adv-x="741" d="M72 20v107q0 13 4 25l422 1083v4h-385q-9 0 -15 6t-6 15v112q0 9 6 15t15 6h538q9 0 15 -6t6 -15v-108q0 -13 -4 -25l-422 -1081v-4h405q9 0 15 -6t6 -15v-113q0 -20 -21 -20h-559q-20 0 -20 20z" />
<glyph unicode="[" horiz-adv-x="497" d="M139 -152v1647q0 9 6 15t15 6h235q9 0 15 -6t6 -15v-92q0 -9 -6 -15t-15 -6h-96q-12 0 -12 -12v-1397q0 -12 12 -12h96q21 0 21 -20v-93q0 -20 -21 -20h-235q-21 0 -21 20z" />
<glyph unicode="\" horiz-adv-x="479" d="M51 1391q-1 9 4.5 14.5t14.5 5.5h82q19 0 22 -20l256 -1389q3 -20 -18 -20h-84q-20 0 -23 20z" />
<glyph unicode="]" horiz-adv-x="497" d="M82 -59q0 20 20 20h99q12 0 12 12v1397q0 12 -12 12h-99q-20 0 -20 21v92q0 21 20 21h236q20 0 20 -21v-1647q0 -20 -20 -20h-236q-20 0 -20 20v93z" />
<glyph unicode="^" d="M74 578l250 794q7 21 28 21h88q22 0 29 -21l250 -794q3 -9 -1 -15t-13 -6h-107q-18 0 -27 21l-172 587h-4l-174 -587q-6 -21 -26 -21h-107q-9 0 -13 6t-1 15z" />
<glyph unicode="_" horiz-adv-x="796" d="M0 -156h797v-98h-797v98z" />
<glyph unicode="`" horiz-adv-x="798" d="M244 1427q3 7 12 7h121q21 0 33 -21l141 -252q10 -20 -10 -20h-82q-20 0 -35 20l-178 252q-5 7 -2 14z" />
<glyph unicode="a" horiz-adv-x="759" d="M82 272q0 157 78.5 230t210.5 73h116q13 0 13 13v80q0 99 -33.5 142.5t-112.5 43.5q-49 0 -87 -17t-79 -49q-9 -6 -18.5 -3.5t-13.5 12.5l-39 80q-9 19 4 32q97 90 252 90q148 0 213 -74.5t65 -248.5v-656q0 -20 -20 -20h-111q-20 0 -20 20v84h-2q-20 -57 -69.5 -89.5 t-115.5 -32.5q-99 0 -165 69t-66 221zM233 276q0 -79 32 -119t91 -40q63 0 103.5 49.5t40.5 128.5v135q0 12 -13 12h-92q-86 0 -124 -41t-38 -125z" />
<glyph unicode="b" horiz-adv-x="796" d="M119 20v1352q0 21 20 21h117q20 0 20 -21v-491h3q47 118 186 118q162 0 213 -159q14 -43 19 -108.5t5 -239.5t-5 -240t-19 -111q-51 -159 -213 -159q-138 0 -186 118h-3v-80q0 -20 -20 -20h-117q-20 0 -20 20zM276 492q0 -149 3 -198t12 -79q29 -86 121 -86q90 0 118 86 q9 30 12 79t3 198q0 148 -3 196t-12 78q-28 86 -118 86q-92 0 -121 -86q-9 -30 -12 -78t-3 -196z" />
<glyph unicode="c" horiz-adv-x="710" d="M92 492q0 169 4.5 224.5t18.5 100.5q60 182 262 182q117 0 190.5 -67t83.5 -184q0 -18 -14 -23l-111 -20q-21 -7 -24 16q-20 131 -125 131q-89 0 -115 -80q-9 -27 -10.5 -68t-1.5 -212q0 -172 1.5 -214t10.5 -69q26 -80 115 -80q105 0 125 131q3 23 24 16l111 -20 q14 -5 14 -23q-10 -117 -83.5 -184t-190.5 -67q-202 0 -262 182q-14 45 -18.5 101.5t-4.5 226.5z" />
<glyph unicode="d" horiz-adv-x="796" d="M94 492q0 172 5.5 238t19.5 110q51 159 213 159q139 0 186 -118h2v491q0 9 6 15t15 6h116q9 0 15 -6t6 -15v-1352q0 -20 -21 -20h-116q-21 0 -21 20v80h-2q-48 -118 -186 -118q-162 0 -213 159q-14 46 -19.5 112.5t-5.5 238.5zM252 492q0 -151 3 -199.5t11 -77.5 q28 -86 121 -86q44 0 74.5 23t44.5 63q8 29 11 77.5t3 199.5q0 150 -3 197.5t-11 76.5q-14 40 -44.5 63t-74.5 23q-93 0 -121 -86q-8 -29 -11 -76.5t-3 -197.5z" />
<glyph unicode="e" horiz-adv-x="753" d="M92 492q0 157 5.5 220.5t17.5 104.5q61 182 266 182q203 0 264 -182q12 -39 17.5 -108t5.5 -246q0 -9 -6 -15t-15 -6h-385q-12 0 -12 -12q0 -170 14 -217q31 -84 115 -84q102 0 131 111q6 19 25 16l108 -23q18 -3 14 -24q-20 -106 -94 -166.5t-186 -60.5q-202 0 -262 184 q-23 74 -23 326zM250 588q0 -13 12 -13h236q12 0 12 13q0 139 -14 186q-12 38 -42.5 60t-72.5 22q-44 0 -74.5 -21.5t-42.5 -60.5q-14 -47 -14 -186z" />
<glyph unicode="f" horiz-adv-x="499" d="M59 877v84q0 20 21 20h59q13 0 13 12v129q0 132 61 201.5t195 69.5h36q9 0 15 -6t6 -15v-108q0 -9 -6 -15t-15 -6h-47q-48 0 -68 -20.5t-20 -71.5v-158q0 -12 13 -12h122q21 0 21 -20v-84q0 -9 -6 -15t-15 -6h-122q-13 0 -13 -12v-824q0 -20 -20 -20h-117q-20 0 -20 20 v824q0 12 -13 12h-59q-9 0 -15 6t-6 15z" />
<glyph unicode="g" horiz-adv-x="792" d="M94 500q0 158 6 226t19 110q51 163 213 163q138 0 182 -120h2v82q0 20 21 20h116q21 0 21 -20v-1033q0 -152 -78.5 -233.5t-214.5 -81.5q-100 0 -172 50.5t-96 133.5q-4 19 10 25l108 39q18 6 27 -11q36 -88 127 -88q62 0 96.5 37.5t34.5 112.5v211h-2 q-44 -119 -182 -119q-163 0 -213 160q-13 44 -19 111.5t-6 224.5zM252 500q0 -210 14 -264q28 -86 119 -86q89 0 117 86q8 25 11 73t3 191q0 223 -14 266q-29 86 -117 86q-91 0 -119 -86q-14 -54 -14 -266z" />
<glyph unicode="h" horiz-adv-x="804" d="M119 20v1352q0 21 20 21h117q20 0 20 -21v-489h3q54 116 186 116q115 0 172 -73.5t57 -227.5v-678q0 -20 -20 -20h-117q-20 0 -20 20v654q0 178 -129 178q-63 0 -97.5 -44.5t-34.5 -133.5v-654q0 -20 -20 -20h-117q-20 0 -20 20z" />
<glyph unicode="i" horiz-adv-x="395" d="M113 1225v147q0 21 20 21h129q9 0 15 -6t6 -15v-147q0 -9 -6 -15t-15 -6h-129q-20 0 -20 21zM119 20v941q0 20 20 20h117q20 0 20 -20v-941q0 -20 -20 -20h-117q-20 0 -20 20z" />
<glyph unicode="j" horiz-adv-x="395" d="M-4 -242q0 21 20 21h23q43 3 61.5 25.5t18.5 76.5v1080q0 20 20 20h117q20 0 20 -20v-1084q0 -125 -57 -185.5t-178 -60.5h-25q-20 0 -20 21v106zM113 1225v147q0 21 20 21h129q9 0 15 -6t6 -15v-147q0 -9 -6 -15t-15 -6h-129q-20 0 -20 21z" />
<glyph unicode="k" horiz-adv-x="768" d="M119 20v1352q0 21 20 21h117q20 0 20 -21v-850l244 439q11 20 29 20h123q9 0 12.5 -5.5t-0.5 -14.5l-215 -359l258 -582q1 -4 1 -7t-2 -7q-4 -6 -13 -6h-123q-20 0 -29 20l-184 439l-101 -178v-261q0 -20 -20 -20h-117q-20 0 -20 20z" />
<glyph unicode="l" horiz-adv-x="452" d="M119 260v1112q0 21 20 21h117q20 0 20 -21v-1118q0 -53 20 -79.5t66 -33.5l11 -2q20 -3 20 -22v-107q0 -20 -20 -20l-11 2q-134 4 -188.5 65t-54.5 203z" />
<glyph unicode="m" horiz-adv-x="1222" d="M119 20v941q0 20 20 20h117q20 0 20 -20v-78h3q54 116 186 116q149 0 197 -116h2q60 116 204 116q244 0 244 -301v-678q0 -20 -20 -20h-117q-21 0 -21 20v654q0 178 -131 178q-61 0 -95 -44t-34 -130v-658q0 -20 -20 -20h-117q-20 0 -20 20v654q0 178 -129 178 q-63 0 -97.5 -44.5t-34.5 -133.5v-654q0 -20 -20 -20h-117q-20 0 -20 20z" />
<glyph unicode="n" horiz-adv-x="804" d="M119 20v941q0 20 20 20h117q20 0 20 -20v-78h3q54 116 186 116q115 0 172 -73.5t57 -227.5v-678q0 -20 -20 -20h-117q-20 0 -20 20v654q0 178 -129 178q-63 0 -97.5 -44.5t-34.5 -133.5v-654q0 -20 -20 -20h-117q-20 0 -20 20z" />
<glyph unicode="o" horiz-adv-x="765" d="M92 492q0 161 4 220t17 101q29 89 99 137.5t171 48.5t171 -48.5t99 -137.5q13 -42 17 -101t4 -220t-4 -220.5t-17 -101.5q-29 -91 -99 -139.5t-171 -48.5t-171 48.5t-99 139.5q-13 42 -17 101.5t-4 220.5zM250 492q0 -157 2 -203.5t10 -73.5q28 -86 121 -86t121 86 q8 27 10 73.5t2 203.5q0 156 -2 201.5t-10 72.5q-28 86 -121 86t-121 -86q-8 -27 -10 -72.5t-2 -201.5z" />
<glyph unicode="p" horiz-adv-x="796" d="M119 -348v1309q0 20 20 20h117q20 0 20 -20v-80h3q47 118 186 118q162 0 213 -159q14 -43 19 -108.5t5 -239.5t-5 -240t-19 -111q-51 -159 -213 -159q-138 0 -186 118h-3v-448q0 -21 -20 -21h-117q-20 0 -20 21zM276 492q0 -149 3 -198t12 -79q29 -86 121 -86 q90 0 118 86q9 30 12 79t3 198q0 148 -3 196t-12 78q-28 86 -118 86q-92 0 -121 -86q-9 -30 -12 -78t-3 -196z" />
<glyph unicode="q" horiz-adv-x="796" d="M94 492q0 172 5.5 238t19.5 110q51 159 213 159q139 0 186 -118h2v80q0 20 21 20h116q21 0 21 -20v-1309q0 -9 -6 -15t-15 -6h-116q-9 0 -15 6t-6 15v448h-2q-48 -118 -186 -118q-162 0 -213 159q-14 46 -19.5 112.5t-5.5 238.5zM252 492q0 -151 3 -199.5t11 -77.5 q28 -86 121 -86q44 0 74.5 23t44.5 63q8 29 11 77.5t3 199.5q0 150 -3 197.5t-11 76.5q-14 40 -44.5 63t-74.5 23q-93 0 -121 -86q-8 -29 -11 -76.5t-3 -197.5z" />
<glyph unicode="r" horiz-adv-x="559" d="M119 20v941q0 20 20 20h117q20 0 20 -20v-93h3q57 131 196 131q23 0 39 -4q14 -1 14 -13q0 -4 -2 -9l-28 -117q-5 -18 -25 -18h-31q-75 0 -120.5 -53.5t-45.5 -157.5v-607q0 -20 -20 -20h-117q-20 0 -20 20z" />
<glyph unicode="s" horiz-adv-x="702" d="M70 231q-1 4 -1 7q0 16 17 18l104 20q22 4 25 -16q9 -72 45.5 -106.5t93.5 -34.5q61 0 95 36t34 105q0 60 -24.5 95t-87.5 61l-82 30q-203 78 -203 277q0 122 72.5 199t195.5 77q115 0 183 -62.5t79 -156.5q3 -23 -14 -26l-98 -21q-18 -3 -25 17q-14 58 -42.5 86 t-82.5 28q-57 0 -86.5 -34.5t-29.5 -96.5q0 -48 25 -82t87 -59l82 -31q111 -41 156 -110.5t45 -180.5q0 -130 -74.5 -209t-206.5 -79q-123 0 -196.5 64.5t-85.5 184.5z" />
<glyph unicode="t" horiz-adv-x="497" d="M57 877v84q0 20 21 20h59q13 0 13 12v277q0 20 20 20h117q20 0 20 -20v-277q0 -12 12 -12h97q20 0 20 -20v-84q0 -21 -20 -21h-97q-12 0 -12 -12v-619q0 -86 82 -86h27q20 0 20 -20v-109q0 -20 -20 -20h-51q-113 0 -164 54.5t-51 178.5v621q0 12 -13 12h-59q-9 0 -15 6 t-6 15z" />
<glyph unicode="u" horiz-adv-x="798" d="M111 285v676q0 20 20 20h117q20 0 20 -20v-654q0 -178 127 -178q61 0 94 45t33 133v654q0 20 21 20h116q21 0 21 -20v-941q0 -20 -21 -20h-116q-21 0 -21 20v78h-2q-51 -116 -184 -116q-113 0 -169 74t-56 229z" />
<glyph unicode="v" horiz-adv-x="716" d="M47 961q-1 4 -1 7q0 4 2 8q4 6 13 5h123q18 0 21 -20l153 -672h4l152 672q3 20 23 20h116q20 0 17 -20l-238 -941q-6 -20 -24 -20h-101q-16 0 -22 20z" />
<glyph unicode="w" horiz-adv-x="1077" d="M55 961q-1 4 -1 7q0 6 2 8q4 6 14 5h123q17 0 20 -20l129 -668h2l131 668q3 20 23 20h86q17 0 20 -20l129 -668h2l129 668q3 20 23 20h121q9 1 13 -5q2 -3 2 -8q0 -3 -1 -7l-213 -941q-3 -20 -23 -20h-100q-19 0 -22 20l-125 644h-4l-121 -644q-3 -20 -23 -20h-100 q-20 0 -23 20z" />
<glyph unicode="x" horiz-adv-x="724" d="M47 7q-1 3 -1 6q0 5 3 10l234 485l-217 453q-10 20 10 20h123q18 0 26 -16l142 -303h2l135 303q8 16 26 16h121q21 0 11 -20l-220 -453l234 -485q3 -6 3 -10q0 -3 -1 -6q-3 -7 -12 -7h-123q-19 0 -27 18l-154 334h-2l-151 -334q-8 -18 -27 -18h-123q-9 0 -12 7z" />
<glyph unicode="y" horiz-adv-x="727" d="M53 961q-3 20 17 20h123q17 0 20 -20l152 -670h4l151 670q3 20 23 20h119q9 0 13 -5q2 -4 2 -8q0 -3 -1 -7l-268 -1059q-40 -162 -94.5 -216.5t-163.5 -54.5h-23q-9 0 -15 6t-6 15v108q0 9 6 15t15 6l25 2q44 2 67.5 26t38.5 87l35 135z" />
<glyph unicode="z" horiz-adv-x="669" d="M74 20v101q0 12 6 24l342 691v4h-307q-21 0 -21 20v101q0 20 21 20h467q20 0 20 -20v-84q0 -13 -6 -25l-348 -702v-5h334q20 0 20 -20v-105q0 -20 -20 -20h-488q-20 0 -20 20z" />
<glyph unicode="{" horiz-adv-x="598" d="M104 631v92q0 20 21 20q61 4 87 40t26 110v395q0 228 215 228h43q20 0 20 -21v-92q0 -21 -20 -21h-21q-90 0 -90 -104v-348q0 -119 -20.5 -171t-83.5 -79v-6q63 -27 83.5 -79t20.5 -171v-358q0 -105 90 -105h21q20 0 20 -20v-93q0 -20 -20 -20h-43q-215 0 -215 229v406 q0 74 -26 109t-87 38q-21 4 -21 21z" />
<glyph unicode="|" horiz-adv-x="483" d="M176 -152v1647q0 9 6 15t15 6h88q20 0 20 -21v-1647q0 -20 -20 -20h-88q-21 0 -21 20z" />
<glyph unicode="}" horiz-adv-x="598" d="M82 -59q0 20 20 20h21q92 0 92 105v358q0 120 20 171.5t84 78.5v6q-64 27 -84 78.5t-20 171.5v348q0 104 -92 104h-21q-20 0 -20 21v92q0 21 20 21h45q215 0 215 -228v-395q0 -75 25.5 -110.5t85.5 -39.5q21 0 21 -20v-92q0 -17 -21 -21q-61 -3 -86 -37.5t-25 -109.5 v-406q0 -229 -215 -229h-45q-20 0 -20 20v93z" />
<glyph unicode="~" d="M68 524q39 77 87.5 115.5t114.5 38.5t140 -51q65 -45 102 -45q33 0 56 18.5t53 67.5q9 15 26 6l66 -37q20 -10 8 -31q-75 -153 -201 -153q-63 0 -139 51q-67 45 -102 45q-33 0 -56 -18.5t-53 -67.5q-9 -15 -27 -6l-67 37q-17 10 -8 30z" />
<glyph unicode="&#xa1;" horiz-adv-x="464" d="M145 -391l33 1003q0 9 6 15t15 6h67q9 0 15 -6t6 -15l32 -1003q0 -21 -20 -21h-133q-9 0 -15 6t-6 15zM145 788v173q0 20 21 20h133q20 0 20 -20v-173q0 -20 -20 -20h-133q-21 0 -21 20z" />
<glyph unicode="&#xa2;" d="M113 492q0 167 4.5 223t19.5 102q51 168 236 180v170q0 21 20 21h27q20 0 20 -21v-170q104 -7 168.5 -68t79.5 -165q4 -20 -12 -23l-113 -22q-21 -4 -24 14q-21 100 -99 115v-715q82 15 99 115q2 9 8.5 13t15.5 1l113 -22q16 -3 12 -23q-15 -104 -79 -164t-169 -69v-168 q0 -21 -20 -21h-27q-20 0 -20 21v168q-186 12 -236 180q-15 46 -19.5 102.5t-4.5 225.5zM270 492q0 -155 3 -203t12 -78q24 -69 88 -78v715q-65 -12 -88 -76q-6 -22 -8.5 -40t-4.5 -75.5t-2 -164.5z" />
<glyph unicode="&#xa3;" d="M76 616v78q0 21 20 21h60q12 0 12 12v379q0 143 69.5 224t200.5 81q128 0 194 -76t77 -209q0 -21 -17 -24l-110 -19q-22 -3 -25 17q-4 86 -32 124t-87 38q-110 0 -110 -152v-383q0 -12 12 -12h192q9 0 15 -6t6 -15v-78q0 -20 -21 -20h-192q-12 0 -12 -12v-244 q0 -131 -60 -188v-5h426q21 0 21 -20v-107q0 -20 -21 -20h-575q-21 0 -21 20v107q0 11 8 23q35 39 48.5 80t13.5 110v244q0 12 -12 12h-60q-20 0 -20 20z" />
<glyph unicode="&#xa4;" d="M90 410q-14 14 0 28l76 76q-41 65 -41 148t43 147l-76 76q-12 12 0 28l51 52q15 15 29 0l76 -78q65 43 147 43q80 0 148 -43l75 78q14 15 29 0l51 -52q16 -16 0 -28l-77 -78q43 -65 43 -145q0 -86 -41 -148l75 -76q14 -14 0 -28l-51 -54q-15 -14 -29 0l-75 76 q-65 -41 -148 -41q-85 0 -149 43l-76 -78q-16 -13 -29 0zM242 662q0 -69 43 -113.5t110 -44.5t110.5 44.5t43.5 113.5q0 68 -43.5 111.5t-110.5 43.5t-110 -43.5t-43 -111.5z" />
<glyph unicode="&#xa5;" d="M63 1372q-7 21 15 21h125q18 0 24 -21l170 -579h4l166 579q6 21 25 21h123q21 0 14 -21l-227 -698v-6h164q20 0 20 -21v-80q0 -20 -20 -20h-179q-12 0 -12 -12v-105q0 -12 12 -12h179q20 0 20 -21v-80q0 -20 -20 -20h-179q-12 0 -12 -12v-265q0 -20 -20 -20h-117 q-21 0 -21 20v265q0 12 -12 12h-180q-21 0 -21 20v80q0 9 6 15t15 6h180q12 0 12 12v105q0 12 -12 12h-180q-21 0 -21 20v80q0 9 6 15t15 6h164v6z" />
<glyph unicode="&#xa6;" horiz-adv-x="540" d="M205 -152v689q0 20 20 20h88q21 0 21 -20v-689q0 -20 -21 -20h-88q-20 0 -20 20zM205 815v680q0 21 20 21h88q9 0 15 -6t6 -15v-680q0 -20 -21 -20h-88q-20 0 -20 20z" />
<glyph unicode="&#xa7;" horiz-adv-x="915" d="M166 518q0 97 20 158q39 115 142 151v2q-86 33 -119 129q-19 59 -19 148q0 87 17 139q27 79 91.5 122.5t160.5 43.5t159.5 -43t88.5 -121q16 -49 16 -141q0 -21 -16 -21l-107 -10q-7 0 -12.5 5.5t-5.5 13.5q0 80 -11 108q-25 76 -110 76q-88 0 -113 -76q-10 -33 -10 -96 q0 -64 12 -96q13 -45 55.5 -74.5t126.5 -54.5q152 -44 197 -176q23 -77 23 -187q0 -93 -19 -158q-38 -114 -141 -151v-2q91 -34 123 -129q18 -58 18 -156q0 -94 -16 -143q-27 -79 -93.5 -122.5t-168.5 -43.5q-99 0 -163 43t-89 121q-17 52 -17 141q0 21 17 21l106 10 q7 0 13 -5.5t6 -13.5q0 -75 10 -108q25 -76 119 -76t116 76q13 32 13 96q0 72 -13 107q-13 45 -58 76t-128 55q-80 23 -126.5 65t-70.5 111q-24 70 -24 186zM313 518q0 -87 15 -141q30 -92 131 -92q104 0 131 92q14 41 14 141q0 98 -14 139q-27 93 -131 93q-101 0 -131 -93 q-15 -54 -15 -139z" />
<glyph unicode="&#xa8;" horiz-adv-x="798" d="M178 1225v147q0 9 6 15t15 6h104q9 0 15 -6t6 -15v-147q0 -9 -6 -15t-15 -6h-104q-9 0 -15 6t-6 15zM475 1225v147q0 9 6 15t15 6h104q9 0 15 -6t6 -15v-147q0 -9 -6 -15t-15 -6h-104q-9 0 -15 6t-6 15z" />
<glyph unicode="&#xa9;" horiz-adv-x="1472" d="M98 696q0 186 37 299q65 197 222 306.5t380 109.5q222 0 378.5 -109.5t221.5 -306.5q37 -113 37 -299t-37 -299q-65 -197 -221.5 -306t-378.5 -109q-223 0 -380 109t-222 306q-37 113 -37 299zM217 696q0 -165 35 -272q53 -160 177.5 -245t307.5 -85q182 0 307 85 t177 245q34 104 34 272q0 169 -34 273q-52 160 -177 244.5t-307 84.5q-183 0 -307.5 -84.5t-177.5 -244.5q-35 -107 -35 -273zM512 696q0 203 18 256q23 72 78 110t135 38q92 0 151.5 -48.5t70.5 -123.5q4 -18 -13 -21l-86 -16q-16 -3 -20 12q-24 78 -103 78q-71 0 -92 -66 q-12 -30 -12 -219t12 -219q20 -65 92 -65q79 0 103 77q4 16 20 13l86 -17q16 -3 13 -20q-11 -75 -70.5 -123.5t-151.5 -48.5q-80 0 -135 37.5t-78 109.5q-18 53 -18 256z" />
<glyph unicode="&#xaa;" horiz-adv-x="555" d="M84 967q0 99 51 147.5t141 48.5h66q12 0 12 13v26q0 56 -22.5 79.5t-69.5 23.5q-51 0 -104 -39q-20 -10 -29 6l-23 55q-8 13 9 27q68 53 164 53q92 0 138 -46.5t46 -150.5v-387q0 -20 -21 -20h-67q-21 0 -21 20v39h-2q-11 -29 -43 -48t-73 -19q-69 0 -110.5 44.5 t-41.5 127.5zM190 977q0 -41 20.5 -64.5t55.5 -23.5q39 0 63.5 27t24.5 71v74q0 12 -12 12h-53q-99 0 -99 -96z" />
<glyph unicode="&#xab;" horiz-adv-x="911" d="M80 526q-14 14 0 29l330 340q6 6 13 3.5t7 -11.5v-123q0 -19 -18 -37l-172 -178q-8 -9 0 -17l172 -178q18 -18 18 -37v-122q0 -9 -7 -12t-13 3zM436 526q-14 14 0 29l330 340q6 6 13 3.5t7 -11.5v-123q0 -19 -18 -37l-172 -178q-8 -9 0 -17l172 -178q18 -18 18 -37v-122 q0 -9 -7 -12t-13 3z" />
<glyph unicode="&#xac;" d="M78 514v102q0 21 20 21h594q9 0 15 -6t6 -15v-292q0 -9 -6 -15t-15 -6h-104q-9 0 -15 6t-6 15v157q0 13 -12 13h-457q-20 0 -20 20z" />
<glyph unicode="&#xad;" horiz-adv-x="686" d="M84 492v106q0 20 20 20h476q20 0 20 -20v-106q0 -21 -20 -21h-476q-20 0 -20 21z" />
<glyph unicode="&#xae;" horiz-adv-x="884" d="M92 1010q0 75 21 157q35 110 120.5 170t208.5 60q122 0 208.5 -60t121.5 -170q19 -74 19 -157q0 -88 -19 -158q-35 -112 -121.5 -171.5t-208.5 -59.5q-123 0 -208.5 59.5t-120.5 171.5q-21 78 -21 158zM156 1010q0 -85 18 -144q29 -88 99.5 -137t168.5 -49t168.5 49 t98.5 137q20 66 20 144q0 75 -20 141q-28 88 -98.5 137t-168.5 49t-168.5 -49t-99.5 -137q-18 -59 -18 -141zM340 809v405q0 15 14 15h88q62 0 92.5 -30t30.5 -95q0 -81 -55 -109l61 -186q3 -14 -12 -14h-41q-13 0 -16 14l-51 168q-12 -2 -37 -2q-8 0 -8 -8v-158 q0 -14 -15 -14h-37q-14 0 -14 14zM406 1047q0 -9 8 -9h22q33 0 47.5 14.5t14.5 51.5q0 36 -14.5 49.5t-47.5 13.5h-22q-8 0 -8 -8v-112z" />
<glyph unicode="&#xaf;" horiz-adv-x="798" d="M180 1255v88q0 9 6 15t15 6h397q20 0 20 -21v-88q0 -20 -20 -20h-397q-21 0 -21 20z" />
<glyph unicode="&#xb0;" horiz-adv-x="677" d="M102 1161q0 103 67.5 170.5t170.5 67.5q101 0 168 -67.5t67 -170.5q0 -101 -67 -168t-168 -67q-103 0 -170.5 67t-67.5 168zM205 1161q0 -59 38 -98t97 -39t96 39t37 98q0 61 -37 100t-96 39q-60 0 -97.5 -39.5t-37.5 -99.5z" />
<glyph unicode="&#xb1;" d="M78 20v103q0 20 20 20h594q21 0 21 -20v-103q0 -20 -21 -20h-594q-20 0 -20 20zM78 549v100q0 21 20 21h211q13 0 13 12v215q0 21 20 21h107q20 0 20 -21v-215q0 -12 12 -12h211q9 0 15 -6t6 -15v-100q0 -9 -6 -15t-15 -6h-211q-12 0 -12 -12v-215q0 -20 -20 -20h-107 q-20 0 -20 20v215q0 12 -13 12h-211q-20 0 -20 21z" />
<glyph unicode="&#xb2;" horiz-adv-x="552" d="M74 1497q0 65 12 105q39 124 190 124q74 0 124 -32t69 -92q12 -40 12 -105q0 -101 -59 -190l-197 -310v-2h236q20 0 20 -20v-74q0 -20 -20 -20h-365q-20 0 -20 20v74q0 17 8 33l231 364q37 55 37 125q0 49 -6 70q-17 45 -72 45q-58 0 -71 -45q-8 -19 -8 -84 q0 -22 -23 -19l-80 9q-18 3 -18 24z" />
<glyph unicode="&#xb3;" horiz-adv-x="552" d="M72 1075q0 22 20 25l78 8q23 3 23 -21q0 -33 8 -61q13 -45 71 -45q59 0 72 45q8 28 8 90q0 71 -6 92q-15 45 -74 45h-16q-20 0 -20 21v76q0 20 20 20h14q62 0 76 43q6 21 6 80q0 46 -8 74q-13 45 -72 45q-58 0 -71 -45q-8 -28 -8 -62q0 -23 -23 -20l-78 8q-20 3 -20 25 q0 46 12 86q19 59 68 90.5t122 31.5q75 0 124.5 -31.5t68.5 -90.5q12 -40 12 -111q0 -76 -8 -100q-17 -56 -72 -78v-2q55 -27 70 -78q10 -29 10 -119q0 -86 -12 -127q-19 -59 -68.5 -91t-124.5 -32q-73 0 -122 32t-68 91q-12 41 -12 86z" />
<glyph unicode="&#xb4;" horiz-adv-x="798" d="M248 1161l141 252q12 21 33 21h121q9 0 12 -7t-2 -14l-178 -252q-15 -20 -35 -20h-82q-20 0 -10 20z" />
<glyph unicode="&#xb6;" horiz-adv-x="958" d="M123 961q0 185 104.5 308.5t280.5 123.5h293q20 0 20 -21v-1720q0 -21 -20 -21h-90q-9 0 -15 6t-6 15v1593q0 12 -12 12h-103q-12 0 -12 -12v-1593q0 -21 -20 -21h-88q-9 0 -15 6t-6 15v876q-142 19 -226.5 138t-84.5 295z" />
<glyph unicode="&#xb7;" horiz-adv-x="378" d="M102 457v172q0 20 21 20h133q20 0 20 -20v-172q0 -21 -20 -21h-133q-9 0 -15 6t-6 15z" />
<glyph unicode="&#xb8;" horiz-adv-x="798" d="M281 -291l116 291q9 20 27 20h86q9 0 13 -5.5t1 -14.5l-98 -291q-9 -20 -33 -20h-98q-9 0 -13 5.5t-1 14.5z" />
<glyph unicode="&#xb9;" horiz-adv-x="552" d="M119 1505v92q0 19 14 27l117 78q17 10 33 10h82q20 0 20 -20v-791q0 -20 -20 -20h-86q-21 0 -21 20v666h-2l-115 -72q-9 -6 -15.5 -2.5t-6.5 12.5z" />
<glyph unicode="&#xba;" horiz-adv-x="575" d="M90 1100q0 141 14 184q20 61 67.5 92t115.5 31q143 0 184 -123q14 -43 14 -184q0 -142 -14 -185q-40 -122 -184 -122q-143 0 -183 122q-14 43 -14 185zM199 1100q0 -126 8 -150q19 -55 80 -55q63 0 82 55q8 24 8 150q0 125 -8 149q-19 56 -82 56q-61 0 -80 -56 q-8 -24 -8 -149z" />
<glyph unicode="&#xbb;" horiz-adv-x="911" d="M125 195v122q0 19 18 37l172 178q9 8 0 17l-172 178q-18 18 -18 37v123q0 9 7 11.5t13 -3.5l330 -340q6 -6 6 -14.5t-6 -14.5l-330 -340q-6 -6 -13 -3t-7 12zM481 195v122q0 18 19 37l172 178q8 8 0 17l-172 178q-19 19 -19 37v123q0 9 7.5 11.5t13.5 -3.5l329 -340 q6 -6 6 -14.5t-6 -14.5l-329 -340q-6 -6 -13.5 -3t-7.5 12z" />
<glyph unicode="&#xbc;" horiz-adv-x="1443" d="M164 1186v92q0 19 14 27l117 77q18 11 33 11h82q20 0 20 -21v-790q0 -21 -20 -21h-86q-9 0 -15 6t-6 15v665h-2l-115 -71q-9 -6 -15.5 -2.5t-6.5 12.5zM383 2l502 1389q9 20 26 20h80q9 0 13.5 -5.5t1.5 -14.5l-502 -1389q-9 -20 -27 -20h-80q-9 0 -13 5.5t-1 14.5z M803 147v74q0 15 6 33l180 557q7 20 25 20h90q9 0 13 -5.5t1 -14.5l-184 -565v-4h133q12 0 12 12v203q0 20 21 20h80q20 0 20 -20v-203q0 -12 10 -12h47q9 0 15 -6t6 -15v-74q0 -20 -21 -20h-45q-12 0 -12 -12v-95q0 -20 -20 -20h-80q-21 0 -21 20v95q0 12 -12 12h-244 q-20 0 -20 20z" />
<glyph unicode="&#xbd;" horiz-adv-x="1480" d="M164 1186v92q0 19 14 27l117 77q18 11 33 11h82q20 0 20 -21v-790q0 -21 -20 -21h-86q-9 0 -15 6t-6 15v665h-2l-115 -71q-9 -6 -15.5 -2.5t-6.5 12.5zM383 2l502 1389q9 20 26 20h80q9 0 13.5 -5.5t1.5 -14.5l-502 -1389q-9 -20 -27 -20h-80q-9 0 -13 5.5t-1 14.5z M909 616q0 61 13 105q19 60 68 92.5t122 32.5q74 0 124 -32.5t69 -92.5q12 -41 12 -105q0 -99 -60 -190l-196 -309v-2h235q9 0 15 -6t6 -15v-74q0 -20 -21 -20h-364q-21 0 -21 20v74q0 15 9 33l231 365q37 55 37 124q0 49 -6 70q-17 45 -72 45q-59 0 -72 -45q-8 -19 -8 -84 q0 -21 -22 -18l-80 8q-19 3 -19 24z" />
<glyph unicode="&#xbe;" horiz-adv-x="1536" d="M164 756q0 21 20 24l78 8q23 3 23 -20q0 -33 8 -61q13 -45 72 -45q58 0 71 45q8 28 8 90q0 71 -6 92q-15 45 -73 45h-17q-20 0 -20 20v76q0 21 20 21h14q62 0 76 43q6 21 6 80q0 45 -8 73q-13 45 -71 45q-59 0 -72 -45q-8 -28 -8 -61q0 -24 -23 -21l-78 9q-20 3 -20 24 q0 46 12 86q19 59 68.5 91t122.5 32q74 0 123.5 -32t68.5 -91q12 -41 12 -110q0 -77 -8 -101q-17 -57 -71 -78v-2q54 -26 69 -78q10 -29 10 -118q0 -87 -12 -127q-19 -59 -68.5 -91t-123.5 -32q-73 0 -122.5 32t-68.5 91q-12 40 -12 86zM475 2l502 1389q9 20 27 20h79 q9 0 13.5 -5.5t1.5 -14.5l-502 -1389q-9 -20 -27 -20h-80q-9 0 -13 5.5t-1 14.5zM895 147v74q0 15 6 33l180 557q7 20 25 20h90q9 0 13 -5.5t1 -14.5l-184 -565v-4h133q12 0 12 12v203q0 20 21 20h80q20 0 20 -20v-203q0 -12 11 -12h47q20 0 20 -21v-74q0 -20 -20 -20h-45 q-13 0 -13 -12v-95q0 -20 -20 -20h-80q-21 0 -21 20v95q0 12 -12 12h-244q-20 0 -20 20z" />
<glyph unicode="&#xbf;" horiz-adv-x="737" d="M104 -106q0 76 13.5 129t48.5 118l113 215q30 58 30 113v143q0 9 6 15t15 6h116q9 0 15 -6t6 -15v-149q0 -74 -37 -141l-113 -211q-29 -57 -41 -102.5t-12 -114.5q0 -64 10 -93q27 -82 117 -82q91 0 117 82q12 34 12 144q0 10 7 16t16 4l112 -12q19 -3 19 -25 q0 -117 -19 -176q-28 -85 -98 -133.5t-168 -48.5q-102 0 -169.5 48t-96.5 134q-19 67 -19 142zM301 788v173q0 20 21 20h133q20 0 20 -20v-173q0 -20 -20 -20h-133q-21 0 -21 20z" />
<glyph unicode="&#xc0;" horiz-adv-x="831" d="M37 20l297 1352q7 21 22 21h123q19 0 23 -21l293 -1352q1 -9 -4.5 -14.5t-14.5 -5.5h-123q-19 0 -22 20l-62 306h-309l-61 -306q-3 -20 -21 -20h-123q-21 0 -18 20zM149.5 1812.5q3.5 6.5 12.5 6.5h119q19 0 34 -21l156 -215q6 -7 2.5 -13.5t-12.5 -6.5h-80q-21 0 -39 20 l-190 215q-6 8 -2.5 14.5zM289 469h252l-119 606h-6z" />
<glyph unicode="&#xc1;" horiz-adv-x="831" d="M37 20l297 1352q7 21 22 21h123q19 0 23 -21l293 -1352q1 -9 -4.5 -14.5t-14.5 -5.5h-123q-19 0 -22 20l-62 306h-309l-61 -306q-3 -20 -21 -20h-123q-21 0 -18 20zM289 469h252l-119 606h-6zM365.5 1569.5q-4.5 6.5 1.5 13.5l157 215q15 21 33 21h119q9 0 12.5 -6.5 t-2.5 -14.5l-190 -215q-18 -20 -39 -20h-78q-9 0 -13.5 6.5z" />
<glyph unicode="&#xc2;" horiz-adv-x="831" d="M37 20l297 1352q7 21 22 21h123q19 0 23 -21l293 -1352q1 -9 -4.5 -14.5t-14.5 -5.5h-123q-19 0 -22 20l-62 306h-309l-61 -306q-3 -20 -21 -20h-123q-21 0 -18 20zM171.5 1546q-3.5 6 2.5 15l168 251q12 21 35 21h74q22 0 34 -21l168 -251q6 -9 2.5 -15t-12.5 -6h-86 q-20 0 -35 21l-106 145h-4l-107 -145q-15 -21 -35 -21h-86q-9 0 -12.5 6zM289 469h252l-119 606h-6z" />
<glyph unicode="&#xc3;" horiz-adv-x="831" d="M37 20l297 1352q7 21 22 21h123q19 0 23 -21l293 -1352q1 -9 -4.5 -14.5t-14.5 -5.5h-123q-19 0 -22 20l-62 306h-309l-61 -306q-3 -20 -21 -20h-123q-21 0 -18 20zM213 1606v96q0 19 18 37q45 49 99 49q6 0 12 -0.5t10.5 -1.5t11 -3t10 -3t9.5 -4t8.5 -4.5t9.5 -5.5 t8.5 -5t9.5 -6t9 -6q27 -20 41 -27.5t33 -7.5q27 0 46 13.5t44 44.5q6 8 14 4.5t8 -13.5v-96q0 -19 -16 -35q-42 -49 -98 -49q-48 0 -101 39q-20 14 -27 18.5t-19.5 9.5t-24.5 5q-27 0 -46 -13t-44 -43q-8 -8 -16.5 -5.5t-8.5 12.5zM289 469h252l-119 606h-6z" />
<glyph unicode="&#xc4;" horiz-adv-x="831" d="M37 20l297 1352q7 21 22 21h123q19 0 23 -21l293 -1352q1 -9 -4.5 -14.5t-14.5 -5.5h-123q-19 0 -22 20l-62 306h-309l-61 -306q-3 -20 -21 -20h-123q-21 0 -18 20zM193 1612v147q0 21 20 21h104q9 0 15 -6t6 -15v-147q0 -9 -6 -15t-15 -6h-104q-20 0 -20 21zM289 469 h252l-119 606h-6zM489 1612v147q0 9 6 15t15 6h104q9 0 15 -6t6 -15v-147q0 -9 -6 -15t-15 -6h-104q-9 0 -15 6t-6 15z" />
<glyph unicode="&#xc5;" horiz-adv-x="831" d="M37 20l297 1352q7 21 22 21h123q19 0 23 -21l293 -1352q1 -9 -4.5 -14.5t-14.5 -5.5h-123q-19 0 -22 20l-62 306h-309l-61 -306q-3 -20 -21 -20h-123q-21 0 -18 20zM238 1673q0 77 50 126.5t126 49.5q75 0 125.5 -50t50.5 -126q0 -75 -50.5 -125.5t-125.5 -50.5 q-76 0 -126 50.5t-50 125.5zM289 469h252l-119 606h-6zM317 1673q0 -43 28 -71.5t69 -28.5t68.5 28.5t27.5 71.5t-27.5 72t-68.5 29t-69 -29t-28 -72z" />
<glyph unicode="&#xc6;" horiz-adv-x="1288" d="M37 20l514 1352q7 21 24 21h631q9 0 15 -6t6 -15v-112q0 -9 -6 -15t-15 -6h-368q-13 0 -13 -12v-434q0 -13 13 -13h319q21 0 21 -20v-113q0 -20 -21 -20h-319q-13 0 -13 -13v-448q0 -12 13 -12h368q9 0 15 -6t6 -15v-113q0 -20 -21 -20h-526q-21 0 -21 20v293 q0 13 -12 13h-334l-114 -306q-7 -20 -27 -20h-121q-9 0 -13 5.5t-1 14.5zM369 469h278q12 0 12 12v742h-6z" />
<glyph unicode="&#xc7;" horiz-adv-x="780" d="M100 696q0 280 5 372t20 138q67 205 299 205q285 0 311 -311q3 -22 -16 -25l-117 -22q-9 -2 -15.5 2.5t-6.5 13.5q-8 94 -45 140t-109 46q-110 0 -139 -96q-10 -34 -14.5 -116t-4.5 -347t4.5 -347t14.5 -116q29 -96 139 -96q71 0 108.5 46t45.5 141q0 9 6.5 13.5 t15.5 2.5l117 -23q19 -3 16 -24q-23 -275 -252 -307l-92 -277q-9 -20 -33 -20h-98q-9 0 -13 5.5t-1 14.5l110 279q-174 23 -231 198q-15 46 -20 138t-5 372z" />
<glyph unicode="&#xc8;" horiz-adv-x="751" d="M123 20v1352q0 21 20 21h527q20 0 20 -21v-112q0 -21 -20 -21h-369q-12 0 -12 -12v-434q0 -13 12 -13h320q20 0 20 -20v-113q0 -20 -20 -20h-320q-12 0 -12 -13v-448q0 -12 12 -12h369q20 0 20 -21v-113q0 -20 -20 -20h-527q-20 0 -20 20zM139 1812.5q4 6.5 13 6.5h118 q20 0 35 -21l156 -215q6 -7 2.5 -13.5t-12.5 -6.5h-80q-21 0 -39 20l-191 215q-6 8 -2 14.5z" />
<glyph unicode="&#xc9;" horiz-adv-x="751" d="M123 20v1352q0 21 20 21h527q20 0 20 -21v-112q0 -21 -20 -21h-369q-12 0 -12 -12v-434q0 -13 12 -13h320q20 0 20 -20v-113q0 -20 -20 -20h-320q-12 0 -12 -13v-448q0 -12 12 -12h369q20 0 20 -21v-113q0 -20 -20 -20h-527q-20 0 -20 20zM336.5 1569.5 q-4.5 6.5 1.5 13.5l158 215q15 21 32 21h119q9 0 12.5 -6.5t-2.5 -14.5l-190 -215q-17 -20 -39 -20h-78q-9 0 -13.5 6.5z" />
<glyph unicode="&#xca;" horiz-adv-x="751" d="M123 20v1352q0 21 20 21h527q20 0 20 -21v-112q0 -21 -20 -21h-369q-12 0 -12 -12v-434q0 -13 12 -13h320q20 0 20 -20v-113q0 -20 -20 -20h-320q-12 0 -12 -13v-448q0 -12 12 -12h369q20 0 20 -21v-113q0 -20 -20 -20h-527q-20 0 -20 20zM161.5 1546q-3.5 6 2.5 15 l168 251q12 21 35 21h73q23 0 35 -21l168 -251q6 -9 2.5 -15t-12.5 -6h-86q-20 0 -35 21l-106 145h-5l-106 -145q-15 -21 -35 -21h-86q-9 0 -12.5 6z" />
<glyph unicode="&#xcb;" horiz-adv-x="751" d="M123 20v1352q0 21 20 21h527q20 0 20 -21v-112q0 -21 -20 -21h-369q-12 0 -12 -12v-434q0 -13 12 -13h320q20 0 20 -20v-113q0 -20 -20 -20h-320q-12 0 -12 -13v-448q0 -12 12 -12h369q20 0 20 -21v-113q0 -20 -20 -20h-527q-20 0 -20 20zM180 1612v147q0 9 6 15t15 6 h104q9 0 15 -6t6 -15v-147q0 -9 -6 -15t-15 -6h-104q-9 0 -15 6t-6 15zM477 1612v147q0 9 6 15t15 6h104q9 0 15 -6t6 -15v-147q0 -9 -6 -15t-15 -6h-104q-9 0 -15 6t-6 15z" />
<glyph unicode="&#xcc;" horiz-adv-x="411" d="M-61.5 1812.5q3.5 6.5 12.5 6.5h119q19 0 34 -21l156 -215q6 -7 2.5 -13.5t-12.5 -6.5h-80q-22 0 -39 20l-190 215q-6 8 -2.5 14.5zM123 20v1352q0 21 20 21h125q9 0 15 -6t6 -15v-1352q0 -20 -21 -20h-125q-20 0 -20 20z" />
<glyph unicode="&#xcd;" horiz-adv-x="411" d="M123 20v1352q0 21 20 21h125q9 0 15 -6t6 -15v-1352q0 -20 -21 -20h-125q-20 0 -20 20zM152.5 1569.5q-4.5 6.5 1.5 13.5l157 215q15 21 33 21h119q9 0 12.5 -6.5t-2.5 -14.5l-190 -215q-18 -20 -39 -20h-78q-9 0 -13.5 6.5z" />
<glyph unicode="&#xce;" horiz-adv-x="411" d="M-35.5 1546q-3.5 6 2.5 15l168 251q12 21 35 21h74q23 0 35 -21l167 -251q6 -9 2.5 -15t-12.5 -6h-86q-20 0 -35 21l-106 145h-4l-107 -145q-15 -21 -35 -21h-86q-9 0 -12.5 6zM123 20v1352q0 21 20 21h125q9 0 15 -6t6 -15v-1352q0 -20 -21 -20h-125q-20 0 -20 20z" />
<glyph unicode="&#xcf;" horiz-adv-x="411" d="M-14 1612v147q0 21 20 21h105q20 0 20 -21v-147q0 -21 -20 -21h-105q-20 0 -20 21zM123 20v1352q0 21 20 21h125q9 0 15 -6t6 -15v-1352q0 -20 -21 -20h-125q-20 0 -20 20zM283 1612v147q0 21 20 21h105q20 0 20 -21v-147q0 -21 -20 -21h-105q-20 0 -20 21z" />
<glyph unicode="&#xd0;" horiz-adv-x="886" d="M31 659v91q0 20 20 20h60q12 0 12 12v590q0 21 20 21h289q254 0 322 -217q19 -58 25.5 -153.5t6.5 -326.5t-6.5 -326t-25.5 -153q-68 -217 -322 -217h-289q-20 0 -20 20v607q0 12 -12 12h-60q-20 0 -20 20zM289 166q0 -12 12 -12h115q70 0 112 28t64 90q14 46 20 131 t6 293t-6 293t-20 131q-22 62 -64 90.5t-112 28.5h-115q-12 0 -12 -12v-445q0 -12 12 -12h133q21 0 21 -20v-91q0 -20 -21 -20h-133q-12 0 -12 -12v-461z" />
<glyph unicode="&#xd1;" horiz-adv-x="919" d="M123 20v1352q0 21 20 21h154q25 0 31 -21l311 -1044h8v1044q0 9 6 15t15 6h108q9 0 15 -6t6 -15v-1352q0 -20 -21 -20h-145q-25 0 -31 20l-317 1045h-11v-1045q0 -20 -20 -20h-109q-20 0 -20 20zM258 1606v96q0 19 18 37q45 49 99 49q6 0 12 -0.5t10.5 -1.5t11 -3t10 -3 t9.5 -4t8.5 -4.5t9.5 -5.5t8.5 -5t9.5 -6t9 -6q27 -20 41 -27.5t33 -7.5q27 0 46 13.5t44 44.5q6 8 14 4.5t8 -13.5v-96q0 -19 -16 -35q-42 -49 -98 -49q-48 0 -101 39q-20 14 -27 18.5t-19.5 9.5t-24.5 5q-27 0 -46 -13t-44 -43q-7 -8 -16 -5.5t-9 12.5z" />
<glyph unicode="&#xd2;" horiz-adv-x="864" d="M100 696q0 280 5.5 369.5t21.5 138.5q33 101 110 154t195 53t196 -53.5t109 -153.5q16 -49 21.5 -138.5t5.5 -369.5t-5.5 -369.5t-21.5 -138.5q-31 -100 -109 -153t-196 -53q-238 0 -305 206q-16 49 -21.5 138.5t-5.5 369.5zM175.5 1812.5q3.5 6.5 12.5 6.5h119 q20 0 35 -21l156 -215q6 -7 2 -13.5t-13 -6.5h-79q-22 0 -39 20l-191 215q-6 8 -2.5 14.5zM268 696q0 -274 3.5 -350t15.5 -110q15 -48 52.5 -73.5t92.5 -25.5q56 0 94.5 26t53.5 73q10 34 13 109.5t3 350.5t-3 351.5t-13 109.5q-15 47 -53.5 72.5t-94.5 25.5 q-114 0 -145 -98q-12 -34 -15.5 -110.5t-3.5 -350.5z" />
<glyph unicode="&#xd3;" horiz-adv-x="864" d="M100 696q0 280 5.5 369.5t21.5 138.5q33 101 110 154t195 53t196 -53.5t109 -153.5q16 -49 21.5 -138.5t5.5 -369.5t-5.5 -369.5t-21.5 -138.5q-31 -100 -109 -153t-196 -53q-238 0 -305 206q-16 49 -21.5 138.5t-5.5 369.5zM268 696q0 -274 3.5 -350t15.5 -110 q15 -48 52.5 -73.5t92.5 -25.5q56 0 94.5 26t53.5 73q10 34 13 109.5t3 350.5t-3 351.5t-13 109.5q-15 47 -53.5 72.5t-94.5 25.5q-114 0 -145 -98q-12 -34 -15.5 -110.5t-3.5 -350.5zM367.5 1569.5q-4.5 6.5 1.5 13.5l157 215q15 21 33 21h119q9 0 12.5 -6.5t-2.5 -14.5 l-190 -215q-18 -20 -39 -20h-78q-9 0 -13.5 6.5z" />
<glyph unicode="&#xd4;" horiz-adv-x="864" d="M100 696q0 280 5.5 369.5t21.5 138.5q33 101 110 154t195 53t196 -53.5t109 -153.5q16 -49 21.5 -138.5t5.5 -369.5t-5.5 -369.5t-21.5 -138.5q-31 -100 -109 -153t-196 -53q-238 0 -305 206q-16 49 -21.5 138.5t-5.5 369.5zM190.5 1546q-3.5 6 2.5 15l167 251 q12 21 35 21h74q23 0 35 -21l168 -251q6 -9 2.5 -15t-12.5 -6h-87q-19 0 -34 21l-107 145h-4l-106 -145q-15 -21 -35 -21h-86q-9 0 -12.5 6zM268 696q0 -274 3.5 -350t15.5 -110q15 -48 52.5 -73.5t92.5 -25.5q56 0 94.5 26t53.5 73q10 34 13 109.5t3 350.5t-3 351.5 t-13 109.5q-15 47 -53.5 72.5t-94.5 25.5q-114 0 -145 -98q-12 -34 -15.5 -110.5t-3.5 -350.5z" />
<glyph unicode="&#xd5;" horiz-adv-x="864" d="M100 696q0 280 5.5 369.5t21.5 138.5q33 101 110 154t195 53t196 -53.5t109 -153.5q16 -49 21.5 -138.5t5.5 -369.5t-5.5 -369.5t-21.5 -138.5q-31 -100 -109 -153t-196 -53q-238 0 -305 206q-16 49 -21.5 138.5t-5.5 369.5zM229 1606v96q0 18 19 37q45 49 98 49 q6 0 12 -0.5t10.5 -1.5t11 -3t10 -3t9.5 -4t8.5 -4.5t9.5 -5.5t8.5 -5t9.5 -6t9 -6q27 -20 41 -27.5t33 -7.5q27 0 46 13.5t44 44.5q6 8 14.5 4.5t8.5 -13.5v-96q0 -18 -17 -35q-42 -49 -98 -49q-47 0 -100 39q-48 33 -72 33q-27 0 -46 -13t-44 -43q-8 -8 -16.5 -5.5 t-8.5 12.5zM268 696q0 -274 3.5 -350t15.5 -110q15 -48 52.5 -73.5t92.5 -25.5q56 0 94.5 26t53.5 73q10 34 13 109.5t3 350.5t-3 351.5t-13 109.5q-15 47 -53.5 72.5t-94.5 25.5q-114 0 -145 -98q-12 -34 -15.5 -110.5t-3.5 -350.5z" />
<glyph unicode="&#xd6;" horiz-adv-x="864" d="M100 696q0 280 5.5 369.5t21.5 138.5q33 101 110 154t195 53t196 -53.5t109 -153.5q16 -49 21.5 -138.5t5.5 -369.5t-5.5 -369.5t-21.5 -138.5q-31 -100 -109 -153t-196 -53q-238 0 -305 206q-16 49 -21.5 138.5t-5.5 369.5zM211 1612v147q0 21 20 21h105q20 0 20 -21 v-147q0 -21 -20 -21h-105q-20 0 -20 21zM268 696q0 -274 3.5 -350t15.5 -110q15 -48 52.5 -73.5t92.5 -25.5q56 0 94.5 26t53.5 73q10 34 13 109.5t3 350.5t-3 351.5t-13 109.5q-15 47 -53.5 72.5t-94.5 25.5q-114 0 -145 -98q-12 -34 -15.5 -110.5t-3.5 -350.5zM508 1612 v147q0 21 20 21h105q20 0 20 -21v-147q0 -21 -20 -21h-105q-20 0 -20 21z" />
<glyph unicode="&#xd7;" d="M117 374.5q0 8.5 6 14.5l168 168q8 8 0 16l-168 168q-6 6 -6 14.5t6 14.5l65 68q14 14 29 0l170 -168q8 -5 16 0l168 168q15 14 29 0l66 -68q8 -6 8 -14.5t-8 -14.5l-168 -168q-5 -8 0 -16l168 -168q8 -6 8 -14.5t-8 -14.5l-66 -67q-6 -6 -14.5 -6t-14.5 6l-168 168 q-8 5 -16 0l-170 -168q-6 -6 -14.5 -6t-14.5 6l-65 67q-6 6 -6 14.5z" />
<glyph unicode="&#xd8;" horiz-adv-x="864" d="M92 -41l66 160q-21 35 -31 69q-16 49 -21.5 138.5t-5.5 369.5t5.5 369.5t21.5 138.5q33 101 110 154t195 53q131 0 217 -70l39 95q8 18 27 18h43q9 0 13 -5.5t1 -14.5l-65 -160q16 -27 30 -70q16 -49 21.5 -138.5t5.5 -369.5t-5.5 -369.5t-21.5 -138.5 q-31 -100 -109 -153t-196 -53q-136 0 -217 69l-39 -94q-8 -18 -26 -18h-44q-9 0 -13 5.5t-1 14.5zM268 696q0 -252 2 -315l303 790q-40 84 -141 84q-114 0 -145 -98q-12 -34 -15.5 -110.5t-3.5 -350.5zM291 221q38 -84 141 -84q112 0 148 99q10 34 13 109.5t3 350.5 q0 250 -2 316z" />
<glyph unicode="&#xd9;" horiz-adv-x="892" d="M121 342v1030q0 21 20 21h125q9 0 15 -6t6 -15v-1050q0 -89 42 -137t117 -48t117.5 48t42.5 137v1050q0 9 6 15t15 6h125q20 0 20 -21v-1030q0 -176 -86.5 -268t-239.5 -92t-239 92t-86 268zM192.5 1812.5q3.5 6.5 12.5 6.5h119q19 0 34 -21l156 -215q6 -7 2.5 -13.5 t-12.5 -6.5h-80q-22 0 -39 20l-190 215q-6 8 -2.5 14.5z" />
<glyph unicode="&#xda;" horiz-adv-x="892" d="M121 342v1030q0 21 20 21h125q9 0 15 -6t6 -15v-1050q0 -89 42 -137t117 -48t117.5 48t42.5 137v1050q0 9 6 15t15 6h125q20 0 20 -21v-1030q0 -176 -86.5 -268t-239.5 -92t-239 92t-86 268zM383.5 1569.5q-4.5 6.5 1.5 13.5l158 215q15 21 32 21h119q9 0 13 -6.5 t-2 -14.5l-191 -215q-17 -20 -39 -20h-78q-9 0 -13.5 6.5z" />
<glyph unicode="&#xdb;" horiz-adv-x="892" d="M121 342v1030q0 21 20 21h125q9 0 15 -6t6 -15v-1050q0 -89 42 -137t117 -48t117.5 48t42.5 137v1050q0 9 6 15t15 6h125q20 0 20 -21v-1030q0 -176 -86.5 -268t-239.5 -92t-239 92t-86 268zM204.5 1546q-3.5 6 2.5 15l168 251q12 21 35 21h73q23 0 35 -21l168 -251 q6 -9 2.5 -15t-12.5 -6h-86q-20 0 -35 21l-106 145h-5l-106 -145q-15 -21 -35 -21h-86q-9 0 -12.5 6z" />
<glyph unicode="&#xdc;" horiz-adv-x="892" d="M121 342v1030q0 21 20 21h125q9 0 15 -6t6 -15v-1050q0 -89 42 -137t117 -48t117.5 48t42.5 137v1050q0 9 6 15t15 6h125q20 0 20 -21v-1030q0 -176 -86.5 -268t-239.5 -92t-239 92t-86 268zM225 1612v147q0 9 6 15t15 6h104q9 0 15 -6t6 -15v-147q0 -9 -6 -15t-15 -6 h-104q-9 0 -15 6t-6 15zM522 1612v147q0 9 6 15t15 6h104q9 0 15 -6t6 -15v-147q0 -9 -6 -15t-15 -6h-104q-9 0 -15 6t-6 15z" />
<glyph unicode="&#xdd;" horiz-adv-x="768" d="M33 1372q-7 21 14 21h129q19 0 25 -21l182 -584h6l182 584q6 21 23 21h127q21 0 14 -21l-268 -797v-555q0 -20 -21 -20h-124q-21 0 -21 20v555zM316 1569.5q-5 6.5 1 13.5l158 215q15 21 33 21h119q9 0 12.5 -6.5t-2.5 -14.5l-191 -215q-17 -20 -38 -20h-78q-9 0 -14 6.5 z" />
<glyph unicode="&#xde;" horiz-adv-x="833" d="M123 20v1352q0 21 20 21h125q9 0 15 -6t6 -15v-225q0 -12 12 -12h86q191 0 284 -97t93 -321q0 -220 -94.5 -319t-282.5 -99h-86q-12 0 -12 -12v-267q0 -20 -21 -20h-125q-20 0 -20 20zM289 465q0 -12 12 -12h86q115 0 163 58t48 206q0 146 -48 205t-163 59h-86 q-12 0 -12 -12v-504z" />
<glyph unicode="&#xdf;" horiz-adv-x="825" d="M119 20v1053q0 162 74 250t223 88q143 0 222 -81t79 -230q0 -115 -24 -168t-91 -92v-4q80 -43 105 -121q11 -33 14.5 -85t3.5 -184q0 -143 -5 -205.5t-18 -99.5q-24 -78 -82 -112.5t-155 -34.5h-29q-20 0 -20 20v107q0 20 20 20h15q79 0 102 68q14 40 14 237 q0 192 -14 236q-23 68 -102 68h-15q-20 0 -20 20v109q0 20 20 20h10q82 0 101 59q10 38 10 132q0 172 -139 172q-142 0 -142 -172v-1070q0 -20 -20 -20h-117q-20 0 -20 20z" />
<glyph unicode="&#xe0;" horiz-adv-x="759" d="M82 272q0 157 78.5 230t210.5 73h116q13 0 13 13v80q0 99 -33.5 142.5t-112.5 43.5q-49 0 -87 -17t-79 -49q-9 -6 -18.5 -3.5t-13.5 12.5l-39 80q-9 19 4 32q97 90 252 90q148 0 213 -74.5t65 -248.5v-656q0 -20 -20 -20h-111q-20 0 -20 20v84h-2q-20 -57 -69.5 -89.5 t-115.5 -32.5q-99 0 -165 69t-66 221zM139.5 1427q3.5 7 12.5 7h120q21 0 33 -21l141 -252q10 -20 -10 -20h-82q-20 0 -35 20l-178 252q-5 7 -1.5 14zM233 276q0 -79 32 -119t91 -40q63 0 103.5 49.5t40.5 128.5v135q0 12 -13 12h-92q-86 0 -124 -41t-38 -125z" />
<glyph unicode="&#xe1;" horiz-adv-x="759" d="M82 272q0 157 78.5 230t210.5 73h116q13 0 13 13v80q0 99 -33.5 142.5t-112.5 43.5q-49 0 -87 -17t-79 -49q-9 -6 -18.5 -3.5t-13.5 12.5l-39 80q-9 19 4 32q97 90 252 90q148 0 213 -74.5t65 -248.5v-656q0 -20 -20 -20h-111q-20 0 -20 20v84h-2q-20 -57 -69.5 -89.5 t-115.5 -32.5q-99 0 -165 69t-66 221zM233 276q0 -79 32 -119t91 -40q63 0 103.5 49.5t40.5 128.5v135q0 12 -13 12h-92q-86 0 -124 -41t-38 -125zM297 1161l141 252q12 21 33 21h121q9 0 12 -7t-2 -14l-178 -252q-15 -20 -35 -20h-82q-20 0 -10 20z" />
<glyph unicode="&#xe2;" horiz-adv-x="759" d="M82 272q0 157 78.5 230t210.5 73h116q13 0 13 13v80q0 99 -33.5 142.5t-112.5 43.5q-49 0 -87 -17t-79 -49q-9 -6 -18.5 -3.5t-13.5 12.5l-39 80q-9 19 4 32q97 90 252 90q148 0 213 -74.5t65 -248.5v-656q0 -20 -20 -20h-111q-20 0 -20 20v84h-2q-20 -57 -69.5 -89.5 t-115.5 -32.5q-99 0 -165 69t-66 221zM139 1146.5q-4 5.5 2 14.5l168 252q12 21 35 21h74q23 0 35 -21l168 -252q6 -9 2 -14.5t-13 -5.5h-86q-21 0 -35 20l-106 146h-4l-107 -146q-14 -20 -34 -20h-86q-9 0 -13 5.5zM233 276q0 -79 32 -119t91 -40q63 0 103.5 49.5 t40.5 128.5v135q0 12 -13 12h-92q-86 0 -124 -41t-38 -125z" />
<glyph unicode="&#xe3;" horiz-adv-x="759" d="M82 272q0 157 78.5 230t210.5 73h116q13 0 13 13v80q0 99 -33.5 142.5t-112.5 43.5q-49 0 -87 -17t-79 -49q-9 -6 -18.5 -3.5t-13.5 12.5l-39 80q-9 19 4 32q97 90 252 90q148 0 213 -74.5t65 -248.5v-656q0 -20 -20 -20h-111q-20 0 -20 20v84h-2q-20 -57 -69.5 -89.5 t-115.5 -32.5q-99 0 -165 69t-66 221zM180 1212v97q0 18 19 37q45 49 98 49q6 0 12 -0.5t10.5 -1.5t11 -3t10 -3t9.5 -4t8.5 -4.5t9.5 -5.5t8.5 -5t9.5 -6t9 -6q27 -20 41 -27.5t33 -7.5q27 0 46 13.5t44 43.5q6 8 14.5 5t8.5 -13v-96q0 -18 -17 -35q-42 -49 -98 -49 q-47 0 -100 39q-48 33 -72 33q-27 0 -46 -13t-44 -43q-7 -8 -16 -6t-9 12zM233 276q0 -79 32 -119t91 -40q63 0 103.5 49.5t40.5 128.5v135q0 12 -13 12h-92q-86 0 -124 -41t-38 -125z" />
<glyph unicode="&#xe4;" horiz-adv-x="759" d="M82 272q0 157 78.5 230t210.5 73h116q13 0 13 13v80q0 99 -33.5 142.5t-112.5 43.5q-49 0 -87 -17t-79 -49q-9 -6 -18.5 -3.5t-13.5 12.5l-39 80q-9 19 4 32q97 90 252 90q148 0 213 -74.5t65 -248.5v-656q0 -20 -20 -20h-111q-20 0 -20 20v84h-2q-20 -57 -69.5 -89.5 t-115.5 -32.5q-99 0 -165 69t-66 221zM160 1225v147q0 21 20 21h105q20 0 20 -21v-147q0 -21 -20 -21h-105q-20 0 -20 21zM233 276q0 -79 32 -119t91 -40q63 0 103.5 49.5t40.5 128.5v135q0 12 -13 12h-92q-86 0 -124 -41t-38 -125zM457 1225v147q0 21 20 21h105 q20 0 20 -21v-147q0 -21 -20 -21h-105q-20 0 -20 21z" />
<glyph unicode="&#xe5;" horiz-adv-x="759" d="M82 272q0 157 78.5 230t210.5 73h116q13 0 13 13v80q0 99 -33.5 142.5t-112.5 43.5q-49 0 -87 -17t-79 -49q-9 -6 -18.5 -3.5t-13.5 12.5l-39 80q-9 19 4 32q97 90 252 90q148 0 213 -74.5t65 -248.5v-656q0 -20 -20 -20h-111q-20 0 -20 20v84h-2q-20 -57 -69.5 -89.5 t-115.5 -32.5q-99 0 -165 69t-66 221zM205 1294q0 77 50 128t126 51q75 0 125.5 -51.5t50.5 -127.5q0 -75 -50.5 -125.5t-125.5 -50.5q-76 0 -126 50.5t-50 125.5zM233 276q0 -79 32 -119t91 -40q63 0 103.5 49.5t40.5 128.5v135q0 12 -13 12h-92q-86 0 -124 -41t-38 -125z M285 1294q0 -43 27.5 -71.5t68.5 -28.5t68.5 28.5t27.5 71.5t-27.5 72t-68.5 29t-68.5 -29t-27.5 -72z" />
<glyph unicode="&#xe6;" horiz-adv-x="1157" d="M82 272q0 157 78.5 230t210.5 73h116q13 0 13 13v80q0 99 -33.5 142.5t-112.5 43.5q-49 0 -87 -17t-79 -49q-9 -6 -18.5 -3.5t-13.5 12.5l-39 80q-9 19 4 32q97 90 252 90q148 0 211 -86h2q65 86 196 86q204 0 265 -182q12 -38 17 -107t5 -247q0 -21 -20 -21h-385 q-13 0 -13 -12q0 -166 15 -217q31 -84 114 -84q102 0 131 111q5 19 25 16l108 -23q18 -3 15 -24q-20 -106 -94.5 -166.5t-186.5 -60.5q-166 0 -235 129h-2q-43 -69 -98 -99t-130 -30q-46 0 -85.5 15.5t-73 47.5t-53 90.5t-19.5 136.5zM233 276q0 -79 32 -119t91 -40 q63 0 103.5 49.5t40.5 128.5v135q0 12 -13 12h-92q-86 0 -124 -41t-38 -125zM651 588q0 -13 13 -13h235q12 0 12 13q0 139 -14 186q-12 38 -42.5 60t-72.5 22q-90 0 -116 -82q-15 -51 -15 -186z" />
<glyph unicode="&#xe7;" horiz-adv-x="710" d="M92 492q0 169 4.5 224.5t18.5 100.5q60 182 262 182q117 0 190.5 -67t83.5 -184q0 -18 -14 -23l-111 -20q-21 -7 -24 16q-20 131 -125 131q-89 0 -115 -80q-9 -27 -10.5 -68t-1.5 -212q0 -172 1.5 -214t10.5 -69q26 -80 115 -80q105 0 125 131q3 23 24 16l111 -20 q14 -5 14 -23q-9 -103 -67.5 -168.5t-153.5 -78.5l-92 -277q-9 -20 -33 -20h-98q-9 0 -13 5.5t-1 14.5l110 279q-140 27 -188 176q-14 45 -18.5 101.5t-4.5 226.5z" />
<glyph unicode="&#xe8;" horiz-adv-x="753" d="M92 492q0 157 5.5 220.5t17.5 104.5q61 182 266 182q203 0 264 -182q12 -39 17.5 -108t5.5 -246q0 -9 -6 -15t-15 -6h-385q-12 0 -12 -12q0 -170 14 -217q31 -84 115 -84q102 0 131 111q6 19 25 16l108 -23q18 -3 14 -24q-20 -106 -94 -166.5t-186 -60.5q-202 0 -262 184 q-23 74 -23 326zM127 1427q3 7 12 7h121q21 0 33 -21l141 -252q10 -20 -10 -20h-82q-20 0 -35 20l-178 252q-5 7 -2 14zM250 588q0 -13 12 -13h236q12 0 12 13q0 139 -14 186q-12 38 -42.5 60t-72.5 22q-44 0 -74.5 -21.5t-42.5 -60.5q-14 -47 -14 -186z" />
<glyph unicode="&#xe9;" horiz-adv-x="753" d="M92 492q0 157 5.5 220.5t17.5 104.5q61 182 266 182q203 0 264 -182q12 -39 17.5 -108t5.5 -246q0 -9 -6 -15t-15 -6h-385q-12 0 -12 -12q0 -170 14 -217q31 -84 115 -84q102 0 131 111q6 19 25 16l108 -23q18 -3 14 -24q-20 -106 -94 -166.5t-186 -60.5q-202 0 -262 184 q-23 74 -23 326zM250 588q0 -13 12 -13h236q12 0 12 13q0 139 -14 186q-12 38 -42.5 60t-72.5 22q-44 0 -74.5 -21.5t-42.5 -60.5q-14 -47 -14 -186zM319 1161l142 252q12 21 33 21h120q9 0 12.5 -7t-1.5 -14l-179 -252q-15 -20 -34 -20h-82q-21 0 -11 20z" />
<glyph unicode="&#xea;" horiz-adv-x="753" d="M92 492q0 157 5.5 220.5t17.5 104.5q61 182 266 182q203 0 264 -182q12 -39 17.5 -108t5.5 -246q0 -9 -6 -15t-15 -6h-385q-12 0 -12 -12q0 -170 14 -217q31 -84 115 -84q102 0 131 111q6 19 25 16l108 -23q18 -3 14 -24q-20 -106 -94 -166.5t-186 -60.5q-202 0 -262 184 q-23 74 -23 326zM137 1146.5q-4 5.5 2 14.5l168 252q12 21 35 21h74q23 0 35 -21l167 -252q6 -9 2.5 -14.5t-12.5 -5.5h-86q-21 0 -35 20l-106 146h-4l-107 -146q-14 -20 -34 -20h-86q-9 0 -13 5.5zM250 588q0 -13 12 -13h236q12 0 12 13q0 139 -14 186q-12 38 -42.5 60 t-72.5 22q-44 0 -74.5 -21.5t-42.5 -60.5q-14 -47 -14 -186z" />
<glyph unicode="&#xeb;" horiz-adv-x="753" d="M92 492q0 157 5.5 220.5t17.5 104.5q61 182 266 182q203 0 264 -182q12 -39 17.5 -108t5.5 -246q0 -9 -6 -15t-15 -6h-385q-12 0 -12 -12q0 -170 14 -217q31 -84 115 -84q102 0 131 111q6 19 25 16l108 -23q18 -3 14 -24q-20 -106 -94 -166.5t-186 -60.5q-202 0 -262 184 q-23 74 -23 326zM158 1225v147q0 21 20 21h105q20 0 20 -21v-147q0 -21 -20 -21h-105q-20 0 -20 21zM250 588q0 -13 12 -13h236q12 0 12 13q0 139 -14 186q-12 38 -42.5 60t-72.5 22q-44 0 -74.5 -21.5t-42.5 -60.5q-14 -47 -14 -186zM455 1225v147q0 21 20 21h105 q20 0 20 -21v-147q0 -21 -20 -21h-105q-20 0 -20 21z" />
<glyph unicode="&#xec;" horiz-adv-x="395" d="M-53 1427q3 7 12 7h121q21 0 33 -21l141 -252q10 -20 -10 -20h-82q-20 0 -35 20l-178 252q-5 7 -2 14zM119 20v941q0 20 20 20h117q20 0 20 -20v-941q0 -20 -20 -20h-117q-20 0 -20 20z" />
<glyph unicode="&#xed;" horiz-adv-x="395" d="M119 20v941q0 20 20 20h117q20 0 20 -20v-941q0 -20 -20 -20h-117q-20 0 -20 20zM150 1161l141 252q12 21 33 21h120q9 0 12.5 -7t-1.5 -14l-179 -252q-15 -20 -34 -20h-82q-20 0 -10 20z" />
<glyph unicode="&#xee;" horiz-adv-x="395" d="M-43.5 1146.5q-3.5 5.5 2.5 14.5l168 252q12 21 35 21h74q22 0 34 -21l168 -252q6 -9 2.5 -14.5t-12.5 -5.5h-86q-21 0 -35 20l-106 146h-4l-107 -146q-14 -20 -35 -20h-86q-9 0 -12.5 5.5zM119 20v941q0 20 20 20h117q20 0 20 -20v-941q0 -20 -20 -20h-117q-20 0 -20 20 z" />
<glyph unicode="&#xef;" horiz-adv-x="395" d="M-23 1225v147q0 9 6 15t15 6h104q9 0 15 -6t6 -15v-147q0 -9 -6 -15t-15 -6h-104q-9 0 -15 6t-6 15zM119 20v941q0 20 20 20h117q20 0 20 -20v-941q0 -20 -20 -20h-117q-20 0 -20 20zM274 1225v147q0 9 6 15t15 6h104q9 0 15 -6t6 -15v-147q0 -9 -6 -15t-15 -6h-104 q-9 0 -15 6t-6 15z" />
<glyph unicode="&#xf0;" horiz-adv-x="765" d="M90 469q0 143 6 204.5t19 106.5q58 176 235 176q66 0 99 -22h2l-93 176l-139 -45q-16 -5 -22 12l-25 72q-6 19 14 25l119 38l-84 160q-5 9 -2 15t12 6h121q17 0 29 -21l59 -117l129 43q17 6 23 -12l24 -74q6 -18 -14 -24l-106 -35l57 -109q77 -148 99 -251.5t22 -315.5 q0 -151 -4 -208t-17 -99q-29 -91 -99 -139.5t-171 -48.5q-102 0 -172 49t-98 139q-13 43 -18 100t-5 199zM250 469q0 -141 2 -184t10 -70q28 -86 121 -86t121 86q8 27 10 70t2 184q0 207 -14 256q-27 86 -119 86q-93 0 -121 -86q-8 -27 -10 -69.5t-2 -186.5z" />
<glyph unicode="&#xf1;" horiz-adv-x="804" d="M119 20v941q0 20 20 20h117q20 0 20 -20v-78h3q54 116 186 116q115 0 172 -73.5t57 -227.5v-678q0 -20 -20 -20h-117q-20 0 -20 20v654q0 178 -129 178q-63 0 -97.5 -44.5t-34.5 -133.5v-654q0 -20 -20 -20h-117q-20 0 -20 20zM201 1212v97q0 19 18 37q45 49 98 49 q19 0 38.5 -6.5t28.5 -12t32 -20.5q20 -15 28 -20t20 -10t25 -5q27 0 46.5 13.5t44.5 43.5q6 8 14 5t8 -13v-96q0 -19 -16 -35q-42 -49 -99 -49q-47 0 -100 39q-48 33 -72 33q-27 0 -46 -13t-44 -43q-7 -8 -15.5 -6t-8.5 12z" />
<glyph unicode="&#xf2;" horiz-adv-x="765" d="M92 492q0 161 4 220t17 101q29 89 99 137.5t171 48.5t171 -48.5t99 -137.5q13 -42 17 -101t4 -220t-4 -220.5t-17 -101.5q-29 -91 -99 -139.5t-171 -48.5t-171 48.5t-99 139.5q-13 42 -17 101.5t-4 220.5zM141.5 1427q3.5 7 12.5 7h120q21 0 33 -21l142 -252 q10 -20 -11 -20h-82q-19 0 -34 20l-179 252q-5 7 -1.5 14zM250 492q0 -157 2 -203.5t10 -73.5q28 -86 121 -86t121 86q8 27 10 73.5t2 203.5q0 156 -2 201.5t-10 72.5q-28 86 -121 86t-121 -86q-8 -27 -10 -72.5t-2 -201.5z" />
<glyph unicode="&#xf3;" horiz-adv-x="765" d="M92 492q0 161 4 220t17 101q29 89 99 137.5t171 48.5t171 -48.5t99 -137.5q13 -42 17 -101t4 -220t-4 -220.5t-17 -101.5q-29 -91 -99 -139.5t-171 -48.5t-171 48.5t-99 139.5q-13 42 -17 101.5t-4 220.5zM250 492q0 -157 2 -203.5t10 -73.5q28 -86 121 -86t121 86 q8 27 10 73.5t2 203.5q0 156 -2 201.5t-10 72.5q-28 86 -121 86t-121 -86q-8 -27 -10 -72.5t-2 -201.5zM317 1161l142 252q12 21 33 21h120q9 0 12.5 -7t-1.5 -14l-179 -252q-15 -20 -34 -20h-82q-21 0 -11 20z" />
<glyph unicode="&#xf4;" horiz-adv-x="765" d="M92 492q0 161 4 220t17 101q29 89 99 137.5t171 48.5t171 -48.5t99 -137.5q13 -42 17 -101t4 -220t-4 -220.5t-17 -101.5q-29 -91 -99 -139.5t-171 -48.5t-171 48.5t-99 139.5q-13 42 -17 101.5t-4 220.5zM141 1146.5q-4 5.5 2 14.5l168 252q12 21 35 21h74q23 0 35 -21 l168 -252q6 -9 2 -14.5t-13 -5.5h-86q-20 0 -34 20l-107 146h-4l-107 -146q-14 -20 -34 -20h-86q-9 0 -13 5.5zM250 492q0 -157 2 -203.5t10 -73.5q28 -86 121 -86t121 86q8 27 10 73.5t2 203.5q0 156 -2 201.5t-10 72.5q-28 86 -121 86t-121 -86q-8 -27 -10 -72.5 t-2 -201.5z" />
<glyph unicode="&#xf5;" horiz-adv-x="765" d="M92 492q0 161 4 220t17 101q29 89 99 137.5t171 48.5t171 -48.5t99 -137.5q13 -42 17 -101t4 -220t-4 -220.5t-17 -101.5q-29 -91 -99 -139.5t-171 -48.5t-171 48.5t-99 139.5q-13 42 -17 101.5t-4 220.5zM182 1212v97q0 18 19 37q45 49 98 49q6 0 12 -0.5t10.5 -1.5 t11 -3t10 -3t9.5 -4t8.5 -4.5t9.5 -5.5t8.5 -5t9.5 -6t9 -6q27 -20 41 -27.5t33 -7.5q27 0 46 13.5t44 43.5q6 8 14.5 5t8.5 -13v-96q0 -18 -17 -35q-42 -49 -98 -49q-47 0 -100 39q-48 33 -72 33q-27 0 -46 -13t-44 -43q-7 -8 -16 -6t-9 12zM250 492q0 -157 2 -203.5 t10 -73.5q28 -86 121 -86t121 86q8 27 10 73.5t2 203.5q0 156 -2 201.5t-10 72.5q-28 86 -121 86t-121 -86q-8 -27 -10 -72.5t-2 -201.5z" />
<glyph unicode="&#xf6;" horiz-adv-x="765" d="M92 492q0 161 4 220t17 101q29 89 99 137.5t171 48.5t171 -48.5t99 -137.5q13 -42 17 -101t4 -220t-4 -220.5t-17 -101.5q-29 -91 -99 -139.5t-171 -48.5t-171 48.5t-99 139.5q-13 42 -17 101.5t-4 220.5zM162 1225v147q0 21 20 21h105q20 0 20 -21v-147q0 -21 -20 -21 h-105q-20 0 -20 21zM250 492q0 -157 2 -203.5t10 -73.5q28 -86 121 -86t121 86q8 27 10 73.5t2 203.5q0 156 -2 201.5t-10 72.5q-28 86 -121 86t-121 -86q-8 -27 -10 -72.5t-2 -201.5zM459 1225v147q0 21 20 21h105q20 0 20 -21v-147q0 -21 -20 -21h-105q-20 0 -20 21z" />
<glyph unicode="&#xf7;" d="M78 514v102q0 21 20 21h594q9 0 15 -6t6 -15v-102q0 -20 -21 -20h-594q-20 0 -20 20zM289 260q0 46 30 76.5t76 30.5t76.5 -30.5t30.5 -76.5q0 -47 -30.5 -77.5t-76.5 -30.5t-76 30.5t-30 77.5zM289 870q0 47 30 78t76 31t76.5 -31t30.5 -78q0 -46 -30.5 -76t-76.5 -30 t-76 30t-30 76z" />
<glyph unicode="&#xf8;" horiz-adv-x="765" d="M92 -41l62 129q-25 32 -41 82q-13 42 -17 101.5t-4 220.5t4 220t17 101q29 89 99 137.5t171 48.5q103 0 176 -51l35 74q9 20 27 20h36q10 0 14.5 -5.5t0.5 -14.5l-60 -129q28 -41 41 -80q13 -42 17 -101t4 -220t-4 -220.5t-17 -101.5q-29 -91 -99 -139.5t-171 -48.5 q-103 0 -176 51l-35 -74q-10 -20 -27 -20h-36q-9 0 -14.5 5.5t-2.5 14.5zM248 492q0 -174 2 -211l235 522q-36 51 -102 51q-92 0 -123 -86q-8 -27 -10 -73.5t-2 -202.5zM281 176q36 -49 102 -49q92 0 121 88q9 27 11.5 73t2.5 204q0 167 -2 204z" />
<glyph unicode="&#xf9;" horiz-adv-x="798" d="M111 285v676q0 20 20 20h117q20 0 20 -20v-654q0 -178 127 -178q61 0 94 45t33 133v654q0 20 21 20h116q21 0 21 -20v-941q0 -20 -21 -20h-116q-21 0 -21 20v78h-2q-51 -116 -184 -116q-113 0 -169 74t-56 229zM154 1427q3 7 12 7h121q20 0 32 -21l142 -252 q10 -20 -10 -20h-82q-20 0 -35 20l-178 252q-5 7 -2 14z" />
<glyph unicode="&#xfa;" horiz-adv-x="798" d="M111 285v676q0 20 20 20h117q20 0 20 -20v-654q0 -178 127 -178q61 0 94 45t33 133v654q0 20 21 20h116q21 0 21 -20v-941q0 -20 -21 -20h-116q-21 0 -21 20v78h-2q-51 -116 -184 -116q-113 0 -169 74t-56 229zM332 1161l141 252q12 21 33 21h121q9 0 12 -7t-2 -14 l-178 -252q-15 -20 -35 -20h-82q-20 0 -10 20z" />
<glyph unicode="&#xfb;" horiz-adv-x="798" d="M111 285v676q0 20 20 20h117q20 0 20 -20v-654q0 -178 127 -178q61 0 94 45t33 133v654q0 20 21 20h116q21 0 21 -20v-941q0 -20 -21 -20h-116q-21 0 -21 20v78h-2q-51 -116 -184 -116q-113 0 -169 74t-56 229zM157.5 1146.5q-3.5 5.5 2.5 14.5l168 252q12 21 34 21h74 q23 0 35 -21l168 -252q6 -9 2.5 -14.5t-12.5 -5.5h-86q-21 0 -35 20l-107 146h-4l-106 -146q-14 -20 -35 -20h-86q-9 0 -12.5 5.5z" />
<glyph unicode="&#xfc;" horiz-adv-x="798" d="M111 285v676q0 20 20 20h117q20 0 20 -20v-654q0 -178 127 -178q61 0 94 45t33 133v654q0 20 21 20h116q21 0 21 -20v-941q0 -20 -21 -20h-116q-21 0 -21 20v78h-2q-51 -116 -184 -116q-113 0 -169 74t-56 229zM178 1225v147q0 9 6 15t15 6h104q9 0 15 -6t6 -15v-147 q0 -9 -6 -15t-15 -6h-104q-9 0 -15 6t-6 15zM475 1225v147q0 9 6 15t15 6h104q9 0 15 -6t6 -15v-147q0 -9 -6 -15t-15 -6h-104q-9 0 -15 6t-6 15z" />
<glyph unicode="&#xfd;" horiz-adv-x="727" d="M53 961q-3 20 17 20h123q17 0 20 -20l152 -670h4l151 670q3 20 23 20h119q9 0 13 -5.5t1 -14.5l-268 -1059q-40 -162 -94.5 -216.5t-163.5 -54.5h-23q-9 0 -15 6t-6 15v108q0 9 6 15t15 6l25 2q44 2 67.5 26t38.5 87l35 135zM307 1161l142 252q12 21 32 21h121q9 0 12 -7 t-2 -14l-178 -252q-15 -20 -35 -20h-82q-20 0 -10 20z" />
<glyph unicode="&#xfe;" horiz-adv-x="796" d="M119 -348v1720q0 21 20 21h117q20 0 20 -21v-491h3q47 118 186 118q162 0 213 -159q14 -43 19 -108.5t5 -239.5t-5 -240t-19 -111q-51 -159 -213 -159q-138 0 -186 118h-3v-448q0 -21 -20 -21h-117q-20 0 -20 21zM276 492q0 -149 3 -198t12 -79q29 -86 121 -86 q90 0 118 86q9 30 12 79t3 198q0 148 -3 196t-12 78q-28 86 -118 86q-92 0 -121 -86q-9 -30 -12 -78t-3 -196z" />
<glyph unicode="&#xff;" horiz-adv-x="727" d="M53 961q-3 20 17 20h123q17 0 20 -20l152 -670h4l151 670q3 20 23 20h119q9 0 13 -5.5t1 -14.5l-268 -1059q-40 -162 -94.5 -216.5t-163.5 -54.5h-23q-9 0 -15 6t-6 15v108q0 9 6 15t15 6l25 2q44 2 67.5 26t38.5 87l35 135zM143 1225v147q0 9 6 15t15 6h104q9 0 15 -6 t6 -15v-147q0 -9 -6 -15t-15 -6h-104q-9 0 -15 6t-6 15zM440 1225v147q0 9 6 15t15 6h104q9 0 15 -6t6 -15v-147q0 -9 -6 -15t-15 -6h-104q-9 0 -15 6t-6 15z" />
<glyph unicode="&#x152;" horiz-adv-x="1224" d="M100 696q0 281 5.5 373t21.5 141q65 201 283 201q130 0 184 -82h2v43q0 21 20 21h527q20 0 20 -21v-112q0 -21 -20 -21h-369q-12 0 -12 -12v-434q0 -13 12 -13h320q20 0 20 -20v-113q0 -20 -20 -20h-320q-12 0 -12 -13v-448q0 -12 12 -12h369q20 0 20 -21v-113 q0 -20 -20 -20h-527q-20 0 -20 20v43h-2q-53 -81 -184 -81q-218 0 -283 200q-16 49 -21.5 141t-5.5 373zM268 696q0 -274 3.5 -350t15.5 -110q15 -48 52.5 -73.5t92.5 -25.5q112 0 148 99q10 34 13 109.5t3 350.5t-3 351.5t-13 109.5q-36 98 -148 98q-114 0 -145 -98 q-12 -34 -15.5 -110.5t-3.5 -350.5z" />
<glyph unicode="&#x153;" horiz-adv-x="1179" d="M92 492q0 161 4 220t17 101q28 89 98.5 137.5t171.5 48.5q139 0 211 -96h2q72 96 209 96q203 0 264 -182q12 -39 17.5 -108t5.5 -246q0 -9 -6 -15t-15 -6h-385q-12 0 -12 -12q0 -170 14 -217q31 -84 115 -84q102 0 131 111q5 19 24 16l109 -23q18 -3 14 -24 q-20 -106 -94 -166.5t-186 -60.5q-69 0 -123 26t-80 72h-4q-70 -98 -211 -98q-102 0 -172 49t-98 139q-13 42 -17 101.5t-4 220.5zM250 492q0 -157 2 -203.5t10 -73.5q28 -86 121 -86t121 86q8 27 10 73.5t2 203.5q0 156 -2 201.5t-10 72.5q-28 86 -121 86t-121 -86 q-8 -27 -10 -72.5t-2 -201.5zM674 588q0 -13 12 -13h236q12 0 12 13q0 139 -14 186q-12 38 -42.5 60t-72.5 22q-44 0 -74.5 -21.5t-42.5 -60.5q-14 -47 -14 -186z" />
<glyph unicode="&#x178;" horiz-adv-x="768" d="M33 1372q-7 21 14 21h129q19 0 25 -21l182 -584h6l182 584q6 21 23 21h127q21 0 14 -21l-268 -797v-555q0 -20 -21 -20h-124q-21 0 -21 20v555zM162 1612v147q0 21 20 21h105q20 0 20 -21v-147q0 -21 -20 -21h-105q-20 0 -20 21zM459 1612v147q0 21 20 21h105 q20 0 20 -21v-147q0 -21 -20 -21h-105q-20 0 -20 21z" />
<glyph unicode="&#x2c6;" horiz-adv-x="798" d="M157.5 1146.5q-3.5 5.5 2.5 14.5l168 252q12 21 34 21h74q23 0 35 -21l168 -252q6 -9 2.5 -14.5t-12.5 -5.5h-86q-21 0 -35 20l-107 146h-4l-106 -146q-14 -20 -35 -20h-86q-9 0 -12.5 5.5z" />
<glyph unicode="&#x2dc;" horiz-adv-x="798" d="M197 1212v97q0 19 18 37q45 49 98 49q19 0 38.5 -6.5t28.5 -12t32 -20.5q20 -15 28 -20t20 -10t25 -5q27 0 46 13.5t44 43.5q6 8 14.5 5t8.5 -13v-96q0 -19 -16 -35q-42 -49 -99 -49q-47 0 -100 39q-48 33 -72 33q-27 0 -46 -13t-44 -43q-7 -8 -15.5 -6t-8.5 12z" />
<glyph unicode="&#x2000;" horiz-adv-x="924" />
<glyph unicode="&#x2001;" horiz-adv-x="1849" />
<glyph unicode="&#x2002;" horiz-adv-x="924" />
<glyph unicode="&#x2003;" horiz-adv-x="1849" />
<glyph unicode="&#x2004;" horiz-adv-x="616" />
<glyph unicode="&#x2005;" horiz-adv-x="462" />
<glyph unicode="&#x2006;" horiz-adv-x="308" />
<glyph unicode="&#x2007;" horiz-adv-x="308" />
<glyph unicode="&#x2008;" horiz-adv-x="231" />
<glyph unicode="&#x2009;" horiz-adv-x="369" />
<glyph unicode="&#x200a;" horiz-adv-x="102" />
<glyph unicode="&#x2010;" horiz-adv-x="686" d="M84 492v106q0 20 20 20h476q20 0 20 -20v-106q0 -21 -20 -21h-476q-20 0 -20 21z" />
<glyph unicode="&#x2011;" horiz-adv-x="686" d="M84 492v106q0 20 20 20h476q20 0 20 -20v-106q0 -21 -20 -21h-476q-20 0 -20 21z" />
<glyph unicode="&#x2012;" horiz-adv-x="686" d="M84 492v106q0 20 20 20h476q20 0 20 -20v-106q0 -21 -20 -21h-476q-20 0 -20 21z" />
<glyph unicode="&#x2013;" horiz-adv-x="802" d="M35 500v90q0 20 20 20h693q20 0 20 -20v-90q0 -21 -20 -21h-693q-20 0 -20 21z" />
<glyph unicode="&#x2014;" horiz-adv-x="1185" d="M35 500v90q0 20 20 20h1075q21 0 21 -20v-90q0 -9 -6 -15t-15 -6h-1075q-20 0 -20 21z" />
<glyph unicode="&#x2018;" horiz-adv-x="319" d="M84 1063v131q0 28 12 47l99 137q11 17 24 17q7 0 12 -5.5t5 -13.5v-313q0 -9 -6 -15t-15 -6h-111q-20 0 -20 21z" />
<glyph unicode="&#x2019;" horiz-adv-x="319" d="M84 1055v317q0 21 20 21h111q9 0 15 -6t6 -15v-139q0 -23 -15 -47l-96 -135q-12 -15 -25 -15q-16 0 -16 19z" />
<glyph unicode="&#x201a;" horiz-adv-x="319" d="M84 154q0 20 20 20h111q21 0 21 -20v-138q0 -23 -15 -47l-96 -137q-11 -14 -25 -14q-16 0 -16 18v318z" />
<glyph unicode="&#x201c;" horiz-adv-x="557" d="M84 1057v139q0 30 12 47l99 135q10 17 22 17q19 0 19 -19v-319q0 -9 -6 -15t-15 -6h-111q-20 0 -20 21zM322 1057v139q0 27 14 47l96 135q10 17 23 17q18 0 18 -19v-319q0 -21 -20 -21h-111q-20 0 -20 21z" />
<glyph unicode="&#x201d;" horiz-adv-x="557" d="M84 1055v317q0 21 20 21h111q9 0 15 -6t6 -15v-139q0 -23 -15 -47l-96 -135q-12 -15 -25 -15q-16 0 -16 19zM322 1055v317q0 21 20 21h111q20 0 20 -21v-139q0 -25 -14 -47l-97 -135q-9 -15 -22 -15q-18 0 -18 19z" />
<glyph unicode="&#x201e;" horiz-adv-x="557" d="M84 152q0 20 20 20h111q21 0 21 -20v-140q0 -23 -15 -47l-96 -135q-13 -16 -25 -16q-16 0 -16 18v320zM322 152q0 20 20 20h111q20 0 20 -20v-140q0 -25 -14 -47l-97 -135q-10 -16 -22 -16q-18 0 -18 18v320z" />
<glyph unicode="&#x2022;" horiz-adv-x="854" d="M190 631q0 102 68 169.5t170 67.5t169 -67t67 -170q0 -101 -67.5 -169.5t-168.5 -68.5t-169.5 68.5t-68.5 169.5z" />
<glyph unicode="&#x2026;" horiz-adv-x="1099" d="M98 20v173q0 20 21 20h135q20 0 20 -20v-173q0 -20 -20 -20h-135q-21 0 -21 20zM465 20v173q0 20 20 20h136q20 0 20 -20v-173q0 -20 -20 -20h-136q-20 0 -20 20zM831 20v173q0 20 21 20h135q21 0 21 -20v-173q0 -20 -21 -20h-135q-21 0 -21 20z" />
<glyph unicode="&#x202f;" horiz-adv-x="369" />
<glyph unicode="&#x2039;" horiz-adv-x="555" d="M80 526q-14 14 0 29l330 340q6 6 13 3.5t7 -11.5v-123q0 -19 -18 -37l-172 -178q-8 -9 0 -17l172 -178q18 -18 18 -37v-122q0 -9 -7 -12t-13 3z" />
<glyph unicode="&#x203a;" horiz-adv-x="555" d="M125 195v122q0 19 18 37l172 178q9 8 0 17l-172 178q-18 18 -18 37v123q0 9 7 11.5t13 -3.5l330 -340q6 -6 6 -14.5t-6 -14.5l-330 -340q-6 -6 -13 -3t-7 12z" />
<glyph unicode="&#x205f;" horiz-adv-x="462" />
<glyph unicode="&#x20ac;" d="M33 535v79q0 21 20 21h82q12 0 12 12v111q0 12 -12 12h-82q-20 0 -20 21v79q0 21 20 21h82q12 0 12 12q0 158 5 219t18 99q61 190 268 190q127 0 204 -76.5t91 -201.5q4 -22 -14 -25l-111 -21q-20 -7 -24 15q-23 160 -142 160q-93 0 -123 -86q-8 -27 -11 -76t-3 -197 q0 -12 12 -12h291q9 0 15 -6t6 -15l-21 -79q-4 -21 -20 -21h-271q-12 0 -12 -12v-111q0 -12 12 -12h261q20 0 20 -21l-20 -79q-6 -21 -21 -21h-240q-12 0 -12 -12q0 -156 3 -206t11 -79q30 -86 123 -86q119 0 142 160q2 9 8.5 13t15.5 1l111 -20q18 -3 14 -25 q-14 -125 -91 -201.5t-204 -76.5q-207 0 -268 190q-13 38 -18 100.5t-5 229.5q0 12 -12 12h-82q-20 0 -20 21z" />
<glyph unicode="&#x2122;" horiz-adv-x="1320" d="M129 1296v76q0 9 6 15t15 6h389q20 0 20 -21v-76q0 -20 -20 -20h-123q-10 0 -10 -10v-660q0 -20 -21 -20h-82q-20 0 -20 20v660q0 10 -11 10h-122q-21 0 -21 20zM666 606v766q0 21 20 21h86q18 0 25 -21l137 -475h2l133 475q7 21 25 21h84q20 0 20 -21v-766 q0 -20 -20 -20h-74q-21 0 -21 20v475h-2l-104 -344q-6 -20 -23 -20h-45q-16 0 -22 20l-103 344h-2v-475q0 -20 -20 -20h-76q-20 0 -20 20z" />
<glyph unicode="&#x25fc;" horiz-adv-x="983" d="M0 0v983h983v-983h-983z" />
</font>
</defs>
</svg>
