<?xml version="1.0" standalone="no"?>
<!DOCTYPE svg PUBLIC "-//W3C//DTD SVG 1.1//EN" "http://www.w3.org/Graphics/SVG/1.1/DTD/svg11.dtd" >
<svg xmlns="http://www.w3.org/2000/svg">
<metadata></metadata>
<defs>
<font id="din_next_lt_proultra_light" horiz-adv-x="1069" >
<font-face units-per-em="2048" ascent="1536" descent="-512" />
<missing-glyph horiz-adv-x="512" />
<glyph unicode="&#xfb01;" horiz-adv-x="1083" d="M86 934v16q0 21 20 21h119q13 0 13 12v125q0 91 11.5 145.5t42.5 86t75.5 42.5t119.5 11h43q9 0 15 -6t6 -15v-16q0 -9 -6 -15t-15 -6h-34q-66 0 -102 -7.5t-59 -31.5t-29.5 -61.5t-6.5 -106.5v-145q0 -12 12 -12h219q9 0 15 -6t6 -15v-16q0 -9 -6 -15t-15 -6h-219 q-12 0 -12 -12v-881q0 -20 -20 -20h-21q-20 0 -20 20v881q0 12 -13 12h-119q-20 0 -20 21zM803 1290v82q0 21 20 21h49q9 0 15 -6t6 -15v-82q0 -20 -21 -20h-49q-20 0 -20 20zM817 20v930q0 9 6 15t15 6h20q9 0 15 -6t6 -15v-930q0 -20 -21 -20h-20q-21 0 -21 20z" />
<glyph unicode="&#xfb02;" horiz-adv-x="1122" d="M86 934v16q0 21 20 21h119q13 0 13 12v125q0 91 11.5 145.5t42.5 86t75.5 42.5t119.5 11h43q9 0 15 -6t6 -15v-16q0 -9 -6 -15t-15 -6h-34q-66 0 -102 -7.5t-59 -31.5t-29.5 -61.5t-6.5 -106.5v-145q0 -12 12 -12h219q9 0 15 -6t6 -15v-16q0 -9 -6 -15t-15 -6h-219 q-12 0 -12 -12v-881q0 -20 -20 -20h-21q-20 0 -20 20v881q0 12 -13 12h-119q-20 0 -20 21zM815 199v1173q0 9 6 15t15 6h20q9 0 15 -6t6 -15v-1173q0 -82 25 -114t87 -32h31q20 0 20 -20v-17q0 -20 -20 -20h-31q-95 0 -134.5 47t-39.5 156z" />
<glyph unicode="&#xfb03;" horiz-adv-x="1695" d="M86 934v16q0 21 20 21h119q13 0 13 12v125q0 91 11.5 145.5t42.5 86t75.5 42.5t119.5 11h43q9 0 15 -6t6 -15v-16q0 -9 -6 -15t-15 -6h-34q-66 0 -102 -7.5t-59 -31.5t-29.5 -61.5t-6.5 -106.5v-145q0 -12 12 -12h219q9 0 15 -6t6 -15v-16q0 -9 -6 -15t-15 -6h-219 q-12 0 -12 -12v-881q0 -20 -20 -20h-21q-20 0 -20 20v881q0 12 -13 12h-119q-20 0 -20 21zM698 934v16q0 9 6 15t15 6h119q12 0 12 12v125q0 120 24 180.5t75 82.5t151 22h43q20 0 20 -21v-16q0 -21 -20 -21h-35q-66 0 -102 -7.5t-59 -31.5t-29.5 -61.5t-6.5 -106.5v-145 q0 -12 13 -12h219q20 0 20 -21v-16q0 -21 -20 -21h-219q-13 0 -13 -12v-881q0 -20 -20 -20h-21q-20 0 -20 20v881q0 12 -12 12h-119q-9 0 -15 6t-6 15zM1415 1290v82q0 9 6 15t15 6h49q20 0 20 -21v-82q0 -20 -20 -20h-49q-21 0 -21 20zM1430 20v930q0 21 20 21h20 q9 0 15 -6t6 -15v-930q0 -20 -21 -20h-20q-20 0 -20 20z" />
<glyph unicode="&#xfb04;" horiz-adv-x="1734" d="M86 934v16q0 21 20 21h119q13 0 13 12v125q0 91 11.5 145.5t42.5 86t75.5 42.5t119.5 11h43q9 0 15 -6t6 -15v-16q0 -9 -6 -15t-15 -6h-34q-66 0 -102 -7.5t-59 -31.5t-29.5 -61.5t-6.5 -106.5v-145q0 -12 12 -12h219q9 0 15 -6t6 -15v-16q0 -9 -6 -15t-15 -6h-219 q-12 0 -12 -12v-881q0 -20 -20 -20h-21q-20 0 -20 20v881q0 12 -13 12h-119q-20 0 -20 21zM698 934v16q0 9 6 15t15 6h119q12 0 12 12v125q0 120 24 180.5t75 82.5t151 22h43q20 0 20 -21v-16q0 -21 -20 -21h-35q-66 0 -102 -7.5t-59 -31.5t-29.5 -61.5t-6.5 -106.5v-145 q0 -12 13 -12h219q20 0 20 -21v-16q0 -21 -20 -21h-219q-13 0 -13 -12v-881q0 -20 -20 -20h-21q-20 0 -20 20v881q0 12 -12 12h-119q-9 0 -15 6t-6 15zM1427 199v1173q0 9 6 15t15 6h20q9 0 15 -6t6 -15v-1173q0 -82 25.5 -114t87.5 -32h30q21 0 21 -20v-17q0 -20 -21 -20 h-30q-95 0 -135 47t-40 156z" />
<glyph horiz-adv-x="2048" />
<glyph horiz-adv-x="2048" />
<glyph unicode="&#xd;" horiz-adv-x="2048" />
<glyph unicode=" "  horiz-adv-x="512" />
<glyph unicode="&#x09;" horiz-adv-x="512" />
<glyph unicode="&#xa0;" horiz-adv-x="512" />
<glyph unicode="!" horiz-adv-x="507" d="M205 20v103q0 20 20 20h58q20 0 20 -20v-103q0 -20 -20 -20h-58q-20 0 -20 20zM223 1372q0 9 6 15t15 6h24q9 0 15 -6t6 -15l-4 -1003q0 -9 -6 -15t-15 -6h-16q-9 0 -15 6t-6 15z" />
<glyph unicode="&#x22;" horiz-adv-x="614" d="M164 1118v254q0 21 20 21h21q20 0 20 -21v-254q0 -20 -20 -20h-21q-20 0 -20 20zM389 1118v254q0 9 6 15t15 6h20q9 0 15 -6t6 -15v-254q0 -20 -21 -20h-20q-21 0 -21 20z" />
<glyph unicode="#" d="M63 477v15q0 20 21 20h184l56 403h-191q-20 0 -20 21v14q0 21 20 21h199l55 401q3 21 23 21h20q22 0 19 -21l-56 -401h342l56 401q3 21 22 21h21q22 0 18 -21l-55 -401h188q9 0 15 -6t6 -15v-14q0 -9 -6 -15t-15 -6h-197l-55 -403h203q20 0 20 -20v-15q0 -20 -20 -20 h-209l-59 -437q-3 -20 -23 -20h-20q-22 0 -19 20l60 437h-342l-60 -437q-3 -20 -22 -20h-21q-21 0 -18 20l59 437h-178q-21 0 -21 20zM330 512h342l55 403h-342z" />
<glyph unicode="$" d="M120 104q-1 9 5 15l14 16q10 13 29 2q154 -95 338 -100v641q-179 27 -264.5 120.5t-85.5 239.5q0 165 95.5 264.5t254.5 108.5v107q0 20 20 20h17q20 0 20 -20v-105q159 -8 293 -86q18 -11 6 -29l-10 -14q-12 -14 -29 -4q-142 71 -260 76v-627q192 -29 279.5 -118.5 t87.5 -239.5q0 -166 -96 -271t-271 -118v-107q0 -20 -20 -20h-17q-20 0 -20 20v105q-106 1 -207 33t-172 77q-6 5 -7 14zM217 1044q0 -127 68 -205t221 -102v617q-133 -7 -211 -91.5t-78 -218.5zM563 37q140 11 222.5 97t82.5 231q0 132 -69.5 206t-235.5 99v-633z" />
<glyph unicode="%" horiz-adv-x="1609" d="M205 1042q0 168 16 222q22 69 76 107t133 38t133 -38t76 -107q16 -54 16 -222q0 -167 -16 -221q-22 -69 -76 -107t-133 -38t-133 38t-76 107q-16 54 -16 221zM262 1042q0 -158 17 -211q34 -102 151 -102q118 0 152 102q16 50 16 211t-16 211q-34 103 -152 103 q-117 0 -151 -103q-17 -53 -17 -211zM368.5 -14.5q-3.5 5.5 0.5 14.5l805 1393q11 20 28 20h21q9 0 12.5 -5.5t-0.5 -14.5l-805 -1393q-11 -20 -29 -20h-20q-9 0 -12.5 5.5zM954 350q0 164 17 221q22 70 76 108t133 38t133 -38t76 -108q16 -54 16 -221t-16 -221 q-22 -69 -76 -107t-133 -38t-133 38t-76 107q-17 57 -17 221zM1012 350q0 -161 16 -211q34 -102 152 -102q117 0 151 102q17 53 17 211t-17 211q-34 103 -151 103q-118 0 -152 -103q-16 -50 -16 -211z" />
<glyph unicode="&#x26;" horiz-adv-x="1241" d="M170 322q0 119 74.5 226.5t222.5 229.5q-123 159 -164 232.5t-41 140.5q0 115 77.5 188.5t197.5 73.5t197 -73.5t77 -188.5q0 -92 -54.5 -175.5t-207.5 -207.5l352 -465l150 193q13 16 28 4l13 -8q18 -12 4 -29l-160 -207l117 -154q20 -26 36 -35.5t39 -9.5h33 q21 0 21 -20v-17q0 -20 -21 -20h-35q-43 0 -69 14.5t-56 53.5l-104 137q-97 -116 -189 -170.5t-200 -54.5q-154 0 -246 93.5t-92 248.5zM231 322q0 -129 74 -207t203 -78q98 0 178 50.5t176 164.5l-360 479q-136 -111 -203.5 -205.5t-67.5 -203.5zM324 1151q0 -54 35 -114 t155 -222q101 83 154 144.5t67.5 101.5t14.5 90q0 91 -59.5 148t-153.5 57t-153.5 -58t-59.5 -147z" />
<glyph unicode="'" horiz-adv-x="389" d="M164 1118v254q0 21 20 21h21q20 0 20 -21v-254q0 -20 -20 -20h-21q-20 0 -20 20z" />
<glyph unicode="(" horiz-adv-x="550" d="M174 672q0 209 55.5 423t155.5 400q11 21 27 21h18q9 0 13.5 -6t0.5 -15q-98 -187 -153 -401t-55 -422t55 -422.5t153 -401.5q4 -9 -0.5 -14.5t-13.5 -5.5h-18q-17 0 -27 20q-100 186 -155.5 400.5t-55.5 423.5z" />
<glyph unicode=")" horiz-adv-x="550" d="M106 -152q98 188 153.5 402.5t55.5 421.5t-55 421t-154 402q-4 9 1 15t14 6h18q17 0 27 -21q100 -186 155.5 -400t55.5 -423t-55.5 -423.5t-155.5 -400.5q-10 -20 -27 -20h-18q-10 0 -14.5 5.5t-0.5 14.5z" />
<glyph unicode="*" horiz-adv-x="729" d="M119 977q-12 19 8 29l182 106l-182 107q-19 10 -8 28l6 10q11 19 29 7l184 -107v215q0 21 20 21h13q20 0 20 -21v-215l184 107q18 12 29 -7l6 -10q11 -18 -8 -28l-184 -107l184 -106q20 -10 8 -29l-6 -10q-11 -18 -29 -6l-184 104v-213q0 -21 -20 -21h-13q-20 0 -20 21 v213l-184 -104q-18 -12 -29 6z" />
<glyph unicode="+" d="M141 557v16q0 9 6 15t15 6h330q12 0 12 12v332q0 20 20 20h21q20 0 20 -20v-332q0 -12 13 -12h329q9 0 15 -6t6 -15v-16q0 -20 -21 -20h-329q-13 0 -13 -13v-331q0 -21 -20 -21h-21q-20 0 -20 21v331q0 13 -12 13h-330q-21 0 -21 20z" />
<glyph unicode="," horiz-adv-x="405" d="M160 123q0 20 20 20h45q21 0 21 -20v-119q0 -23 -8 -47l-43 -150q-5 -16 -21 -16q-14 0 -14 16v316z" />
<glyph unicode="-" horiz-adv-x="753" d="M102 539v16q0 20 21 20h508q20 0 20 -20v-16q0 -21 -20 -21h-508q-9 0 -15 6t-6 15z" />
<glyph unicode="." horiz-adv-x="417" d="M160 20v103q0 20 20 20h58q20 0 20 -20v-103q0 -20 -20 -20h-58q-20 0 -20 20z" />
<glyph unicode="/" horiz-adv-x="817" d="M152 0l452 1393q7 20 27 20h20q9 0 13.5 -5.5t1.5 -14.5l-453 -1393q-7 -20 -27 -20h-20q-9 0 -13 5.5t-1 14.5z" />
<glyph unicode="0" d="M160 696q0 366 35 478q77 239 340 239q262 0 339 -239q35 -112 35 -478q0 -364 -35 -477q-77 -239 -339 -239q-263 0 -340 239q-35 112 -35 477zM221 696q0 -357 33 -463q65 -196 281 -196q215 0 280 196q33 106 33 463t-33 463q-66 197 -280 197q-215 0 -281 -197 q-33 -106 -33 -463z" />
<glyph unicode="1" d="M262 1126v25q0 20 14 31l273 198q16 13 29 13h20q20 0 20 -21v-1352q0 -20 -20 -20h-20q-21 0 -21 20v1289h-4l-268 -195q-7 -6 -15 -3t-8 15z" />
<glyph unicode="2" d="M178 20v5q0 13 8 24l525 705q120 161 120 303q0 132 -82 215.5t-214 83.5q-126 0 -202 -73.5t-97 -201.5q-2 -8 -9.5 -12.5t-17.5 -1.5l-14 4q-20 7 -17 23q20 137 114.5 228t242.5 91q158 0 258 -99t100 -257q0 -86 -35.5 -167.5t-107.5 -180.5l-484 -650v-2h606 q21 0 21 -20v-17q0 -20 -21 -20h-673q-21 0 -21 20z" />
<glyph unicode="3" d="M154 262q-6 19 14 25l18 4q20 6 27 -15q9 -35 24 -66t41.5 -63.5t60 -56t83.5 -38.5t110 -15q144 0 230 92.5t86 239.5q0 142 -88 236.5t-230 94.5h-63q-9 0 -15 6t-6 15v16q0 9 6 15t15 6h63q129 0 210 84.5t81 216.5t-80.5 214.5t-216.5 82.5q-66 0 -119.5 -19.5 t-88 -53.5t-55.5 -73t-30 -84q-1 -9 -7.5 -13.5t-14.5 -2.5l-21 4q-20 3 -16 25q9 51 35 98.5t68.5 87.5t107 64t141.5 24q160 0 259.5 -99.5t99.5 -254.5q0 -67 -19 -123.5t-51 -95.5t-63.5 -64.5t-67.5 -42.5v-4q40 -17 77.5 -45t72.5 -71t56 -106.5t21 -137.5 q0 -170 -104 -279.5t-273 -109.5q-69 0 -128 17.5t-100 46t-72.5 66.5t-49.5 75.5t-28 76.5z" />
<glyph unicode="4" d="M125 332v12q0 9 4 21l455 1011q8 17 26 17h25q20 0 12 -19l-448 -1003v-2h477q12 0 12 12v397q0 9 6 15t15 6h20q9 0 15 -6t6 -15v-397q0 -12 12 -12h174q20 0 20 -21v-16q0 -21 -20 -21h-174q-12 0 -12 -12v-279q0 -20 -21 -20h-20q-21 0 -21 20v279q0 12 -12 12h-531 q-20 0 -20 21z" />
<glyph unicode="5" d="M207 279q-4 21 14 24l19 4q22 6 26 -16q14 -113 92.5 -183.5t208.5 -70.5q97 0 168 46.5t101 135.5q24 73 24 225q0 138 -29 230q-28 87 -93.5 132.5t-164.5 45.5q-107 0 -181 -58t-97 -145q-7 -20 -21 -20h-20q-21 0 -21 20v723q0 9 6 15t15 6h620q9 0 15 -6t6 -15v-16 q0 -9 -6 -15t-15 -6h-567q-12 0 -12 -12v-565h2q30 62 104 106.5t172 44.5q118 0 199.5 -54.5t116.5 -160.5q33 -104 33 -250q0 -150 -29 -239q-35 -108 -120 -166.5t-206 -58.5q-156 0 -250 83.5t-110 215.5z" />
<glyph unicode="6" d="M143 395q0 136 90 312l338 669q9 17 27 17h25q10 0 13 -6.5t-1 -12.5l-316 -626l5 -3q69 66 211 66q174 0 282.5 -115t108.5 -301q0 -185 -108.5 -300t-282.5 -115t-283 115t-109 300zM205 395q0 -158 92 -258t238 -100t237.5 100t91.5 258q0 159 -91.5 259t-237.5 100 t-238 -100.5t-92 -258.5z" />
<glyph unicode="7" d="M205 1116v256q0 21 20 21h674q9 0 15 -6t6 -15v-29q0 -5 -5 -20l-516 -1305q-5 -11 -9.5 -14.5t-16.5 -3.5h-25q-20 0 -10 23l516 1306v6h-575q-13 0 -13 -12v-207q0 -20 -20 -20h-21q-20 0 -20 20z" />
<glyph unicode="8" d="M141 371q0 129 65.5 224.5t176.5 137.5v4q-95 42 -149 126t-54 196q0 155 100 254.5t255 99.5t254.5 -99.5t99.5 -254.5q0 -112 -54 -196t-149 -126v-4q111 -42 176.5 -137.5t65.5 -224.5q0 -172 -110.5 -281.5t-282.5 -109.5t-283 110t-111 281zM203 371 q0 -144 93.5 -239t238.5 -95t238 95t93 239q0 143 -92 238.5t-239 95.5t-239.5 -95.5t-92.5 -238.5zM242 1059q0 -129 80.5 -213t212.5 -84t212 84t80 213q0 131 -81 214t-211 83t-211.5 -83t-81.5 -214z" />
<glyph unicode="9" d="M143 997q0 185 109 300.5t283 115.5t282.5 -115t108.5 -301q0 -135 -90 -311l-338 -670q-8 -16 -27 -16h-25q-10 0 -13 6t1 12l316 627l-5 2q-68 -65 -210 -65q-174 0 -283 115t-109 300zM205 997q0 -158 92 -258t238 -100t237.5 100t91.5 258q0 159 -91.5 259 t-237.5 100t-238 -100.5t-92 -258.5z" />
<glyph unicode=":" horiz-adv-x="434" d="M168 20v103q0 20 20 20h58q20 0 20 -20v-103q0 -20 -20 -20h-58q-20 0 -20 20zM168 848v102q0 21 20 21h58q20 0 20 -21v-102q0 -21 -20 -21h-58q-20 0 -20 21z" />
<glyph unicode=";" horiz-adv-x="434" d="M168 848v102q0 21 20 21h58q20 0 20 -21v-102q0 -21 -20 -21h-58q-20 0 -20 21zM174 123q0 20 21 20h45q20 0 20 -20v-119q0 -23 -8 -47l-43 -150q-5 -16 -21 -16q-14 0 -14 16v316z" />
<glyph unicode="&#x3c;" d="M141 559v12q0 17 21 25l745 301q9 3 15 -1t6 -13v-17q0 -17 -21 -26l-674 -273v-4l674 -272q21 -9 21 -27v-16q0 -9 -6 -13.5t-15 -1.5l-745 302q-12 5 -16.5 9.5t-4.5 14.5z" />
<glyph unicode="=" d="M141 360v17q0 20 21 20h745q21 0 21 -20v-17q0 -20 -21 -20h-745q-21 0 -21 20zM141 754v16q0 9 6 15t15 6h745q9 0 15 -6t6 -15v-16q0 -9 -6 -15t-15 -6h-745q-9 0 -15 6t-6 15z" />
<glyph unicode="&#x3e;" d="M141 248v16q0 18 21 27l674 272v4l-674 273q-21 9 -21 26v17q0 9 6 13t15 1l745 -301q21 -8 21 -25v-12q0 -10 -4.5 -14.5t-16.5 -9.5l-745 -302q-9 -3 -15 1.5t-6 13.5z" />
<glyph unicode="?" horiz-adv-x="899" d="M104 1104q21 136 113.5 222.5t233.5 86.5q152 0 244.5 -93t92.5 -237q0 -88 -31 -156t-110 -167l-92 -115q-49 -61 -63.5 -100.5t-14.5 -106.5v-78q0 -20 -20 -20h-21q-20 0 -20 20v78q0 67 15 114t56 99l93 115q90 111 118.5 175t28.5 142q0 129 -78 201t-198 72 q-114 0 -189 -68t-98 -194q-3 -20 -25 -17l-18 4q-20 3 -17 23zM397 20v103q0 20 21 20h57q21 0 21 -20v-103q0 -20 -21 -20h-57q-21 0 -21 20z" />
<glyph unicode="@" horiz-adv-x="1804" d="M104 547q0 176 59.5 326.5t165 255.5t254.5 164t324 59t324 -59t254.5 -164t165 -255.5t59.5 -326.5q0 -220 -83 -325t-220 -105q-85 0 -149 47t-89 127h-2q-37 -87 -111.5 -130.5t-174.5 -43.5q-219 0 -285 205q-27 89 -27 213t27 213q66 204 285 204q186 0 262 -127h4 v88q0 21 20 21h21q20 0 20 -21v-499q0 -116 60 -178t143 -62q105 0 171.5 88t66.5 285q0 220 -93.5 390.5t-262 263.5t-386.5 93q-330 0 -535.5 -206.5t-205.5 -540.5q0 -337 205 -544.5t536 -207.5q270 0 451 101q15 9 26 -9l9 -14q10 -16 -9 -27q-188 -108 -477 -108 q-175 0 -324 59t-254.5 164.5t-165 256.5t-59.5 329zM631 535q0 -125 24 -199q53 -162 234 -162q180 0 233 162q25 77 25 199q0 121 -25 198q-53 162 -233 162q-181 0 -234 -162q-24 -73 -24 -198z" />
<glyph unicode="A" horiz-adv-x="1202" d="M76 20l491 1352q7 21 23 21h26q16 0 23 -21l487 -1352q1 -4 1 -7t-2 -7q-4 -6 -13 -6h-29q-19 0 -26 20l-135 379h-641l-138 -379q-7 -20 -26 -20h-27q-9 0 -13 6q-2 3 -2 7q0 3 1 7zM301 459h598l-295 825h-4z" />
<glyph unicode="B" horiz-adv-x="1226" d="M209 20v1352q0 21 20 21h447q186 0 288.5 -95.5t102.5 -261.5q0 -128 -63.5 -211t-174.5 -110v-4q44 -6 88 -29t83.5 -63.5t64.5 -105.5t25 -144q0 -169 -107 -269t-299 -100h-455q-20 0 -20 20zM272 72q0 -13 13 -13h399q167 0 254.5 83t87.5 227t-87.5 227.5 t-254.5 83.5h-399q-13 0 -13 -12v-596zM272 752q0 -13 13 -13h391q157 0 242.5 81.5t85.5 215.5q0 140 -84.5 218.5t-243.5 78.5h-391q-13 0 -13 -12v-569z" />
<glyph unicode="C" horiz-adv-x="1122" d="M143 696q0 307 37 420q98 297 420 297q280 0 397 -237q5 -8 5 -14q0 -8 -9 -13l-20 -10q-16 -10 -27 8q-114 207 -346 207q-139 0 -227 -62.5t-131 -191.5q-35 -107 -35 -404q0 -296 35 -403q43 -129 131 -191.5t227 -62.5q232 0 346 207q11 18 27 8l20 -10q9 -5 9 -13 q0 -6 -5 -14q-117 -237 -397 -237q-323 0 -420 296q-37 113 -37 420z" />
<glyph unicode="D" horiz-adv-x="1273" d="M209 20v1352q0 21 20 21h410q349 0 436 -271q23 -69 31 -153t8 -273t-8 -273t-31 -153q-87 -270 -436 -270h-410q-20 0 -20 20zM272 72q0 -13 13 -13h354q302 0 375 226q21 64 29 146.5t8 264.5t-8 265t-29 147q-73 225 -375 225h-354q-13 0 -13 -12v-1249z" />
<glyph unicode="E" horiz-adv-x="1126" d="M209 20v1352q0 21 20 21h766q9 0 15 -6t6 -15v-18q0 -9 -6 -15t-15 -6h-710q-13 0 -13 -12v-571q0 -13 13 -13h614q21 0 21 -20v-19q0 -20 -21 -20h-614q-13 0 -13 -12v-594q0 -13 13 -13h710q21 0 21 -20v-19q0 -20 -21 -20h-766q-20 0 -20 20z" />
<glyph unicode="F" horiz-adv-x="1118" d="M209 20v1352q0 21 20 21h766q9 0 15 -6t6 -15v-18q0 -9 -6 -15t-15 -6h-710q-13 0 -13 -12v-586q0 -12 13 -12h614q9 0 15 -6t6 -15v-18q0 -20 -21 -20h-614q-13 0 -13 -13v-631q0 -20 -20 -20h-23q-20 0 -20 20z" />
<glyph unicode="G" horiz-adv-x="1232" d="M143 696q0 295 39 414q49 150 159.5 226.5t274.5 76.5q152 0 256.5 -64t157.5 -171q12 -23 -4 -31l-18 -10q-18 -9 -27 6q-116 211 -365 211q-140 0 -234.5 -66t-137.5 -194q-37 -113 -37 -398q0 -284 37 -397q43 -128 137.5 -194t234.5 -66t235 66t138 194 q37 113 37 309q0 13 -12 13h-355q-20 0 -20 20v18q0 21 20 21h410q9 0 15 -6t6 -15v-65q0 -192 -39 -311q-49 -150 -160 -226.5t-275 -76.5t-274.5 76.5t-159.5 226.5q-39 119 -39 413z" />
<glyph unicode="H" horiz-adv-x="1325" d="M209 20v1352q0 21 20 21h23q20 0 20 -21v-622q0 -13 13 -13h755q13 0 13 13v622q0 21 20 21h23q20 0 20 -21v-1352q0 -20 -20 -20h-23q-20 0 -20 20v646q0 12 -13 12h-755q-13 0 -13 -12v-646q0 -20 -20 -20h-23q-20 0 -20 20z" />
<glyph unicode="I" horiz-adv-x="481" d="M209 20v1352q0 21 20 21h23q20 0 20 -21v-1352q0 -20 -20 -20h-23q-20 0 -20 20z" />
<glyph unicode="J" horiz-adv-x="942" d="M90 98l16 19q13 13 31 2q107 -80 234 -80q313 0 313 354v979q0 9 6 15t15 6h22q9 0 15 -6t6 -15v-981q0 -209 -99.5 -310t-277.5 -101q-76 0 -148.5 25t-126.5 65q-10 6 -10 15q0 6 4 13z" />
<glyph unicode="K" horiz-adv-x="1191" d="M209 20v1352q0 21 20 21h23q20 0 20 -21v-862l723 862q18 21 35 21h37q9 0 12.5 -6.5t-2.5 -14.5l-444 -528l473 -824q3 -5 3 -9q0 -3 -1 -5q-3 -6 -12 -6h-35q-18 0 -29 20l-444 773l-316 -377v-396q0 -20 -20 -20h-23q-20 0 -20 20z" />
<glyph unicode="L" horiz-adv-x="1073" d="M209 20v1352q0 21 20 21h23q20 0 20 -21v-1300q0 -13 13 -13h710q21 0 21 -20v-19q0 -20 -21 -20h-766q-20 0 -20 20z" />
<glyph unicode="M" horiz-adv-x="1544" d="M209 20v1352q0 21 20 21h29q18 0 27 -21l485 -1069h6l484 1069q9 21 26 21h29q20 0 20 -21v-1352q0 -20 -20 -20h-23q-20 0 -20 20v1209h-6l-455 -996q-10 -20 -35 -20h-8q-25 0 -35 20l-454 996h-7v-1209q0 -20 -20 -20h-23q-20 0 -20 20z" />
<glyph unicode="N" horiz-adv-x="1327" d="M209 20v1352q0 21 20 21h19q23 0 35 -21l766 -1235h6v1235q0 21 20 21h23q20 0 20 -21v-1352q0 -20 -20 -20h-19q-24 0 -35 20l-765 1235h-7v-1235q0 -20 -20 -20h-23q-20 0 -20 20z" />
<glyph unicode="O" horiz-adv-x="1232" d="M143 696q0 289 41 414q99 303 432 303q334 0 433 -303q41 -125 41 -414q0 -288 -41 -413q-99 -303 -433 -303q-333 0 -432 303q-41 125 -41 413zM207 696q0 -278 39 -397q86 -260 370 -260q285 0 371 260q39 119 39 397q0 279 -39 398q-86 260 -371 260q-284 0 -370 -260 q-39 -119 -39 -398z" />
<glyph unicode="P" horiz-adv-x="1185" d="M209 20v1352q0 21 20 21h441q197 0 306 -99.5t109 -277.5t-109 -277.5t-306 -99.5h-385q-13 0 -13 -12v-607q0 -20 -20 -20h-23q-20 0 -20 20zM272 711q0 -13 13 -13h385q172 0 262 82.5t90 235.5t-90 235t-262 82h-385q-13 0 -13 -12v-610z" />
<glyph unicode="Q" horiz-adv-x="1232" d="M143 696q0 289 41 414q99 303 432 303q334 0 433 -303q41 -125 41 -414q0 -288 -41 -413q-26 -82 -76 -148l137 -153q6 -8 6 -15t-6 -14l-14 -12q-8 -6 -15 -6q-8 0 -14 8l-133 149q-115 -112 -318 -112q-333 0 -432 303q-41 125 -41 413zM207 696q0 -278 39 -397 q86 -260 370 -260q178 0 275 100l-172 193q-12 16 0 28l14 13q15 12 29 -2l168 -189q37 53 57 117q39 119 39 397q0 279 -39 398q-86 260 -371 260q-284 0 -370 -260q-39 -119 -39 -398z" />
<glyph unicode="R" horiz-adv-x="1255" d="M209 20v1352q0 21 20 21h437q198 0 306.5 -97t108.5 -274q0 -147 -77 -239.5t-220 -120.5l312 -642q3 -5 3 -9q1 -3 -1 -5q-4 -6 -13 -6h-34q-17 0 -25 18l-305 635q-18 -2 -55 -2h-381q-13 0 -13 -12v-619q0 -20 -20 -20h-23q-20 0 -20 20zM272 723q0 -12 13 -12h381 q173 0 262.5 79.5t89.5 231.5t-89.5 231.5t-262.5 79.5h-381q-13 0 -13 -12v-598z" />
<glyph unicode="S" horiz-adv-x="1228" d="M156 160l16 18q12 15 29 2q77 -61 184.5 -101t222.5 -40q185 0 292.5 88t107.5 238q0 61 -17.5 109t-57.5 88.5t-112 68t-176 41.5l-61 8q-394 53 -394 354q0 177 114 278t308 101q105 0 205 -29.5t170 -76.5q18 -11 4 -29l-14 -18q-12 -15 -29 -5q-166 99 -340 99 q-166 0 -260 -86t-94 -228q0 -128 85 -204t279 -101l62 -8q202 -27 296.5 -116.5t94.5 -239.5q0 -178 -123 -284.5t-352 -106.5q-124 0 -245.5 45t-192.5 106q-9 8 -9 16q0 6 7 13z" />
<glyph unicode="T" horiz-adv-x="1050" d="M45 1354v18q0 9 6 15t15 6h919q9 0 15 -6t6 -15v-18q0 -9 -6 -15t-15 -6h-416q-12 0 -12 -12v-1301q0 -20 -20 -20h-23q-20 0 -20 20v1301q0 12 -13 12h-415q-9 0 -15 6t-6 15z" />
<glyph unicode="U" horiz-adv-x="1294" d="M193 477v895q0 21 20 21h23q20 0 20 -21v-897q0 -218 100 -327t291 -109q192 0 291.5 109t99.5 327v897q0 9 6 15t15 6h22q9 0 15 -6t6 -15v-895q0 -248 -116.5 -372.5t-338.5 -124.5q-223 0 -338.5 123.5t-115.5 373.5z" />
<glyph unicode="V" horiz-adv-x="1140" d="M66 1360q-3 10 -3 17q0 16 17 16h18q23 0 31 -21l444 -1274h2l435 1274q5 12 11 16.5t19 4.5h21q17 0 17 -16q0 -7 -3 -17l-467 -1340q-7 -20 -22 -20h-27q-15 0 -22 20z" />
<glyph unicode="W" horiz-adv-x="1665" d="M80 1370q-2 5 -2 9q0 14 18 14h23q23 0 28 -21l297 -1251h5l346 1251q6 21 24 21h27q18 0 24 -21l351 -1251h4l293 1251q5 21 28 21h23q18 0 18 -14q0 -4 -2 -9l-325 -1350q-3 -20 -23 -20h-29q-16 0 -22 20l-350 1237h-5l-352 -1237q-6 -20 -22 -20h-29q-19 0 -22 20z " />
<glyph unicode="X" horiz-adv-x="1091" d="M80 6q-1 2 -1 5q0 4 3 9l428 715l-381 637q-5 8 -2 14.5t12 6.5h37q15 0 25 -17l344 -581h2l346 581q10 17 25 17h34q9 0 12.5 -6.5t-1.5 -14.5l-381 -637l428 -715q3 -5 3 -9q1 -3 -1 -5q-4 -6 -13 -6h-36q-15 0 -25 16l-391 660h-2l-393 -660q-10 -16 -25 -16h-35 q-9 0 -12 6z" />
<glyph unicode="Y" horiz-adv-x="1036" d="M63 1368q-3 4 -3 8.5t3 8.5q5 8 15 8h24q20 0 31 -21l387 -721h4l379 721q11 21 31 21h24q10 0 15 -8q3 -4 3 -8.5t-3 -8.5l-422 -797v-551q0 -20 -21 -20h-22q-21 0 -21 20v551z" />
<glyph unicode="Z" horiz-adv-x="1112" d="M117 20v19q0 13 12 31l784 1261v2h-747q-9 0 -15 6t-6 15v18q0 9 6 15t15 6h807q20 0 20 -21v-18q0 -14 -10 -29l-786 -1264v-2h776q20 0 20 -20v-19q0 -20 -20 -20h-836q-20 0 -20 20z" />
<glyph unicode="[" horiz-adv-x="581" d="M238 -152v1647q0 21 20 21h201q20 0 20 -21v-16q0 -21 -20 -21h-148q-12 0 -12 -12v-1548q0 -13 12 -13h148q20 0 20 -20v-17q0 -20 -20 -20h-201q-20 0 -20 20z" />
<glyph unicode="\" horiz-adv-x="817" d="M152 1393q-3 9 1 14.5t13 5.5h20q20 0 27 -20l453 -1393q3 -9 -1.5 -14.5t-13.5 -5.5h-20q-20 0 -27 20z" />
<glyph unicode="]" horiz-adv-x="581" d="M102 -135q0 20 21 20h147q13 0 13 13v1548q0 12 -13 12h-147q-9 0 -15 6t-6 15v16q0 9 6 15t15 6h201q20 0 20 -21v-1647q0 -20 -20 -20h-201q-21 0 -21 20v17z" />
<glyph unicode="^" d="M145 618l353 754q10 21 28 21h17q17 0 28 -21l353 -754q4 -9 -0.5 -14.5t-14.5 -5.5h-18q-18 0 -27 20l-327 701h-5l-327 -701q-9 -20 -27 -20h-18q-10 0 -14.5 5.5t-0.5 14.5z" />
<glyph unicode="_" horiz-adv-x="911" d="M0 -180h911v-58h-911v58z" />
<glyph unicode="`" horiz-adv-x="860" d="M311 1427q4 7 13 7h30q21 0 33 -21l160 -246q6 -9 2.5 -14.5t-12.5 -5.5h-15q-20 0 -35 20l-174 246q-6 7 -2 14z" />
<glyph unicode="a" horiz-adv-x="1042" d="M147 262q0 137 92.5 208t268.5 71h268q12 0 12 12v125q0 142 -57 199t-213 57q-173 0 -254 -78q-14 -14 -28 -4l-15 12q-17 14 -2 29q95 98 299 98q179 0 255.5 -68.5t76.5 -244.5v-658q0 -20 -21 -20h-20q-21 0 -21 20v117h-2q-28 -70 -109.5 -113.5t-203.5 -43.5 q-154 0 -240 73.5t-86 208.5zM209 262q0 -107 71 -166t201 -59q135 0 221 70.5t86 179.5v184q0 12 -12 12h-264q-158 0 -230.5 -54.5t-72.5 -166.5z" />
<glyph unicode="b" horiz-adv-x="1075" d="M205 20v1352q0 21 20 21h21q20 0 20 -21v-563h2q82 182 310 182q256 0 329 -231q35 -106 35 -275q0 -168 -35 -274q-73 -231 -329 -231q-228 0 -310 182h-2v-142q0 -20 -20 -20h-21q-20 0 -20 20zM266 485q0 -169 27 -254q32 -96 104.5 -145t175.5 -49q213 0 277 194 q31 94 31 254t-31 254q-31 95 -101.5 145t-175.5 50q-103 0 -175.5 -49t-104.5 -146q-27 -85 -27 -254z" />
<glyph unicode="c" horiz-adv-x="958" d="M133 485q0 152 33 260q37 116 127 181t217 65q228 0 321 -196q3 -6 3 -12q0 -11 -13 -17l-14 -6q-18 -7 -27 8q-43 86 -108 126t-162 40q-106 0 -179.5 -54t-105.5 -157q-30 -92 -30 -238q0 -145 30 -237q32 -103 105.5 -157t179.5 -54q97 0 162 40t108 126q9 15 27 8 l14 -6q13 -7 13 -17q0 -5 -3 -12q-93 -196 -321 -196q-127 0 -217 64.5t-127 180.5q-33 108 -33 260z" />
<glyph unicode="d" horiz-adv-x="1075" d="M133 485q0 169 35 275q74 231 330 231q227 0 309 -182h2v563q0 21 20 21h21q20 0 20 -21v-1352q0 -20 -20 -20h-21q-20 0 -20 20v142h-2q-82 -182 -309 -182q-256 0 -330 231q-35 106 -35 274zM195 485q0 -163 30 -254q64 -194 277 -194q103 0 175.5 49t104.5 145 q27 85 27 254t-27 254q-32 97 -104.5 146t-175.5 49q-105 0 -175.5 -50t-101.5 -145q-30 -91 -30 -254z" />
<glyph unicode="e" horiz-adv-x="1011" d="M133 487q0 169 29 258q39 120 128.5 183t215.5 63t215.5 -62.5t128.5 -183.5q29 -89 29 -241q0 -21 -23 -21h-649q-12 0 -12 -14q0 -139 24 -219q71 -213 299 -213q97 0 171.5 38t121.5 103q13 17 29 4l12 -10q15 -12 2 -29q-53 -75 -139 -119t-197 -44q-276 0 -356 249 q-29 92 -29 258zM195 553q0 -12 12 -12h598q12 0 12 12q0 96 -22 170q-33 105 -107.5 158t-181.5 53t-181.5 -53t-107.5 -158q-22 -74 -22 -170z" />
<glyph unicode="f" horiz-adv-x="612" d="M86 934v16q0 21 20 21h119q13 0 13 12v125q0 91 11.5 145.5t42.5 86t75.5 42.5t119.5 11h43q9 0 15 -6t6 -15v-16q0 -9 -6 -15t-15 -6h-34q-66 0 -102 -7.5t-59 -31.5t-29.5 -61.5t-6.5 -106.5v-145q0 -12 12 -12h219q9 0 15 -6t6 -15v-16q0 -9 -6 -15t-15 -6h-219 q-12 0 -12 -12v-881q0 -20 -20 -20h-21q-20 0 -20 20v881q0 12 -13 12h-119q-20 0 -20 21z" />
<glyph unicode="g" horiz-adv-x="1058" d="M133 485q0 177 33 275q36 110 118 170.5t203 60.5q226 0 304 -182h2v141q0 21 20 21h21q20 0 20 -21v-952q0 -195 -97 -291t-268 -96q-102 0 -186 40t-121 99q-12 20 4 29l17 10q16 9 28 -6q88 -115 258 -115q304 0 304 330v164h-2q-78 -182 -304 -182q-121 0 -203 60.5 t-118 170.5q-33 98 -33 274zM195 485q0 -165 30 -256q65 -192 269 -192q208 0 272 194q27 80 27 254t-27 254q-64 195 -272 195q-204 0 -269 -193q-30 -91 -30 -256z" />
<glyph unicode="h" horiz-adv-x="1101" d="M205 20v1352q0 21 20 21h21q20 0 20 -21v-559h2q37 84 115.5 131t183.5 47q166 0 254 -94.5t88 -280.5v-596q0 -20 -20 -20h-21q-20 0 -20 20v582q0 170 -70.5 251t-214.5 81q-126 0 -211.5 -81.5t-85.5 -219.5v-613q0 -20 -20 -20h-21q-20 0 -20 20z" />
<glyph unicode="i" horiz-adv-x="471" d="M190 1290v82q0 9 6 15t15 6h49q9 0 15 -6t6 -15v-82q0 -20 -21 -20h-49q-21 0 -21 20zM205 20v930q0 21 20 21h21q20 0 20 -21v-930q0 -20 -20 -20h-21q-20 0 -20 20z" />
<glyph unicode="j" horiz-adv-x="471" d="M18 -332q0 9 6 15t15 6h8q94 0 126 32.5t32 133.5v1095q0 21 20 21h21q20 0 20 -21v-1095q0 -129 -47 -176.5t-172 -47.5h-8q-9 0 -15 6t-6 15v16zM190 1290v82q0 9 6 15t15 6h49q9 0 15 -6t6 -15v-82q0 -20 -21 -20h-49q-21 0 -21 20z" />
<glyph unicode="k" horiz-adv-x="1003" d="M205 20v1352q0 21 20 21h21q20 0 20 -21v-999l486 579q16 19 32 19h31q9 0 12.5 -6.5t-2.5 -14.5l-278 -332l366 -598q3 -4 3 -8q0 -3 -2 -6q-4 -6 -13 -6h-27q-18 0 -30 20l-338 551l-240 -286v-265q0 -20 -20 -20h-21q-20 0 -20 20z" />
<glyph unicode="l" horiz-adv-x="509" d="M203 199v1173q0 21 20 21h21q20 0 20 -21v-1173q0 -82 25.5 -114t87.5 -32h31q20 0 20 -20v-17q0 -20 -20 -20h-31q-95 0 -134.5 47t-39.5 156z" />
<glyph unicode="m" horiz-adv-x="1744" d="M205 20v930q0 21 20 21h21q20 0 20 -21v-137h2q37 84 115.5 131t183.5 47q251 0 320 -209h2q79 209 321 209q166 0 254 -94.5t88 -280.5v-596q0 -20 -20 -20h-21q-20 0 -20 20v582q0 170 -70.5 251t-214.5 81q-126 0 -211.5 -81.5t-85.5 -219.5v-613q0 -20 -20 -20h-21 q-20 0 -20 20v582q0 170 -70.5 251t-214.5 81q-126 0 -211.5 -81.5t-85.5 -219.5v-613q0 -20 -20 -20h-21q-20 0 -20 20z" />
<glyph unicode="n" horiz-adv-x="1101" d="M205 20v930q0 21 20 21h21q20 0 20 -21v-137h2q37 84 115.5 131t183.5 47q166 0 254 -94.5t88 -280.5v-596q0 -20 -20 -20h-21q-20 0 -20 20v582q0 170 -70.5 251t-214.5 81q-126 0 -211.5 -81.5t-85.5 -219.5v-613q0 -20 -20 -20h-21q-20 0 -20 20z" />
<glyph unicode="o" horiz-adv-x="1028" d="M133 485q0 156 33 260q38 117 128.5 181.5t219.5 64.5t219.5 -64.5t128.5 -181.5q33 -104 33 -260t-33 -260q-38 -117 -128.5 -181t-219.5 -64t-219.5 64t-128.5 181q-33 104 -33 260zM195 485q0 -150 28 -239q32 -100 108.5 -154.5t182.5 -54.5t182.5 54.5t108.5 154.5 q29 92 29 239q0 148 -29 240q-32 100 -108.5 154.5t-182.5 54.5t-182.5 -54.5t-108.5 -154.5q-28 -89 -28 -240z" />
<glyph unicode="p" horiz-adv-x="1075" d="M205 -348v1298q0 21 20 21h21q20 0 20 -21v-141h2q82 182 310 182q256 0 329 -231q35 -106 35 -275q0 -168 -35 -274q-73 -231 -329 -231q-228 0 -310 182h-2v-510q0 -21 -20 -21h-21q-20 0 -20 21zM266 485q0 -169 27 -254q32 -96 104.5 -145t175.5 -49q213 0 277 194 q31 94 31 254t-31 254q-31 95 -101.5 145t-175.5 50q-103 0 -175.5 -49t-104.5 -146q-27 -85 -27 -254z" />
<glyph unicode="q" horiz-adv-x="1075" d="M133 485q0 169 35 275q74 231 330 231q227 0 309 -182h2v141q0 21 20 21h21q20 0 20 -21v-1298q0 -21 -20 -21h-21q-20 0 -20 21v510h-2q-82 -182 -309 -182q-256 0 -330 231q-35 106 -35 274zM195 485q0 -163 30 -254q64 -194 277 -194q103 0 175.5 49t104.5 145 q27 85 27 254t-27 254q-32 97 -104.5 146t-175.5 49q-105 0 -175.5 -50t-101.5 -145q-30 -91 -30 -254z" />
<glyph unicode="r" horiz-adv-x="786" d="M205 20v930q0 21 20 21h21q20 0 20 -21v-145h2q24 85 92 135.5t172 50.5q114 0 193 -59q8 -6 8 -14q0 -6 -4 -13l-12 -16q-12 -15 -31 -4q-79 49 -162 49q-69 0 -120 -30.5t-80.5 -83.5t-43.5 -117t-14 -140v-543q0 -20 -20 -20h-21q-20 0 -20 20z" />
<glyph unicode="s" horiz-adv-x="972" d="M125 109q-7 7 -7 14t7 14l14 15q12 12 29 0q152 -115 332 -115q139 0 211.5 60t72.5 163q0 95 -51.5 142t-197.5 63l-97 10q-132 14 -203 75.5t-71 168.5q0 129 87 200.5t241 71.5q162 0 303 -82q18 -11 4 -28l-8 -13q-10 -17 -29 -6q-144 72 -277 72q-126 0 -193 -55 t-67 -154q0 -89 58.5 -135.5t193.5 -59.5l96 -10q136 -13 204.5 -77t68.5 -173q0 -136 -92.5 -213t-264.5 -77q-201 0 -364 129z" />
<glyph unicode="t" horiz-adv-x="626" d="M86 934v16q0 21 20 21h119q13 0 13 12v287q0 20 20 20h21q20 0 20 -20v-287q0 -12 12 -12h205q9 0 15 -6t6 -15v-16q0 -9 -6 -15t-15 -6h-205q-12 0 -12 -12v-647q0 -119 40 -160t144 -41h33q21 0 21 -20v-17q0 -20 -21 -20h-35q-134 0 -188.5 55t-54.5 199v651 q0 12 -13 12h-119q-20 0 -20 21z" />
<glyph unicode="u" horiz-adv-x="1087" d="M186 354v596q0 9 6 15t15 6h20q9 0 15 -6t6 -15v-581q0 -171 68.5 -251.5t211.5 -80.5q125 0 209 81.5t84 219.5v612q0 9 6 15t15 6h20q9 0 15 -6t6 -15v-930q0 -20 -21 -20h-20q-21 0 -21 20v138h-2q-35 -84 -114 -131t-181 -47q-166 0 -252 94t-86 280z" />
<glyph unicode="v" horiz-adv-x="942" d="M80 950q-2 5 -2 9q0 12 16 12h25q18 0 26 -21l328 -852h2l322 852q8 21 26 21h25q16 0 16 -12q0 -4 -2 -9l-356 -930q-7 -20 -23 -20h-24q-16 0 -23 20z" />
<glyph unicode="w" horiz-adv-x="1490" d="M92 950q-2 5 -2 9q0 12 16 12h21q19 0 27 -21l276 -844h2l279 844q6 21 24 21h21q18 0 24 -21l285 -844h2l270 844q8 21 27 21h20q17 0 17 -12q0 -4 -2 -9l-303 -930q-6 -20 -25 -20h-16q-19 0 -25 20l-282 854h-3l-284 -854q-6 -20 -25 -20h-16q-19 0 -25 20z" />
<glyph unicode="x" horiz-adv-x="919" d="M88 6q-1 2 -1 5q0 4 3 9l336 492l-299 438q-5 8 -2 14.5t12 6.5h29q17 0 27 -15l266 -393h2l268 393q10 15 27 15h26q9 0 12.5 -6.5t-1.5 -14.5l-299 -438l335 -492q3 -5 3 -9q0 -3 -1 -5q-3 -6 -12 -6h-31q-17 0 -26 14l-301 447h-2l-303 -447q-9 -14 -27 -14h-29 q-9 0 -12 6z" />
<glyph unicode="y" horiz-adv-x="942" d="M80 950q-2 5 -2 9q0 12 16 12h25q18 0 26 -21l328 -852h2l322 852q8 21 26 21h25q16 0 16 -12q0 -4 -2 -9l-407 -1063q-31 -81 -60 -132t-60.5 -78t-63 -36.5t-76.5 -9.5h-33q-9 0 -15 6t-6 15v16q0 9 6 15t15 6h37q67 0 109 42.5t91 172.5l41 108z" />
<glyph unicode="z" horiz-adv-x="942" d="M123 20v17q0 13 12 31l613 843v2h-578q-20 0 -20 21v16q0 21 20 21h633q20 0 20 -21v-16q0 -13 -12 -31l-612 -844v-2h604q20 0 20 -20v-17q0 -20 -20 -20h-660q-20 0 -20 20z" />
<glyph unicode="{" horiz-adv-x="626" d="M164 668v16q0 18 20 21q50 5 77.5 44.5t27.5 133.5v434q0 109 39 154t129 45h47q20 0 20 -21v-16q0 -21 -20 -21h-49q-55 0 -80 -30t-25 -99v-424q0 -113 -19.5 -159.5t-68.5 -67.5v-4q48 -21 68 -68t20 -160v-432q0 -69 25 -99t80 -30h49q20 0 20 -20v-17q0 -20 -20 -20 h-47q-90 0 -129 45t-39 154v442q0 94 -27.5 133.5t-77.5 44.5q-20 3 -20 21z" />
<glyph unicode="|" horiz-adv-x="430" d="M184 -152v1647q0 9 6 15t15 6h20q9 0 15 -6t6 -15v-1647q0 -20 -21 -20h-20q-21 0 -21 20z" />
<glyph unicode="}" horiz-adv-x="626" d="M102 -135q0 20 21 20h49q55 0 79.5 29.5t24.5 99.5v432q0 113 20 159.5t69 68.5v4q-49 22 -69 68t-20 159v424q0 70 -24.5 99.5t-79.5 29.5h-49q-9 0 -15 6t-6 15v16q0 9 6 15t15 6h47q90 0 129 -45t39 -154v-434q0 -94 27.5 -133.5t76.5 -44.5q21 -3 21 -21v-16 q0 -18 -21 -21q-49 -5 -76.5 -44.5t-27.5 -133.5v-442q0 -109 -39 -154t-129 -45h-47q-21 0 -21 20v17z" />
<glyph unicode="~" d="M135 522q37 69 95 107.5t128 38.5q40 0 78.5 -14t60 -28.5t56.5 -41.5q31 -23 49 -35t49 -23.5t62 -11.5q54 0 94.5 27.5t81.5 93.5q10 17 29 4l10 -6q16 -11 6 -29q-37 -68 -95 -106.5t-128 -38.5q-40 0 -78.5 14t-60 28.5t-56.5 41.5q-30 23 -49 35t-49.5 23t-61.5 11 q-54 0 -94.5 -27t-81.5 -93q-10 -17 -28 -5l-11 7q-16 11 -6 28z" />
<glyph unicode="&#xa1;" horiz-adv-x="507" d="M205 848v102q0 21 20 21h58q20 0 20 -21v-102q0 -21 -20 -21h-58q-20 0 -20 21zM219 -401l4 1003q0 9 6 15t15 6h16q9 0 15 -6t6 -15l4 -1003q0 -9 -6 -15t-15 -6h-24q-9 0 -15 6t-6 15z" />
<glyph unicode="&#xa2;" d="M182 485q0 152 33 260q34 105 112 168.5t191 73.5v174q0 9 6 15t15 6h16q20 0 20 -21v-170q221 -6 314 -196q10 -19 -10 -29l-15 -6q-17 -7 -26 8q-41 83 -104.5 123t-158.5 43v-897q95 1 158 41.5t105 124.5q9 15 26 8l15 -6q20 -10 10 -29q-91 -190 -314 -196v-170 q0 -21 -20 -21h-16q-9 0 -15 6t-6 15v172q-114 10 -191.5 73t-111.5 170q-33 108 -33 260zM244 485q0 -145 30 -237q61 -191 244 -209v893q-184 -21 -244 -209q-30 -92 -30 -238z" />
<glyph unicode="&#xa3;" d="M164 651v17q0 20 20 20h105q12 0 12 12v379q0 160 78.5 247t210.5 87q110 0 182.5 -65t99.5 -177q3 -18 -14 -24l-18 -6q-21 -7 -25 14q-23 97 -82 149t-143 52q-104 0 -166 -67.5t-62 -207.5v-381q0 -12 13 -12h293q20 0 20 -20v-17q0 -20 -20 -20h-293q-13 0 -13 -13 v-342q0 -76 -17 -126t-58 -91v-2h581q21 0 21 -20v-17q0 -20 -21 -20h-643q-20 0 -20 20v17q0 10 10 20q53 54 69.5 97.5t16.5 121.5v342q0 13 -12 13h-105q-20 0 -20 20z" />
<glyph unicode="&#xa4;" d="M111 246q-14 14 0 28l139 138q-90 104 -90 250q0 145 90 249l-139 138q-14 14 0 28l12 13q15 14 29 0l139 -138q100 84 244 84q138 0 243 -84l140 138q14 14 28 0l12 -13q14 -14 0 -28l-139 -138q90 -104 90 -249q0 -146 -90 -250l139 -138q14 -14 0 -28l-12 -13 q-14 -14 -28 0l-140 138q-105 -84 -243 -84q-144 0 -244 84l-139 -138q-14 -15 -29 0zM221 662q0 -135 89.5 -226.5t224.5 -91.5t224 91t89 227q0 135 -89 226t-224 91t-224.5 -91t-89.5 -226z" />
<glyph unicode="&#xa5;" d="M136 1384.5q5 8.5 18 8.5h16q22 0 33 -21l332 -721h4l327 721q10 21 33 21h16q13 0 18 -8.5t-1 -20.5l-336 -729v-2h262q9 0 15 -6t6 -15v-14q0 -20 -21 -20h-280q-13 0 -13 -13v-143q0 -12 13 -12h280q9 0 15 -6t6 -15v-14q0 -9 -6 -15t-15 -6h-280q-13 0 -13 -12v-322 q0 -20 -20 -20h-21q-20 0 -20 20v322q0 12 -12 12h-281q-9 0 -15 6t-6 15v14q0 9 6 15t15 6h281q12 0 12 12v143q0 13 -12 13h-281q-21 0 -21 20v14q0 9 6 15t15 6h262v2l-336 729q-6 12 -1 20.5z" />
<glyph unicode="&#xa6;" horiz-adv-x="430" d="M184 -152v689q0 20 21 20h20q21 0 21 -20v-689q0 -20 -21 -20h-20q-21 0 -21 20zM184 815v680q0 9 6 15t15 6h20q9 0 15 -6t6 -15v-680q0 -20 -21 -20h-20q-21 0 -21 20z" />
<glyph unicode="&#xa7;" d="M201 518q0 82 23.5 150t78.5 120t137 70v2q-102 45 -148 110t-46 173q0 123 82.5 198.5t210.5 75.5q133 0 209.5 -77.5t76.5 -194.5q0 -22 -16 -25l-21 -4q-10 -3 -16 1.5t-6 12.5q-2 107 -61 168.5t-166 61.5t-169.5 -57t-62.5 -160q0 -110 62.5 -173t220.5 -96 q278 -57 278 -356q0 -128 -56.5 -217.5t-170.5 -120.5v-2q88 -30 143.5 -97t55.5 -177q0 -144 -88 -220.5t-222 -76.5q-142 0 -225.5 79t-83.5 228q0 22 17 25l22 4q10 3 16.5 -2t6.5 -13q-1 -73 18.5 -126.5t55.5 -82.5t79 -42t94 -13q113 0 180.5 60.5t67.5 179.5 q0 109 -69.5 169t-229.5 89q-278 52 -278 356zM262 518q0 -142 75.5 -219.5t197.5 -77.5t197 77.5t75 219.5t-75 219.5t-197 77.5t-197.5 -77.5t-75.5 -219.5z" />
<glyph unicode="&#xa8;" horiz-adv-x="860" d="M180 1290v82q0 9 6 15t15 6h49q20 0 20 -21v-82q0 -20 -20 -20h-49q-21 0 -21 20zM590 1290v82q0 21 20 21h49q9 0 15 -6t6 -15v-82q0 -20 -21 -20h-49q-20 0 -20 20z" />
<glyph unicode="&#xa9;" horiz-adv-x="1703" d="M135 696q0 151 55 284t150 228t228 150t284 55t284 -55t228 -150t150 -228t55 -284q0 -201 -93.5 -365t-258 -257.5t-365.5 -93.5t-365.5 93.5t-258 257.5t-93.5 365zM193 696q0 -141 50.5 -264t137.5 -210.5t209.5 -138t261.5 -50.5t261.5 50.5t209.5 138t137.5 210.5 t50.5 264q0 188 -85.5 340t-236.5 238t-337 86t-337 -86t-236.5 -238t-85.5 -340zM559 696q0 125 23 199q32 99 105 151t175 52q94 0 163 -44.5t105 -115.5q4 -8 2 -15t-10 -10l-12 -6q-18 -7 -27 8q-37 63 -88.5 96t-132.5 33q-173 0 -227 -165q-21 -65 -21 -183t21 -182 q54 -166 227 -166q81 0 132.5 33t88.5 96q9 15 27 8l12 -6q18 -7 8 -24q-36 -71 -105 -115.5t-163 -44.5q-102 0 -175 52t-105 151q-23 74 -23 198z" />
<glyph unicode="&#xaa;" horiz-adv-x="690" d="M102 967q0 178 240 178h156q12 0 12 12v55q0 79 -35.5 110.5t-132.5 31.5q-101 0 -162 -45q-17 -13 -28 2l-9 10q-12 16 4 29q67 57 197 57q122 0 172.5 -43t50.5 -152v-389q0 -20 -20 -20h-17q-20 0 -20 20v49h-2q-50 -81 -199 -81q-94 0 -150.5 46.5t-56.5 129.5z M160 969q0 -59 43 -92t119 -33q77 0 132.5 36.5t55.5 86.5v112q0 13 -12 13h-150q-97 0 -142.5 -30t-45.5 -93z" />
<glyph unicode="&#xab;" horiz-adv-x="1019" d="M115 540.5q0 8.5 6 14.5l323 330q6 6 13.5 3.5t7.5 -11.5v-39q0 -21 -12 -33l-250 -256q-9 -9 0 -17l250 -256q12 -12 12 -32v-39q0 -9 -7.5 -11.5t-13.5 3.5l-323 329q-6 6 -6 14.5zM512 526q-14 14 0 29l324 330q6 6 13 3.5t7 -11.5v-39q0 -21 -12 -33l-250 -256 q-8 -9 0 -17l250 -256q12 -12 12 -32v-39q0 -9 -7 -11.5t-13 3.5z" />
<glyph unicode="&#xac;" d="M141 557v16q0 9 6 15t15 6h745q9 0 15 -6t6 -15v-288q0 -9 -6 -15t-15 -6h-20q-9 0 -15 6t-6 15v239q0 13 -12 13h-692q-21 0 -21 20z" />
<glyph unicode="&#xad;" horiz-adv-x="753" d="M102 539v16q0 20 21 20h508q20 0 20 -20v-16q0 -21 -20 -21h-508q-9 0 -15 6t-6 15z" />
<glyph unicode="&#xae;" horiz-adv-x="952" d="M82 1010q0 169 112 281t281 112q170 0 282.5 -112t112.5 -281q0 -170 -112.5 -283t-282.5 -113q-169 0 -281 113t-112 283zM129 1010q0 -151 98.5 -251t247.5 -100t248.5 100t99.5 251q0 149 -99.5 248.5t-248.5 99.5t-247.5 -99.5t-98.5 -248.5zM338 809v405q0 19 18 19 h154q61 0 96 -34.5t35 -88.5q0 -45 -24 -79t-66 -44l88 -176q9 -20 -10 -20h-19q-12 0 -20 14l-90 180h-111q-6 0 -6 -4v-172q0 -18 -18 -18h-9q-18 0 -18 18zM383 1032q0 -4 6 -4h121q43 0 64.5 22t21.5 60q0 37 -21.5 58.5t-64.5 21.5h-121q-6 0 -6 -4v-154z" />
<glyph unicode="&#xaf;" horiz-adv-x="860" d="M172 1319v16q0 9 6 15t15 6h475q20 0 20 -21v-16q0 -21 -20 -21h-475q-9 0 -15 6t-6 15z" />
<glyph unicode="&#xb0;" horiz-adv-x="905" d="M164 1114q0 124 82 206.5t207 82.5q124 0 206 -82t82 -207t-82 -207t-206 -82q-125 0 -207 82.5t-82 206.5zM223 1114q0 -100 66 -166.5t164 -66.5t163.5 66.5t65.5 166.5t-65 167t-164 67t-164.5 -67t-65.5 -167z" />
<glyph unicode="&#xb1;" d="M141 20v17q0 20 21 20h745q21 0 21 -20v-17q0 -20 -21 -20h-745q-21 0 -21 20zM141 557v16q0 9 6 15t15 6h330q12 0 12 12v332q0 20 20 20h21q20 0 20 -20v-332q0 -12 13 -12h329q9 0 15 -6t6 -15v-16q0 -20 -21 -20h-329q-13 0 -13 -13v-331q0 -21 -20 -21h-21 q-20 0 -20 21v331q0 13 -12 13h-330q-21 0 -21 20z" />
<glyph unicode="&#xb2;" horiz-adv-x="663" d="M88 901v12q0 15 14 29l330 393q76 92 76 172q0 71 -47 117.5t-121 46.5q-69 0 -115 -37.5t-61 -103.5q-1 -9 -8.5 -14t-16.5 -3l-12 3q-21 3 -18 24q16 80 77.5 132t153.5 52q105 0 165 -62.5t60 -154.5q0 -95 -92 -207l-305 -362v-4h385q20 0 20 -21v-12q0 -20 -20 -20 h-444q-21 0 -21 20z" />
<glyph unicode="&#xb3;" horiz-adv-x="663" d="M88 1030q-6 17 12 23l17 6q15 5 24 -12q22 -55 70 -90t121 -35q82 0 133 51.5t51 130.5t-52 131.5t-136 52.5h-33q-9 0 -15 6t-6 15v12q0 20 21 20h31q77 0 124.5 46.5t47.5 121.5q0 72 -47 117t-125 45q-133 0 -172 -115q-6 -19 -23 -16l-14 2q-20 3 -17 23 q15 66 73 112.5t153 46.5q103 0 166 -60.5t63 -154.5q0 -128 -117 -190v-2q54 -23 94.5 -77t40.5 -136q0 -102 -67.5 -169t-173.5 -67q-98 0 -159.5 46.5t-84.5 115.5z" />
<glyph unicode="&#xb4;" horiz-adv-x="860" d="M311 1152.5q-4 5.5 2 14.5l160 246q12 21 33 21h31q9 0 12.5 -7t-2.5 -14l-174 -246q-15 -20 -35 -20h-14q-9 0 -13 5.5z" />
<glyph unicode="&#xb6;" horiz-adv-x="1110" d="M164 973q0 186 117 303t331 117h293q9 0 15 -6t6 -15v-1720q0 -9 -6 -15t-15 -6h-20q-9 0 -15 6t-6 15v1671q0 12 -12 12h-221q-13 0 -13 -12v-1671q0 -21 -20 -21h-20q-9 0 -15 6t-6 15v901q-182 10 -287.5 126t-105.5 294z" />
<glyph unicode="&#xb7;" horiz-adv-x="417" d="M160 494v102q0 20 20 20h58q20 0 20 -20v-102q0 -21 -20 -21h-58q-20 0 -20 21z" />
<glyph unicode="&#xb8;" horiz-adv-x="860" d="M352 -276l107 276q9 20 26 20h17q9 0 13 -5.5t1 -14.5l-94 -276q-8 -21 -33 -21h-22q-9 0 -13.5 6t-1.5 15z" />
<glyph unicode="&#xb9;" horiz-adv-x="663" d="M152 1548v23q0 20 14 28l143 101q18 12 31 12h16q21 0 21 -20v-791q0 -20 -21 -20h-16q-21 0 -21 20v739h-2l-145 -102q-8 -5 -14 -2t-6 12z" />
<glyph unicode="&#xba;" horiz-adv-x="700" d="M102 1098q0 83 21 151q52 158 227 158q176 0 228 -158q20 -65 20 -151q0 -87 -20 -152q-52 -158 -228 -158q-175 0 -227 158q-21 68 -21 152zM160 1098q0 -81 18 -133q40 -123 172 -123t172 123q19 55 19 133t-19 133q-40 123 -172 123t-172 -123q-18 -53 -18 -133z" />
<glyph unicode="&#xbb;" horiz-adv-x="1019" d="M164 205v39q0 20 12 32l250 256q8 8 0 17l-250 256q-12 12 -12 33v39q0 9 7 11.5t13 -3.5l324 -330q14 -15 0 -29l-324 -329q-6 -6 -13 -3.5t-7 11.5zM555 205v39q0 20 12 32l250 256q9 8 0 17l-250 256q-12 12 -12 33v39q0 9 7 11.5t13 -3.5l324 -330q6 -6 6 -14.5 t-6 -14.5l-324 -329q-6 -6 -13 -3.5t-7 11.5z" />
<glyph unicode="&#xbc;" horiz-adv-x="1685" d="M164 1229v22q0 21 14 29l144 100q20 13 30 13h17q20 0 20 -21v-790q0 -21 -20 -21h-17q-20 0 -20 21v739h-2l-146 -102q-8 -5 -14 -2t-6 12zM376.5 -14.5q-3.5 5.5 0.5 14.5l805 1393q11 20 28 20h21q9 0 12.5 -5.5t-0.5 -14.5l-805 -1393q-11 -20 -28 -20h-21 q-9 0 -12.5 5.5zM936 193v12q0 18 8 31l281 575q9 20 26 20h23q9 0 12.5 -6.5t-0.5 -13.5l-282 -584v-2h282q12 0 12 13v219q0 20 21 20h16q21 0 21 -20v-219q0 -13 12 -13h92q21 0 21 -20v-12q0 -9 -6 -15t-15 -6h-92q-12 0 -12 -12v-140q0 -20 -21 -20h-16q-21 0 -21 20 v140q0 12 -12 12h-330q-20 0 -20 21z" />
<glyph unicode="&#xbd;" horiz-adv-x="1738" d="M164 1229v22q0 21 14 29l144 100q20 13 30 13h17q20 0 20 -21v-790q0 -21 -20 -21h-17q-20 0 -20 21v739h-2l-146 -102q-8 -5 -14 -2t-6 12zM376.5 -14.5q-3.5 5.5 0.5 14.5l805 1393q11 20 28 20h21q9 0 12.5 -5.5t-0.5 -14.5l-805 -1393q-11 -20 -28 -20h-21 q-9 0 -12.5 5.5zM1049 20v13q0 14 14 28l330 394q75 90 75 172q0 71 -47 117.5t-121 46.5q-69 0 -115 -38t-61 -104q-3 -19 -24 -16l-13 2q-21 3 -18 24q16 80 77.5 132.5t153.5 52.5q105 0 165.5 -62.5t60.5 -154.5q0 -95 -92 -207l-306 -363v-4h385q21 0 21 -20v-13 q0 -20 -21 -20h-444q-20 0 -20 20z" />
<glyph unicode="&#xbe;" horiz-adv-x="1822" d="M207 711q-5 16 12 22l17 6q15 5 24 -12q22 -55 70 -90t121 -35q82 0 133 51.5t51 130.5t-52.5 132t-136.5 53h-32q-21 0 -21 20v12q0 9 6 15t15 6h30q77 0 124.5 46.5t47.5 121.5q0 72 -47 117t-125 45q-133 0 -172 -115q-6 -19 -22 -16l-14 2q-20 3 -17 22 q15 67 72.5 113.5t152.5 46.5q103 0 166.5 -61t63.5 -154q0 -70 -34 -117.5t-83 -73.5v-2q54 -23 94.5 -77t40.5 -136q0 -102 -67.5 -168.5t-173.5 -66.5q-98 0 -159.5 46.5t-84.5 115.5zM513.5 -14.5q-3.5 5.5 0.5 14.5l805 1393q11 20 29 20h20q9 0 12.5 -5.5t-0.5 -14.5 l-805 -1393q-11 -20 -28 -20h-21q-9 0 -12.5 5.5zM1073 193v12q0 18 8 31l281 575q9 20 27 20h22q9 0 12.5 -6.5t-0.5 -13.5l-282 -584v-2h282q13 0 13 13v219q0 20 20 20h17q20 0 20 -20v-219q0 -13 12 -13h92q21 0 21 -20v-12q0 -9 -6 -15t-15 -6h-92q-12 0 -12 -12v-140 q0 -20 -20 -20h-17q-20 0 -20 20v140q0 12 -13 12h-329q-9 0 -15 6t-6 15z" />
<glyph unicode="&#xbf;" horiz-adv-x="899" d="M111 -113q0 88 31 156.5t110 167.5l92 115q50 61 64 100t14 106v78q0 21 20 21h21q20 0 20 -21v-78q0 -67 -15 -114t-56 -99l-93 -114q-90 -111 -118.5 -175t-28.5 -143q0 -129 78 -200.5t199 -71.5q114 0 188.5 68t97.5 194q3 20 25 17l18 -5q20 -3 17 -22 q-21 -136 -113 -222.5t-233 -86.5q-152 0 -245 92.5t-93 236.5zM403 848v102q0 9 6 15t15 6h57q9 0 15 -6t6 -15v-102q0 -9 -6 -15t-15 -6h-57q-9 0 -15 6t-6 15z" />
<glyph unicode="&#xc0;" horiz-adv-x="1202" d="M76 20l491 1352q7 21 23 21h26q16 0 23 -21l487 -1352q3 -9 -1 -14.5t-13 -5.5h-29q-19 0 -26 20l-135 379h-641l-138 -379q-7 -20 -26 -20h-27q-9 0 -13 5.5t-1 14.5zM301 459h598l-295 825h-4zM385.5 1812.5q2.5 6.5 11.5 6.5h31q17 0 35 -21l164 -211q7 -9 4 -14.5 t-13 -5.5h-14q-12 0 -18.5 3.5t-18.5 16.5l-178 211q-6 8 -3.5 14.5z" />
<glyph unicode="&#xc1;" horiz-adv-x="1202" d="M76 20l491 1352q7 21 23 21h26q16 0 23 -21l487 -1352q3 -9 -1 -14.5t-13 -5.5h-29q-19 0 -26 20l-135 379h-641l-138 -379q-7 -20 -26 -20h-27q-9 0 -13 5.5t-1 14.5zM301 459h598l-295 825h-4zM569 1572.5q-3 5.5 4 14.5l164 211q18 21 35 21h31q9 0 11.5 -6.5 t-3.5 -14.5l-178 -211q-12 -13 -18.5 -16.5t-18.5 -3.5h-14q-10 0 -13 5.5z" />
<glyph unicode="&#xc2;" horiz-adv-x="1202" d="M76 20l491 1352q7 21 23 21h26q16 0 23 -21l487 -1352q3 -9 -1 -14.5t-13 -5.5h-29q-19 0 -26 20l-135 379h-641l-138 -379q-7 -20 -26 -20h-27q-9 0 -13 5.5t-1 14.5zM301 459h598l-295 825h-4zM381.5 1553q-2.5 7 3.5 14l178 248q13 18 29 18h16q16 0 29 -18l178 -248 q6 -7 3.5 -14t-11.5 -7h-16q-17 0 -33 21l-156 200h-4l-156 -200q-16 -21 -32 -21h-17q-9 0 -11.5 7z" />
<glyph unicode="&#xc3;" horiz-adv-x="1202" d="M76 20l491 1352q7 21 23 21h26q16 0 23 -21l487 -1352q3 -9 -1 -14.5t-13 -5.5h-29q-19 0 -26 20l-135 379h-641l-138 -379q-7 -20 -26 -20h-27q-9 0 -13 5.5t-1 14.5zM301 459h598l-295 825h-4zM365 1642v31q0 15 14 29q54 57 117 57q49 0 116 -43q57 -37 95 -37 q49 0 112 70q6 6 11.5 4t5.5 -10v-31q0 -14 -15 -29q-54 -57 -116 -57q-46 0 -117 43q-60 37 -94 37q-50 0 -113 -70q-6 -6 -11 -4t-5 10z" />
<glyph unicode="&#xc4;" horiz-adv-x="1202" d="M76 20l491 1352q7 21 23 21h26q16 0 23 -21l487 -1352q3 -9 -1 -14.5t-13 -5.5h-29q-19 0 -26 20l-135 379h-641l-138 -379q-7 -20 -26 -20h-27q-9 0 -13 5.5t-1 14.5zM301 459h598l-295 825h-4zM350 1649v82q0 20 21 20h49q20 0 20 -20v-82q0 -21 -20 -21h-49 q-9 0 -15 6t-6 15zM760 1649v82q0 20 20 20h49q21 0 21 -20v-82q0 -9 -6 -15t-15 -6h-49q-20 0 -20 21z" />
<glyph unicode="&#xc5;" horiz-adv-x="1202" d="M76 20l491 1352q7 21 23 21h26q16 0 23 -21l487 -1352q3 -9 -1 -14.5t-13 -5.5h-29q-19 0 -26 20l-135 379h-641l-138 -379q-7 -20 -26 -20h-27q-9 0 -13 5.5t-1 14.5zM301 459h598l-295 825h-4zM430 1698q0 74 48 122t122 48t122 -48t48 -122t-48 -122t-122 -48t-122 48 t-48 122zM485 1698q0 -51 32 -84t83 -33t83 33t32 84t-32 84t-83 33t-83 -33t-32 -84z" />
<glyph unicode="&#xc6;" horiz-adv-x="1941" d="M76 6q-3 6 2 14l897 1356q11 17 31 17h804q9 0 15 -6t6 -15v-18q0 -9 -6 -15t-15 -6h-710q-13 0 -13 -12v-571q0 -13 13 -13h614q21 0 21 -20v-19q0 -20 -21 -20h-614q-13 0 -13 -12v-594q0 -13 13 -13h710q21 0 21 -20v-19q0 -20 -21 -20h-766q-20 0 -20 20v367 q0 12 -12 12h-611l-251 -379q-12 -20 -31 -20h-31q-9 0 -12 6zM440 459h572q12 0 12 12v856h-6z" />
<glyph unicode="&#xc7;" horiz-adv-x="1122" d="M143 696q0 307 37 420q98 297 420 297q280 0 397 -237q11 -18 -4 -27l-20 -10q-16 -10 -27 8q-114 207 -346 207q-139 0 -227 -62.5t-131 -191.5q-35 -107 -35 -404q0 -296 35 -403q43 -129 131 -191.5t227 -62.5q232 0 346 207q11 18 27 8l20 -10q15 -9 4 -27 q-110 -219 -362 -235l-86 -258q-8 -21 -33 -21h-22q-9 0 -13.5 6t-1.5 15l99 256q-306 12 -398 296q-37 113 -37 420z" />
<glyph unicode="&#xc8;" horiz-adv-x="1126" d="M209 20v1352q0 21 20 21h766q9 0 15 -6t6 -15v-18q0 -9 -6 -15t-15 -6h-710q-13 0 -13 -12v-571q0 -13 13 -13h614q21 0 21 -20v-19q0 -20 -21 -20h-614q-13 0 -13 -12v-594q0 -13 13 -13h710q21 0 21 -20v-19q0 -20 -21 -20h-766q-20 0 -20 20zM418.5 1812.5 q2.5 6.5 11.5 6.5h31q17 0 35 -21l163 -211q7 -9 4 -14.5t-12 -5.5h-14q-12 0 -18.5 3.5t-18.5 16.5l-178 211q-6 8 -3.5 14.5z" />
<glyph unicode="&#xc9;" horiz-adv-x="1126" d="M209 20v1352q0 21 20 21h766q9 0 15 -6t6 -15v-18q0 -9 -6 -15t-15 -6h-710q-13 0 -13 -12v-571q0 -13 13 -13h614q21 0 21 -20v-19q0 -20 -21 -20h-614q-13 0 -13 -12v-594q0 -13 13 -13h710q21 0 21 -20v-19q0 -20 -21 -20h-766q-20 0 -20 20zM535 1572.5 q-3 5.5 4 14.5l163 211q18 21 35 21h31q9 0 11.5 -6.5t-3.5 -14.5l-178 -211q-12 -13 -18.5 -16.5t-18.5 -3.5h-14q-9 0 -12 5.5z" />
<glyph unicode="&#xca;" horiz-adv-x="1126" d="M209 20v1352q0 21 20 21h766q9 0 15 -6t6 -15v-18q0 -9 -6 -15t-15 -6h-710q-13 0 -13 -12v-571q0 -13 13 -13h614q21 0 21 -20v-19q0 -20 -21 -20h-614q-13 0 -13 -12v-594q0 -13 13 -13h710q21 0 21 -20v-19q0 -20 -21 -20h-766q-20 0 -20 20zM391.5 1553 q-2.5 7 3.5 14l178 248q13 18 29 18h16q16 0 29 -18l178 -248q6 -7 3.5 -14t-11.5 -7h-16q-17 0 -33 21l-156 200h-4l-155 -200q-16 -21 -33 -21h-17q-9 0 -11.5 7z" />
<glyph unicode="&#xcb;" horiz-adv-x="1126" d="M209 20v1352q0 21 20 21h766q9 0 15 -6t6 -15v-18q0 -9 -6 -15t-15 -6h-710q-13 0 -13 -12v-571q0 -13 13 -13h614q21 0 21 -20v-19q0 -20 -21 -20h-614q-13 0 -13 -12v-594q0 -13 13 -13h710q21 0 21 -20v-19q0 -20 -21 -20h-766q-20 0 -20 20zM350 1649v82q0 20 21 20 h49q20 0 20 -20v-82q0 -21 -20 -21h-49q-9 0 -15 6t-6 15zM760 1649v82q0 20 20 20h49q21 0 21 -20v-82q0 -9 -6 -15t-15 -6h-49q-20 0 -20 21z" />
<glyph unicode="&#xcc;" horiz-adv-x="481" d="M33.5 1812.5q2.5 6.5 11.5 6.5h31q17 0 35 -21l163 -211q7 -9 4.5 -14.5t-12.5 -5.5h-14q-12 0 -18.5 3.5t-18.5 16.5l-178 211q-6 8 -3.5 14.5zM209 20v1352q0 21 20 21h23q20 0 20 -21v-1352q0 -20 -20 -20h-23q-20 0 -20 20z" />
<glyph unicode="&#xcd;" horiz-adv-x="481" d="M205 1572.5q-3 5.5 4 14.5l164 211q18 21 35 21h30q9 0 11.5 -6.5t-3.5 -14.5l-178 -211q-12 -13 -18.5 -16.5t-18.5 -3.5h-14q-9 0 -12 5.5zM209 20v1352q0 21 20 21h23q20 0 20 -21v-1352q0 -20 -20 -20h-23q-20 0 -20 20z" />
<glyph unicode="&#xce;" horiz-adv-x="481" d="M21.5 1553q-2.5 7 3.5 14l178 248q13 18 28 18h17q15 0 28 -18l179 -248q6 -7 3 -14t-12 -7h-16q-17 0 -33 21l-155 200h-4l-156 -200q-16 -21 -33 -21h-16q-9 0 -11.5 7zM209 20v1352q0 21 20 21h23q20 0 20 -21v-1352q0 -20 -20 -20h-23q-20 0 -20 20z" />
<glyph unicode="&#xcf;" horiz-adv-x="481" d="M-10 1649v82q0 20 20 20h49q21 0 21 -20v-82q0 -9 -6 -15t-15 -6h-49q-20 0 -20 21zM209 20v1352q0 21 20 21h23q20 0 20 -21v-1352q0 -20 -20 -20h-23q-20 0 -20 20zM399 1649v82q0 20 21 20h49q20 0 20 -20v-82q0 -21 -20 -21h-49q-9 0 -15 6t-6 15z" />
<glyph unicode="&#xd0;" horiz-adv-x="1273" d="M82 698v17q0 20 20 20h95q12 0 12 13v624q0 21 20 21h410q349 0 436 -271q23 -69 31 -153t8 -273t-8 -273t-31 -153q-87 -270 -436 -270h-410q-20 0 -20 20v646q0 12 -12 12h-95q-20 0 -20 20zM272 72q0 -13 13 -13h354q302 0 375 226q21 64 29 146.5t8 264.5t-8 265 t-29 147q-73 225 -375 225h-354q-13 0 -13 -12v-573q0 -13 13 -13h297q20 0 20 -20v-17q0 -20 -20 -20h-297q-13 0 -13 -12v-594z" />
<glyph unicode="&#xd1;" horiz-adv-x="1327" d="M209 20v1352q0 21 20 21h19q23 0 35 -21l766 -1235h6v1235q0 21 20 21h23q20 0 20 -21v-1352q0 -20 -20 -20h-19q-24 0 -35 20l-765 1235h-7v-1235q0 -20 -20 -20h-23q-20 0 -20 20zM428 1642v31q0 15 14 29q54 57 117 57q50 0 117 -43q57 -37 94 -37q50 0 113 70 q6 6 11 4t5 -10v-31q0 -15 -14 -29q-54 -57 -117 -57q-46 0 -117 43q-60 37 -94 37q-50 0 -113 -70q-6 -6 -11 -4t-5 10z" />
<glyph unicode="&#xd2;" horiz-adv-x="1232" d="M143 696q0 289 41 414q99 303 432 303q334 0 433 -303q41 -125 41 -414q0 -288 -41 -413q-99 -303 -433 -303q-333 0 -432 303q-41 125 -41 413zM207 696q0 -278 39 -397q86 -260 370 -260q285 0 371 260q39 119 39 397q0 279 -39 398q-86 260 -371 260q-284 0 -370 -260 q-39 -119 -39 -398zM426.5 1812.5q2.5 6.5 11.5 6.5h31q17 0 35 -21l164 -211q7 -9 4 -14.5t-13 -5.5h-14q-12 0 -18.5 3.5t-18.5 16.5l-178 211q-6 8 -3.5 14.5z" />
<glyph unicode="&#xd3;" horiz-adv-x="1232" d="M143 696q0 289 41 414q99 303 432 303q334 0 433 -303q41 -125 41 -414q0 -288 -41 -413q-99 -303 -433 -303q-333 0 -432 303q-41 125 -41 413zM207 696q0 -278 39 -397q86 -260 370 -260q285 0 371 260q39 119 39 397q0 279 -39 398q-86 260 -371 260q-284 0 -370 -260 q-39 -119 -39 -398zM561 1572.5q-3 5.5 4 14.5l164 211q18 21 35 21h31q9 0 11.5 -6.5t-3.5 -14.5l-178 -211q-12 -13 -18.5 -16.5t-18.5 -3.5h-15q-9 0 -12 5.5z" />
<glyph unicode="&#xd4;" horiz-adv-x="1232" d="M143 696q0 289 41 414q99 303 432 303q334 0 433 -303q41 -125 41 -414q0 -288 -41 -413q-99 -303 -433 -303q-333 0 -432 303q-41 125 -41 413zM207 696q0 -278 39 -397q86 -260 370 -260q285 0 371 260q39 119 39 397q0 279 -39 398q-86 260 -371 260q-284 0 -370 -260 q-39 -119 -39 -398zM398 1553q-3 7 3 14l179 248q13 18 28 18h17q15 0 28 -18l178 -248q6 -7 3.5 -14t-11.5 -7h-16q-17 0 -33 21l-156 200h-4l-155 -200q-16 -21 -33 -21h-16q-9 0 -12 7z" />
<glyph unicode="&#xd5;" horiz-adv-x="1232" d="M143 696q0 289 41 414q99 303 432 303q334 0 433 -303q41 -125 41 -414q0 -288 -41 -413q-99 -303 -433 -303q-333 0 -432 303q-41 125 -41 413zM207 696q0 -278 39 -397q86 -260 370 -260q285 0 371 260q39 119 39 397q0 279 -39 398q-86 260 -371 260q-284 0 -370 -260 q-39 -119 -39 -398zM381 1642v31q0 15 14 29q54 57 117 57q50 0 117 -43q57 -37 94 -37q50 0 113 70q6 6 11 4t5 -10v-31q0 -15 -14 -29q-54 -57 -117 -57q-46 0 -117 43q-60 37 -94 37q-50 0 -113 -70q-6 -6 -11 -4t-5 10z" />
<glyph unicode="&#xd6;" horiz-adv-x="1232" d="M143 696q0 289 41 414q99 303 432 303q334 0 433 -303q41 -125 41 -414q0 -288 -41 -413q-99 -303 -433 -303q-333 0 -432 303q-41 125 -41 413zM207 696q0 -278 39 -397q86 -260 370 -260q285 0 371 260q39 119 39 397q0 279 -39 398q-86 260 -371 260q-284 0 -370 -260 q-39 -119 -39 -398zM367 1649v82q0 20 20 20h49q21 0 21 -20v-82q0 -9 -6 -15t-15 -6h-49q-20 0 -20 21zM776 1649v82q0 20 21 20h49q20 0 20 -20v-82q0 -21 -20 -21h-49q-9 0 -15 6t-6 15z" />
<glyph unicode="&#xd7;" d="M209 272.5q0 8.5 6 14.5l270 270q8 8 0 16l-270 271q-14 14 0 28l12 13q6 6 14.5 6t14.5 -6l270 -271q8 -8 17 0l270 271q6 6 14.5 6t14.5 -6l12 -13q14 -14 0 -28l-270 -271q-8 -8 0 -16l270 -270q14 -15 0 -29l-12 -12q-14 -14 -29 0l-270 270q-9 8 -17 0l-270 -270 q-14 -14 -29 0l-12 12q-6 6 -6 14.5z" />
<glyph unicode="&#xd8;" horiz-adv-x="1232" d="M143 696q0 289 41 414q99 303 432 303q194 0 312 -106l71 127q10 20 29 20h21q9 0 12.5 -5.5t-0.5 -14.5l-94 -168q50 -61 82 -156q41 -125 41 -414q0 -288 -41 -413q-99 -303 -433 -303q-196 0 -311 106l-72 -127q-10 -20 -28 -20h-21q-9 0 -12.5 5.5t0.5 14.5l94 168 q-56 69 -82 156q-41 125 -41 413zM207 696q0 -278 39 -397q24 -74 53 -113l596 1063q-102 105 -279 105q-284 0 -370 -260q-39 -119 -39 -398zM336 143q101 -104 280 -104q285 0 371 260q39 119 39 397q0 279 -39 398q-23 66 -55 110z" />
<glyph unicode="&#xd9;" horiz-adv-x="1294" d="M193 477v895q0 21 20 21h23q20 0 20 -21v-897q0 -218 100 -327t291 -109q192 0 291.5 109t99.5 327v897q0 9 6 15t15 6h22q9 0 15 -6t6 -15v-895q0 -248 -116.5 -372.5t-338.5 -124.5q-223 0 -338.5 123.5t-115.5 373.5zM455.5 1812.5q2.5 6.5 11.5 6.5h31q16 0 34 -21 l164 -211q7 -9 4.5 -14.5t-12.5 -5.5h-14q-12 0 -18.5 3.5t-18.5 16.5l-178 211q-6 8 -3.5 14.5z" />
<glyph unicode="&#xda;" horiz-adv-x="1294" d="M193 477v895q0 21 20 21h23q20 0 20 -21v-897q0 -218 100 -327t291 -109q192 0 291.5 109t99.5 327v897q0 9 6 15t15 6h22q9 0 15 -6t6 -15v-895q0 -248 -116.5 -372.5t-338.5 -124.5q-223 0 -338.5 123.5t-115.5 373.5zM587.5 1572.5q-2.5 5.5 4.5 14.5l164 211 q18 21 35 21h30q9 0 11.5 -6.5t-3.5 -14.5l-178 -211q-12 -13 -18.5 -16.5t-18.5 -3.5h-14q-10 0 -12.5 5.5z" />
<glyph unicode="&#xdb;" horiz-adv-x="1294" d="M193 477v895q0 21 20 21h23q20 0 20 -21v-897q0 -218 100 -327t291 -109q192 0 291.5 109t99.5 327v897q0 9 6 15t15 6h22q9 0 15 -6t6 -15v-895q0 -248 -116.5 -372.5t-338.5 -124.5q-223 0 -338.5 123.5t-115.5 373.5zM428.5 1553q-2.5 7 3.5 14l178 248q13 18 29 18 h16q16 0 29 -18l178 -248q6 -7 3.5 -14t-11.5 -7h-16q-17 0 -33 21l-156 200h-4l-156 -200q-16 -21 -32 -21h-17q-9 0 -11.5 7z" />
<glyph unicode="&#xdc;" horiz-adv-x="1294" d="M193 477v895q0 21 20 21h23q20 0 20 -21v-897q0 -218 100 -327t291 -109q192 0 291.5 109t99.5 327v897q0 9 6 15t15 6h22q9 0 15 -6t6 -15v-895q0 -248 -116.5 -372.5t-338.5 -124.5q-223 0 -338.5 123.5t-115.5 373.5zM397 1649v82q0 20 21 20h49q20 0 20 -20v-82 q0 -21 -20 -21h-49q-9 0 -15 6t-6 15zM807 1649v82q0 20 20 20h50q20 0 20 -20v-82q0 -21 -20 -21h-50q-20 0 -20 21z" />
<glyph unicode="&#xdd;" horiz-adv-x="1036" d="M63 1368q-5 9 0 17t15 8h24q20 0 31 -21l387 -721h4l379 721q11 21 31 21h24q10 0 15 -8t0 -17l-422 -797v-551q0 -20 -21 -20h-22q-21 0 -21 20v551zM477 1572.5q-3 5.5 4 14.5l164 211q18 21 35 21h31q9 0 11.5 -6.5t-3.5 -14.5l-178 -211q-12 -13 -18.5 -16.5 t-18.5 -3.5h-15q-9 0 -12 5.5z" />
<glyph unicode="&#xde;" horiz-adv-x="1185" d="M209 20v1352q0 21 20 21h23q20 0 20 -21v-280q0 -13 13 -13h385q197 0 306 -99.5t109 -277.5t-109 -277t-306 -99h-385q-13 0 -13 -13v-293q0 -20 -20 -20h-23q-20 0 -20 20zM272 397q0 -12 13 -12h385q172 0 262 82t90 235t-90 235.5t-262 82.5h-385q-13 0 -13 -12v-611 z" />
<glyph unicode="&#xdf;" horiz-adv-x="1097" d="M205 20v1002q0 199 86.5 295t286.5 96q170 0 258 -76.5t88 -208.5q0 -195 -162 -245v-4q120 -41 160 -162q22 -67 22 -268q0 -197 -22 -269q-34 -103 -116 -147.5t-212 -44.5h-19q-20 0 -20 20v17q0 20 20 20h19q111 0 176 36.5t92 119.5q21 65 21 248t-21 251 q-26 82 -91 116t-171 36h-25q-20 0 -20 20v17q0 20 20 20h25q138 0 200 52t62 167q0 109 -72.5 168.5t-211.5 59.5q-170 0 -241 -78t-71 -260v-998q0 -20 -20 -20h-21q-20 0 -20 20z" />
<glyph unicode="&#xe0;" horiz-adv-x="1042" d="M147 262q0 137 92.5 208t268.5 71h268q12 0 12 12v125q0 142 -57 199t-213 57q-173 0 -254 -78q-14 -14 -28 -4l-15 12q-17 14 -2 29q95 98 299 98q179 0 255.5 -68.5t76.5 -244.5v-658q0 -20 -21 -20h-20q-21 0 -21 20v117h-2q-28 -70 -109.5 -113.5t-203.5 -43.5 q-154 0 -240 73.5t-86 208.5zM209 262q0 -107 71 -166t201 -59q135 0 221 70.5t86 179.5v184q0 12 -12 12h-264q-158 0 -230.5 -54.5t-72.5 -166.5zM386.5 1427q3.5 7 12.5 7h31q21 0 33 -21l160 -246q6 -9 2 -14.5t-13 -5.5h-14q-20 0 -35 20l-174 246q-6 7 -2.5 14z" />
<glyph unicode="&#xe1;" horiz-adv-x="1042" d="M147 262q0 137 92.5 208t268.5 71h268q12 0 12 12v125q0 142 -57 199t-213 57q-173 0 -254 -78q-14 -14 -28 -4l-15 12q-17 14 -2 29q95 98 299 98q179 0 255.5 -68.5t76.5 -244.5v-658q0 -20 -21 -20h-20q-21 0 -21 20v117h-2q-28 -70 -109.5 -113.5t-203.5 -43.5 q-154 0 -240 73.5t-86 208.5zM209 262q0 -107 71 -166t201 -59q135 0 221 70.5t86 179.5v184q0 12 -12 12h-264q-158 0 -230.5 -54.5t-72.5 -166.5zM489.5 1152.5q-3.5 5.5 2.5 14.5l159 246q12 21 33 21h31q9 0 12.5 -7t-2.5 -14l-174 -246q-15 -20 -35 -20h-14 q-9 0 -12.5 5.5z" />
<glyph unicode="&#xe2;" horiz-adv-x="1042" d="M147 262q0 137 92.5 208t268.5 71h268q12 0 12 12v125q0 142 -57 199t-213 57q-173 0 -254 -78q-14 -14 -28 -4l-15 12q-17 14 -2 29q95 98 299 98q179 0 255.5 -68.5t76.5 -244.5v-658q0 -20 -21 -20h-20q-21 0 -21 20v117h-2q-28 -70 -109.5 -113.5t-203.5 -43.5 q-154 0 -240 73.5t-86 208.5zM209 262q0 -107 71 -166t201 -59q135 0 221 70.5t86 179.5v184q0 12 -12 12h-264q-158 0 -230.5 -54.5t-72.5 -166.5zM301.5 1153.5q-2.5 6.5 3.5 13.5l178 248q14 19 29 19h16q15 0 29 -19l178 -248q6 -7 3.5 -13.5t-11.5 -6.5h-16 q-18 0 -33 20l-156 201h-4l-156 -201q-15 -20 -32 -20h-17q-9 0 -11.5 6.5z" />
<glyph unicode="&#xe3;" horiz-adv-x="1042" d="M147 262q0 137 92.5 208t268.5 71h268q12 0 12 12v125q0 142 -57 199t-213 57q-173 0 -254 -78q-14 -14 -28 -4l-15 12q-17 14 -2 29q95 98 299 98q179 0 255.5 -68.5t76.5 -244.5v-658q0 -20 -21 -20h-20q-21 0 -21 20v117h-2q-28 -70 -109.5 -113.5t-203.5 -43.5 q-154 0 -240 73.5t-86 208.5zM209 262q0 -107 71 -166t201 -59q135 0 221 70.5t86 179.5v184q0 12 -12 12h-264q-158 0 -230.5 -54.5t-72.5 -166.5zM285 1272v31q0 14 14 28q54 58 117 58q49 0 116 -43q57 -37 95 -37q29 0 54.5 17t57.5 52q6 6 11.5 4t5.5 -10v-31 q0 -13 -15 -28q-54 -58 -116 -58q-46 0 -117 43q-60 37 -94 37q-50 0 -113 -69q-6 -6 -11 -4t-5 10z" />
<glyph unicode="&#xe4;" horiz-adv-x="1042" d="M147 262q0 137 92.5 208t268.5 71h268q12 0 12 12v125q0 142 -57 199t-213 57q-173 0 -254 -78q-14 -14 -28 -4l-15 12q-17 14 -2 29q95 98 299 98q179 0 255.5 -68.5t76.5 -244.5v-658q0 -20 -21 -20h-20q-21 0 -21 20v117h-2q-28 -70 -109.5 -113.5t-203.5 -43.5 q-154 0 -240 73.5t-86 208.5zM209 262q0 -107 71 -166t201 -59q135 0 221 70.5t86 179.5v184q0 12 -12 12h-264q-158 0 -230.5 -54.5t-72.5 -166.5zM270 1290v82q0 9 6 15t15 6h49q20 0 20 -21v-82q0 -20 -20 -20h-49q-21 0 -21 20zM680 1290v82q0 21 20 21h50q20 0 20 -21 v-82q0 -20 -20 -20h-50q-20 0 -20 20z" />
<glyph unicode="&#xe5;" horiz-adv-x="1042" d="M147 262q0 137 92.5 208t268.5 71h268q12 0 12 12v125q0 142 -57 199t-213 57q-173 0 -254 -78q-14 -14 -28 -4l-15 12q-17 14 -2 29q95 98 299 98q179 0 255.5 -68.5t76.5 -244.5v-658q0 -20 -21 -20h-20q-21 0 -21 20v117h-2q-28 -70 -109.5 -113.5t-203.5 -43.5 q-154 0 -240 73.5t-86 208.5zM209 262q0 -107 71 -166t201 -59q135 0 221 70.5t86 179.5v184q0 12 -12 12h-264q-158 0 -230.5 -54.5t-72.5 -166.5zM354 1288q0 74 48 122t122 48t122 -48t48 -122t-48 -122t-122 -48t-122 48t-48 122zM410 1288q0 -51 31.5 -84t82.5 -33 t83 33t32 84t-32 84t-83 33t-82.5 -33t-31.5 -84z" />
<glyph unicode="&#xe6;" horiz-adv-x="1667" d="M147 262q0 137 92.5 208t268.5 71h268q12 0 12 12v125q0 142 -57 199t-213 57q-173 0 -254 -78q-14 -14 -28 -4l-15 12q-17 14 -2 29q95 98 299 98q145 0 222 -44.5t98 -149.5h2q93 194 321 194q126 0 215.5 -62.5t128.5 -183.5q29 -89 29 -241q0 -21 -23 -21h-649 q-12 0 -12 -14q0 -139 24 -219q71 -213 300 -213q97 0 171 38t121 103q13 17 29 4l12 -10q15 -12 2 -29q-54 -76 -139 -119.5t-196 -43.5q-251 0 -343 210h-2q-78 -210 -356 -210q-154 0 -240 73.5t-86 208.5zM209 262q0 -107 71 -166t201 -59q135 0 221 70.5t86 179.5v184 q0 12 -12 12h-264q-158 0 -230.5 -54.5t-72.5 -166.5zM850 553q0 -12 12 -12h598q13 0 13 12q0 93 -23 170q-33 105 -107.5 158t-181.5 53t-181.5 -53t-107.5 -158q-22 -74 -22 -170z" />
<glyph unicode="&#xe7;" horiz-adv-x="958" d="M133 485q0 152 33 260q37 116 127 181t217 65q228 0 321 -196q10 -19 -10 -29l-14 -6q-18 -7 -27 8q-43 86 -108 126t-162 40q-106 0 -179.5 -54t-105.5 -157q-30 -92 -30 -238q0 -145 30 -237q32 -103 105.5 -157t179.5 -54q97 0 162 40t108 126q9 15 27 8l14 -6 q20 -10 10 -29q-83 -176 -276 -194l-88 -258q-8 -21 -33 -21h-22q-9 0 -13.5 6t-1.5 15l99 256q-123 4 -209 68t-121 177q-33 108 -33 260z" />
<glyph unicode="&#xe8;" horiz-adv-x="1011" d="M133 487q0 169 29 258q39 120 128.5 183t215.5 63t215.5 -62.5t128.5 -183.5q29 -89 29 -241q0 -21 -23 -21h-649q-12 0 -12 -14q0 -139 24 -219q71 -213 299 -213q97 0 171.5 38t121.5 103q13 17 29 4l12 -10q15 -12 2 -29q-53 -75 -139 -119t-197 -44q-276 0 -356 249 q-29 92 -29 258zM195 553q0 -12 12 -12h598q12 0 12 12q0 96 -22 170q-33 105 -107.5 158t-181.5 53t-181.5 -53t-107.5 -158q-22 -74 -22 -170zM319.5 1427q3.5 7 12.5 7h30q21 0 33 -21l160 -246q6 -9 2.5 -14.5t-12.5 -5.5h-15q-19 0 -34 20l-174 246q-6 7 -2.5 14z" />
<glyph unicode="&#xe9;" horiz-adv-x="1011" d="M133 487q0 169 29 258q39 120 128.5 183t215.5 63t215.5 -62.5t128.5 -183.5q29 -89 29 -241q0 -21 -23 -21h-649q-12 0 -12 -14q0 -139 24 -219q71 -213 299 -213q97 0 171.5 38t121.5 103q13 17 29 4l12 -10q15 -12 2 -29q-53 -75 -139 -119t-197 -44q-276 0 -356 249 q-29 92 -29 258zM195 553q0 -12 12 -12h598q12 0 12 12q0 96 -22 170q-33 105 -107.5 158t-181.5 53t-181.5 -53t-107.5 -158q-22 -74 -22 -170zM460.5 1152.5q-3.5 5.5 2.5 14.5l160 246q12 21 32 21h31q9 0 12.5 -7t-2.5 -14l-174 -246q-15 -20 -35 -20h-14 q-9 0 -12.5 5.5z" />
<glyph unicode="&#xea;" horiz-adv-x="1011" d="M133 487q0 169 29 258q39 120 128.5 183t215.5 63t215.5 -62.5t128.5 -183.5q29 -89 29 -241q0 -21 -23 -21h-649q-12 0 -12 -14q0 -139 24 -219q71 -213 299 -213q97 0 171.5 38t121.5 103q13 17 29 4l12 -10q15 -12 2 -29q-53 -75 -139 -119t-197 -44q-276 0 -356 249 q-29 92 -29 258zM195 553q0 -12 12 -12h598q12 0 12 12q0 96 -22 170q-33 105 -107.5 158t-181.5 53t-181.5 -53t-107.5 -158q-22 -74 -22 -170zM287.5 1153.5q-2.5 6.5 3.5 13.5l178 248q14 19 29 19h16q15 0 29 -19l178 -248q6 -7 3.5 -13.5t-11.5 -6.5h-17q-17 0 -32 20 l-156 201h-4l-156 -201q-15 -20 -33 -20h-16q-9 0 -11.5 6.5z" />
<glyph unicode="&#xeb;" horiz-adv-x="1011" d="M133 487q0 169 29 258q39 120 128.5 183t215.5 63t215.5 -62.5t128.5 -183.5q29 -89 29 -241q0 -21 -23 -21h-649q-12 0 -12 -14q0 -139 24 -219q71 -213 299 -213q97 0 171.5 38t121.5 103q13 17 29 4l12 -10q15 -12 2 -29q-53 -75 -139 -119t-197 -44q-276 0 -356 249 q-29 92 -29 258zM195 553q0 -12 12 -12h598q12 0 12 12q0 96 -22 170q-33 105 -107.5 158t-181.5 53t-181.5 -53t-107.5 -158q-22 -74 -22 -170zM256 1290v82q0 21 20 21h50q20 0 20 -21v-82q0 -20 -20 -20h-50q-20 0 -20 20zM666 1290v82q0 21 20 21h49q9 0 15 -6t6 -15 v-82q0 -20 -21 -20h-49q-20 0 -20 20z" />
<glyph unicode="&#xec;" horiz-adv-x="471" d="M36.5 1427q3.5 7 12.5 7h31q21 0 33 -21l159 -246q6 -9 2.5 -14.5t-12.5 -5.5h-14q-20 0 -35 20l-174 246q-6 7 -2.5 14zM205 20v930q0 21 20 21h21q20 0 20 -21v-930q0 -20 -20 -20h-21q-20 0 -20 20z" />
<glyph unicode="&#xed;" horiz-adv-x="471" d="M196.5 1152.5q-3.5 5.5 2.5 14.5l159 246q12 21 33 21h31q9 0 12.5 -7t-2.5 -14l-174 -246q-15 -20 -35 -20h-14q-9 0 -12.5 5.5zM205 20v930q0 21 20 21h21q20 0 20 -21v-930q0 -20 -20 -20h-21q-20 0 -20 20z" />
<glyph unicode="&#xee;" horiz-adv-x="471" d="M17 1153.5q-3 6.5 3 13.5l179 248q14 19 28 19h17q14 0 28 -19l179 -248q6 -7 3 -13.5t-12 -6.5h-16q-18 0 -33 20l-155 201h-5l-155 -201q-15 -20 -33 -20h-16q-9 0 -12 6.5zM205 20v930q0 21 20 21h21q20 0 20 -21v-930q0 -20 -20 -20h-21q-20 0 -20 20z" />
<glyph unicode="&#xef;" horiz-adv-x="471" d="M-14 1290v82q0 21 20 21h49q9 0 15 -6t6 -15v-82q0 -20 -21 -20h-49q-20 0 -20 20zM205 20v930q0 21 20 21h21q20 0 20 -21v-930q0 -20 -20 -20h-21q-20 0 -20 20zM395 1290v82q0 9 6 15t15 6h49q20 0 20 -21v-82q0 -20 -20 -20h-49q-21 0 -21 20z" />
<glyph unicode="&#xf0;" horiz-adv-x="1028" d="M133 485q0 156 33 260q38 117 126.5 181.5t207.5 64.5q60 0 106 -15t99 -52h2l-205 247l-197 -59q-10 -3 -18.5 1.5t-10.5 12.5l-2 13q-3 17 17 24l174 51l-133 158q-6 8 -3.5 14.5t11.5 6.5h35q17 0 35 -21l114 -139l195 57q22 6 26 -12l3 -12q3 -19 -15 -25l-170 -51 l88 -107q137 -163 190.5 -288t53.5 -289q0 -177 -33 -281q-38 -117 -128.5 -181t-219.5 -64t-219.5 64t-128.5 181q-33 104 -33 260zM195 485q0 -150 28 -239q32 -100 108.5 -154.5t182.5 -54.5t182.5 54.5t108.5 154.5q29 92 29 239q0 145 -31 236q-32 100 -108 156.5 t-181 56.5q-106 0 -182.5 -54.5t-108.5 -154.5q-28 -89 -28 -240z" />
<glyph unicode="&#xf1;" horiz-adv-x="1101" d="M205 20v930q0 21 20 21h21q20 0 20 -21v-137h2q37 84 115.5 131t183.5 47q166 0 254 -94.5t88 -280.5v-596q0 -20 -20 -20h-21q-20 0 -20 20v582q0 170 -70.5 251t-214.5 81q-126 0 -211.5 -81.5t-85.5 -219.5v-613q0 -20 -20 -20h-21q-20 0 -20 20zM315 1272v31 q0 13 15 28q54 58 116 58q50 0 117 -43q57 -37 94 -37q50 0 113 69q6 6 11 4t5 -10v-31q0 -14 -14 -28q-54 -58 -117 -58q-45 0 -116 43q-60 37 -95 37q-29 0 -54.5 -17t-57.5 -52q-6 -6 -11.5 -4t-5.5 10z" />
<glyph unicode="&#xf2;" horiz-adv-x="1028" d="M133 485q0 156 33 260q38 117 128.5 181.5t219.5 64.5t219.5 -64.5t128.5 -181.5q33 -104 33 -260t-33 -260q-38 -117 -128.5 -181t-219.5 -64t-219.5 64t-128.5 181q-33 104 -33 260zM195 485q0 -150 28 -239q32 -100 108.5 -154.5t182.5 -54.5t182.5 54.5t108.5 154.5 q29 92 29 239q0 148 -29 240q-32 100 -108.5 154.5t-182.5 54.5t-182.5 -54.5t-108.5 -154.5q-28 -89 -28 -240zM325.5 1427q3.5 7 12.5 7h31q20 0 32 -21l160 -246q6 -9 2.5 -14.5t-12.5 -5.5h-14q-20 0 -35 20l-174 246q-6 7 -2.5 14z" />
<glyph unicode="&#xf3;" horiz-adv-x="1028" d="M133 485q0 156 33 260q38 117 128.5 181.5t219.5 64.5t219.5 -64.5t128.5 -181.5q33 -104 33 -260t-33 -260q-38 -117 -128.5 -181t-219.5 -64t-219.5 64t-128.5 181q-33 104 -33 260zM195 485q0 -150 28 -239q32 -100 108.5 -154.5t182.5 -54.5t182.5 54.5t108.5 154.5 q29 92 29 239q0 148 -29 240q-32 100 -108.5 154.5t-182.5 54.5t-182.5 -54.5t-108.5 -154.5q-28 -89 -28 -240zM464.5 1152.5q-3.5 5.5 2.5 14.5l160 246q12 21 32 21h31q9 0 12.5 -7t-2.5 -14l-174 -246q-15 -20 -34 -20h-15q-9 0 -12.5 5.5z" />
<glyph unicode="&#xf4;" horiz-adv-x="1028" d="M133 485q0 156 33 260q38 117 128.5 181.5t219.5 64.5t219.5 -64.5t128.5 -181.5q33 -104 33 -260t-33 -260q-38 -117 -128.5 -181t-219.5 -64t-219.5 64t-128.5 181q-33 104 -33 260zM195 485q0 -150 28 -239q32 -100 108.5 -154.5t182.5 -54.5t182.5 54.5t108.5 154.5 q29 92 29 239q0 148 -29 240q-32 100 -108.5 154.5t-182.5 54.5t-182.5 -54.5t-108.5 -154.5q-28 -89 -28 -240zM295.5 1153.5q-2.5 6.5 3.5 13.5l178 248q14 19 29 19h16q15 0 29 -19l178 -248q6 -7 3.5 -13.5t-11.5 -6.5h-16q-18 0 -33 20l-156 201h-4l-156 -201 q-15 -20 -32 -20h-17q-9 0 -11.5 6.5z" />
<glyph unicode="&#xf5;" horiz-adv-x="1028" d="M133 485q0 156 33 260q38 117 128.5 181.5t219.5 64.5t219.5 -64.5t128.5 -181.5q33 -104 33 -260t-33 -260q-38 -117 -128.5 -181t-219.5 -64t-219.5 64t-128.5 181q-33 104 -33 260zM195 485q0 -150 28 -239q32 -100 108.5 -154.5t182.5 -54.5t182.5 54.5t108.5 154.5 q29 92 29 239q0 148 -29 240q-32 100 -108.5 154.5t-182.5 54.5t-182.5 -54.5t-108.5 -154.5q-28 -89 -28 -240zM279 1272v31q0 14 14 28q54 58 117 58q49 0 116 -43q57 -37 95 -37q29 0 54.5 17t57.5 52q6 6 11.5 4t5.5 -10v-31q0 -13 -15 -28q-54 -58 -117 -58 q-45 0 -116 43q-60 37 -94 37q-50 0 -113 -69q-6 -6 -11 -4t-5 10z" />
<glyph unicode="&#xf6;" horiz-adv-x="1028" d="M133 485q0 156 33 260q38 117 128.5 181.5t219.5 64.5t219.5 -64.5t128.5 -181.5q33 -104 33 -260t-33 -260q-38 -117 -128.5 -181t-219.5 -64t-219.5 64t-128.5 181q-33 104 -33 260zM195 485q0 -150 28 -239q32 -100 108.5 -154.5t182.5 -54.5t182.5 54.5t108.5 154.5 q29 92 29 239q0 148 -29 240q-32 100 -108.5 154.5t-182.5 54.5t-182.5 -54.5t-108.5 -154.5q-28 -89 -28 -240zM264 1290v82q0 9 6 15t15 6h49q20 0 20 -21v-82q0 -20 -20 -20h-49q-21 0 -21 20zM674 1290v82q0 21 20 21h49q9 0 15 -6t6 -15v-82q0 -20 -21 -20h-49 q-20 0 -20 20z" />
<glyph unicode="&#xf7;" d="M141 557v16q0 9 6 15t15 6h745q9 0 15 -6t6 -15v-16q0 -20 -21 -20h-745q-21 0 -21 20zM467 295q0 28 20 47.5t48 19.5t47.5 -19.5t19.5 -47.5t-19.5 -48t-47.5 -20t-48 20t-20 48zM467 836q0 28 20 47.5t48 19.5t47.5 -19.5t19.5 -47.5t-19.5 -48t-47.5 -20t-48 20 t-20 48z" />
<glyph unicode="&#xf8;" horiz-adv-x="1028" d="M133 485q0 156 33 260q38 117 128.5 181.5t219.5 64.5q149 0 244 -86l71 107q13 20 33 20h19q9 0 12 -6t-2 -14l-94 -146q41 -50 65 -121q33 -104 33 -260t-33 -260q-38 -117 -128.5 -181t-219.5 -64q-154 0 -246 83l-69 -104q-13 -20 -33 -20h-19q-9 0 -12 6.5t2 13.5 l94 143q-44 53 -65 123q-33 104 -33 260zM195 485q0 -150 28 -239q13 -45 43 -90l459 698q-83 80 -211 80q-106 0 -182.5 -54.5t-108.5 -154.5q-28 -89 -28 -240zM301 115q81 -78 213 -78q106 0 182.5 54.5t108.5 154.5q29 92 29 239q0 148 -29 240q-13 43 -43 88z" />
<glyph unicode="&#xf9;" horiz-adv-x="1087" d="M186 354v596q0 9 6 15t15 6h20q9 0 15 -6t6 -15v-581q0 -171 68.5 -251.5t211.5 -80.5q125 0 209 81.5t84 219.5v612q0 9 6 15t15 6h20q9 0 15 -6t6 -15v-930q0 -20 -21 -20h-20q-21 0 -21 20v138h-2q-35 -84 -114 -131t-181 -47q-166 0 -252 94t-86 280zM362.5 1427 q3.5 7 12.5 7h31q20 0 32 -21l160 -246q6 -9 2.5 -14.5t-12.5 -5.5h-15q-19 0 -34 20l-174 246q-6 7 -2.5 14z" />
<glyph unicode="&#xfa;" horiz-adv-x="1087" d="M186 354v596q0 9 6 15t15 6h20q9 0 15 -6t6 -15v-581q0 -171 68.5 -251.5t211.5 -80.5q125 0 209 81.5t84 219.5v612q0 9 6 15t15 6h20q9 0 15 -6t6 -15v-930q0 -20 -21 -20h-20q-21 0 -21 20v138h-2q-35 -84 -114 -131t-181 -47q-166 0 -252 94t-86 280zM485 1152.5 q-4 5.5 2 14.5l160 246q12 21 33 21h31q9 0 12.5 -7t-2.5 -14l-174 -246q-15 -20 -35 -20h-14q-9 0 -13 5.5z" />
<glyph unicode="&#xfb;" horiz-adv-x="1087" d="M186 354v596q0 9 6 15t15 6h20q9 0 15 -6t6 -15v-581q0 -171 68.5 -251.5t211.5 -80.5q125 0 209 81.5t84 219.5v612q0 9 6 15t15 6h20q9 0 15 -6t6 -15v-930q0 -20 -21 -20h-20q-21 0 -21 20v138h-2q-35 -84 -114 -131t-181 -47q-166 0 -252 94t-86 280zM324.5 1153.5 q-2.5 6.5 3.5 13.5l178 248q14 19 29 19h16q15 0 29 -19l178 -248q6 -7 3.5 -13.5t-11.5 -6.5h-17q-18 0 -33 20l-155 201h-4l-156 -201q-15 -20 -33 -20h-16q-9 0 -11.5 6.5z" />
<glyph unicode="&#xfc;" horiz-adv-x="1087" d="M186 354v596q0 9 6 15t15 6h20q9 0 15 -6t6 -15v-581q0 -171 68.5 -251.5t211.5 -80.5q125 0 209 81.5t84 219.5v612q0 9 6 15t15 6h20q9 0 15 -6t6 -15v-930q0 -20 -21 -20h-20q-21 0 -21 20v138h-2q-35 -84 -114 -131t-181 -47q-166 0 -252 94t-86 280zM293 1290v82 q0 21 20 21h49q9 0 15 -6t6 -15v-82q0 -20 -21 -20h-49q-20 0 -20 20zM702 1290v82q0 9 6 15t15 6h49q9 0 15 -6t6 -15v-82q0 -20 -21 -20h-49q-21 0 -21 20z" />
<glyph unicode="&#xfd;" horiz-adv-x="942" d="M80 950q-7 21 14 21h25q18 0 26 -21l328 -852h2l322 852q8 21 26 21h25q21 0 14 -21l-407 -1063q-31 -81 -60 -132t-60.5 -78t-63 -36.5t-76.5 -9.5h-33q-9 0 -15 6t-6 15v16q0 9 6 15t15 6h37q67 0 109 42.5t91 172.5l41 108zM423.5 1152.5q-3.5 5.5 2.5 14.5l160 246 q12 21 32 21h31q9 0 12.5 -7t-2.5 -14l-174 -246q-15 -20 -34 -20h-15q-9 0 -12.5 5.5z" />
<glyph unicode="&#xfe;" horiz-adv-x="1075" d="M205 -348v1720q0 21 20 21h21q20 0 20 -21v-563h2q82 182 310 182q256 0 329 -231q35 -106 35 -275q0 -168 -35 -274q-73 -231 -329 -231q-228 0 -310 182h-2v-510q0 -21 -20 -21h-21q-20 0 -20 21zM266 485q0 -169 27 -254q32 -96 104.5 -145t175.5 -49q213 0 277 194 q31 94 31 254t-31 254q-31 95 -101.5 145t-175.5 50q-103 0 -175.5 -49t-104.5 -146q-27 -85 -27 -254z" />
<glyph unicode="&#xff;" horiz-adv-x="942" d="M80 950q-7 21 14 21h25q18 0 26 -21l328 -852h2l322 852q8 21 26 21h25q21 0 14 -21l-407 -1063q-31 -81 -60 -132t-60.5 -78t-63 -36.5t-76.5 -9.5h-33q-9 0 -15 6t-6 15v16q0 9 6 15t15 6h37q67 0 109 42.5t91 172.5l41 108zM221 1290v82q0 9 6 15t15 6h49q20 0 20 -21 v-82q0 -20 -20 -20h-49q-21 0 -21 20zM631 1290v82q0 21 20 21h49q9 0 15 -6t6 -15v-82q0 -20 -21 -20h-49q-20 0 -20 20z" />
<glyph unicode="&#x152;" horiz-adv-x="1943" d="M143 696q0 289 41 414q99 303 432 303q142 0 248 -64t160 -194h2v217q0 9 6 15t15 6h765q9 0 15 -6t6 -15v-18q0 -9 -6 -15t-15 -6h-710q-12 0 -12 -12v-571q0 -13 12 -13h614q21 0 21 -20v-19q0 -20 -21 -20h-614q-12 0 -12 -12v-594q0 -13 12 -13h710q21 0 21 -20v-19 q0 -20 -21 -20h-765q-21 0 -21 20v218h-2q-54 -130 -160 -194t-248 -64q-333 0 -432 303q-41 125 -41 413zM207 696q0 -278 39 -397q86 -260 370 -260q285 0 371 260q39 119 39 397q0 279 -39 398q-86 260 -371 260q-284 0 -370 -260q-39 -119 -39 -398z" />
<glyph unicode="&#x153;" horiz-adv-x="1712" d="M133 485q0 156 33 260q38 117 128.5 181.5t219.5 64.5q127 0 218.5 -63.5t129.5 -179.5h2q41 118 129.5 180.5t212.5 62.5q126 0 215.5 -62.5t128.5 -183.5q29 -89 29 -241q0 -21 -23 -21h-649q-12 0 -12 -14q0 -136 25 -219q71 -213 299 -213q97 0 171 38t121 103 q13 17 29 4l12 -10q15 -12 2 -29q-54 -76 -139 -119.5t-196 -43.5q-132 0 -223 61t-132 180h-2q-38 -116 -128.5 -178.5t-219.5 -62.5t-219.5 64t-128.5 181q-33 104 -33 260zM195 485q0 -150 28 -239q32 -100 108.5 -154.5t182.5 -54.5t182.5 54.5t108.5 154.5 q29 92 29 239q0 148 -29 240q-32 100 -108.5 154.5t-182.5 54.5t-182.5 -54.5t-108.5 -154.5q-28 -89 -28 -240zM895 553q0 -12 12 -12h598q13 0 13 12q0 93 -23 170q-33 105 -107.5 158t-181.5 53t-181 -53t-107 -158q-23 -77 -23 -170z" />
<glyph unicode="&#x178;" horiz-adv-x="1036" d="M63 1368q-5 9 0 17t15 8h24q20 0 31 -21l387 -721h4l379 721q11 21 31 21h24q10 0 15 -8t0 -17l-422 -797v-551q0 -20 -21 -20h-22q-21 0 -21 20v551zM268 1649v82q0 20 21 20h49q20 0 20 -20v-82q0 -21 -20 -21h-49q-9 0 -15 6t-6 15zM678 1649v82q0 20 20 20h50 q20 0 20 -20v-82q0 -21 -20 -21h-50q-20 0 -20 21z" />
<glyph unicode="&#x2c6;" horiz-adv-x="860" d="M211.5 1153.5q-2.5 6.5 3.5 13.5l178 248q14 19 29 19h16q15 0 29 -19l178 -248q6 -7 3.5 -13.5t-11.5 -6.5h-16q-18 0 -33 20l-156 201h-4l-156 -201q-15 -20 -32 -20h-17q-9 0 -11.5 6.5z" />
<glyph unicode="&#x2dc;" horiz-adv-x="860" d="M195 1272v31q0 14 14 28q54 58 117 58q49 0 116 -43q57 -37 95 -37q29 0 54.5 17t57.5 52q6 6 11.5 4t5.5 -10v-31q0 -13 -15 -28q-54 -58 -116 -58q-46 0 -117 43q-60 37 -94 37q-50 0 -113 -69q-6 -6 -11 -4t-5 10z" />
<glyph unicode="&#x2000;" horiz-adv-x="934" />
<glyph unicode="&#x2001;" horiz-adv-x="1868" />
<glyph unicode="&#x2002;" horiz-adv-x="934" />
<glyph unicode="&#x2003;" horiz-adv-x="1868" />
<glyph unicode="&#x2004;" horiz-adv-x="622" />
<glyph unicode="&#x2005;" horiz-adv-x="467" />
<glyph unicode="&#x2006;" horiz-adv-x="311" />
<glyph unicode="&#x2007;" horiz-adv-x="311" />
<glyph unicode="&#x2008;" horiz-adv-x="233" />
<glyph unicode="&#x2009;" horiz-adv-x="373" />
<glyph unicode="&#x200a;" horiz-adv-x="103" />
<glyph unicode="&#x2010;" horiz-adv-x="753" d="M102 539v16q0 20 21 20h508q20 0 20 -20v-16q0 -21 -20 -21h-508q-9 0 -15 6t-6 15z" />
<glyph unicode="&#x2011;" horiz-adv-x="753" d="M102 539v16q0 20 21 20h508q20 0 20 -20v-16q0 -21 -20 -21h-508q-9 0 -15 6t-6 15z" />
<glyph unicode="&#x2012;" horiz-adv-x="753" d="M102 539v16q0 20 21 20h508q20 0 20 -20v-16q0 -21 -20 -21h-508q-9 0 -15 6t-6 15z" />
<glyph unicode="&#x2013;" horiz-adv-x="1019" d="M61 539v16q0 20 21 20h856q20 0 20 -20v-16q0 -21 -20 -21h-856q-9 0 -15 6t-6 15z" />
<glyph unicode="&#x2014;" horiz-adv-x="1667" d="M61 539v16q0 20 21 20h1503q21 0 21 -20v-16q0 -9 -6 -15t-15 -6h-1503q-9 0 -15 6t-6 15z" />
<glyph unicode="&#x2018;" horiz-adv-x="409" d="M164 1120v115q0 23 8 47l37 94q6 19 20 19q17 0 17 -19v-256q0 -20 -21 -20h-41q-20 0 -20 20z" />
<glyph unicode="&#x2019;" horiz-adv-x="409" d="M164 1116v256q0 21 20 21h41q9 0 15 -6t6 -15v-115q0 -23 -8 -47l-37 -94q-6 -18 -21 -18q-16 0 -16 18z" />
<glyph unicode="&#x201a;" horiz-adv-x="409" d="M164 111q0 20 20 20h41q21 0 21 -20v-115q0 -26 -8 -47l-37 -94q-6 -19 -21 -19q-16 0 -16 19v256z" />
<glyph unicode="&#x201c;" horiz-adv-x="663" d="M164 1120v115q0 23 8 47l37 94q6 19 20 19q17 0 17 -19v-256q0 -20 -21 -20h-41q-20 0 -20 20zM418 1120v115q0 23 8 47l37 94q6 19 20 19q17 0 17 -19v-256q0 -20 -21 -20h-41q-20 0 -20 20z" />
<glyph unicode="&#x201d;" horiz-adv-x="663" d="M164 1116v256q0 21 20 21h41q9 0 15 -6t6 -15v-115q0 -26 -8 -47l-37 -96q-5 -16 -21 -16t-16 18zM418 1116v256q0 21 20 21h41q9 0 15 -6t6 -15v-115q0 -23 -8 -47l-37 -94q-6 -18 -21 -18q-16 0 -16 18z" />
<glyph unicode="&#x201e;" horiz-adv-x="663" d="M164 111q0 20 20 20h41q21 0 21 -20v-115q0 -23 -8 -47l-37 -94q-6 -19 -21 -19q-16 0 -16 19v256zM418 111q0 20 20 20h41q21 0 21 -20v-115q0 -23 -8 -47l-37 -94q-6 -19 -21 -19q-16 0 -16 19v256z" />
<glyph unicode="&#x2022;" horiz-adv-x="835" d="M205 631q0 91 61 152t152 61t152 -61t61 -152t-61 -152t-152 -61t-152 61t-61 152z" />
<glyph unicode="&#x2026;" horiz-adv-x="1253" d="M160 20v103q0 20 20 20h58q20 0 20 -20v-103q0 -20 -20 -20h-58q-20 0 -20 20zM578 20v103q0 20 20 20h57q21 0 21 -20v-103q0 -20 -21 -20h-57q-20 0 -20 20zM995 20v103q0 20 21 20h57q21 0 21 -20v-103q0 -20 -21 -20h-57q-21 0 -21 20z" />
<glyph unicode="&#x202f;" horiz-adv-x="373" />
<glyph unicode="&#x2039;" horiz-adv-x="628" d="M115 540.5q0 8.5 6 14.5l323 330q6 6 13.5 3.5t7.5 -11.5v-39q0 -21 -12 -33l-250 -256q-9 -9 0 -17l250 -256q12 -12 12 -32v-39q0 -9 -7.5 -11.5t-13.5 3.5l-323 329q-6 6 -6 14.5z" />
<glyph unicode="&#x203a;" horiz-adv-x="628" d="M164 205v39q0 20 12 32l250 256q8 8 0 17l-250 256q-12 12 -12 33v39q0 9 7 11.5t13 -3.5l324 -330q14 -15 0 -29l-324 -329q-6 -6 -13 -3.5t-7 11.5z" />
<glyph unicode="&#x205f;" horiz-adv-x="467" />
<glyph unicode="&#x20ac;" d="M94 573v15q0 20 21 20h104q12 0 12 13v165q0 13 -12 13h-104q-21 0 -21 20v15q0 20 21 20h104q12 0 12 12q0 212 29 303q39 118 126 181t220 63q132 0 219 -67t127 -168q7 -20 -10 -27l-16 -8q-17 -7 -27 12q-91 201 -293 201q-108 0 -180.5 -51.5t-103.5 -147.5 q-29 -86 -29 -291q0 -12 12 -12h436q21 0 21 -20v-15q0 -20 -21 -20h-436q-12 0 -12 -13v-165q0 -13 12 -13h375q20 0 20 -20v-15q0 -20 -20 -20h-375q-12 0 -12 -12q0 -140 6.5 -198.5t22.5 -106.5q31 -96 103.5 -147.5t180.5 -51.5q202 0 293 201q10 19 27 12l16 -8 q17 -7 10 -27q-40 -101 -127 -168t-219 -67q-133 0 -220 62.5t-126 180.5q-16 51 -22.5 113.5t-6.5 204.5q0 12 -12 12h-104q-21 0 -21 20z" />
<glyph unicode="&#x2122;" horiz-adv-x="1646" d="M82 1362v10q0 21 20 21h551q9 0 15 -6t6 -15v-10q0 -9 -6 -15t-15 -6h-235q-12 0 -12 -12v-723q0 -20 -21 -20h-14q-21 0 -21 20v723q0 12 -12 12h-236q-20 0 -20 21zM827 606v766q0 9 6 15t15 6h22q16 0 25 -17l291 -604h4l287 604q9 17 24 17h23q20 0 20 -21v-766 q0 -20 -20 -20h-15q-20 0 -20 20v662h-4l-268 -553q-9 -17 -23 -17h-16q-14 0 -23 17l-268 553h-4v-662q0 -20 -21 -20h-14q-21 0 -21 20z" />
<glyph unicode="&#x25fc;" horiz-adv-x="972" d="M0 0v973h973v-973h-973z" />
</font>
</defs>
</svg>
