<?xml version="1.0" standalone="no"?>
<!DOCTYPE svg PUBLIC "-//W3C//DTD SVG 1.1//EN" "http://www.w3.org/Graphics/SVG/1.1/DTD/svg11.dtd" >
<svg xmlns="http://www.w3.org/2000/svg">
<metadata></metadata>
<defs>
<font id="din_next_lt_proultraLtIt" horiz-adv-x="1030" >
<font-face units-per-em="2048" ascent="1536" descent="-512" />
<missing-glyph horiz-adv-x="491" />
<glyph unicode="&#xfb01;" horiz-adv-x="1038" d="M152 20l157 887q3 13 -10 13h-115q-19 0 -16 20l2 10q3 21 25 21h114q12 0 15 12l22 133q15 88 35 141t55 84t79.5 41.5t115.5 10.5h41q20 0 16 -21l-2 -10q-3 -21 -24 -21h-35q-115 0 -157.5 -38.5t-66.5 -172.5l-26 -147q-3 -12 10 -12h211q20 0 16 -21l-2 -10 q-3 -20 -24 -20h-211q-9 0 -12 -13l-158 -887q-3 -20 -23 -20h-18q-17 0 -14 20zM707 20l163 930q4 21 23 21h16q9 0 14 -6t3 -15l-164 -930q-3 -20 -23 -20h-16q-19 0 -16 20zM918 1294l14 78q4 21 22 21h45q8 0 12 -6t3 -15l-15 -78q-3 -20 -24 -20h-41q-19 0 -16 20z" />
<glyph unicode="&#xfb02;" horiz-adv-x="1071" d="M152 20l157 887q3 13 -10 13h-115q-19 0 -16 20l2 10q3 21 25 21h114q12 0 15 12l22 133q15 88 35 141t55 84t79.5 41.5t115.5 10.5h41q20 0 16 -21l-2 -10q-3 -21 -24 -21h-35q-115 0 -157.5 -38.5t-66.5 -172.5l-26 -147q-3 -12 10 -12h211q20 0 16 -21l-2 -10 q-3 -20 -24 -20h-211q-9 0 -12 -13l-158 -887q-3 -20 -23 -20h-18q-17 0 -14 20zM735 195l215 1177q4 21 23 21h16q9 0 14 -6t3 -15l-215 -1177q-15 -84 3 -116t78 -32h29q20 0 17 -20l-3 -11q-3 -20 -24 -20h-27q-87 0 -117.5 47t-11.5 152z" />
<glyph unicode="&#xfb03;" horiz-adv-x="1624" d="M152 20l157 887q3 13 -10 13h-115q-19 0 -16 20l2 10q3 21 25 21h114q12 0 15 12l22 133q15 88 35 141t55 84t79.5 41.5t115.5 10.5h41q20 0 16 -21l-2 -10q-3 -21 -24 -21h-35q-115 0 -157.5 -38.5t-66.5 -172.5l-26 -147q-3 -12 10 -12h211q20 0 16 -21l-2 -10 q-3 -20 -24 -20h-211q-9 0 -12 -13l-158 -887q-3 -20 -23 -20h-18q-17 0 -14 20zM737 20l158 887q3 13 -10 13h-115q-19 0 -16 20l2 10q3 21 24 21h115q11 0 14 12l23 133q15 88 35 141t55 84t79.5 41.5t115.5 10.5h40q9 0 14 -6t3 -15l-2 -10q-3 -21 -25 -21h-35 q-115 0 -156.5 -38.5t-66.5 -172.5l-26 -147q-3 -12 10 -12h211q20 0 16 -21l-2 -10q-3 -20 -24 -20h-211q-10 0 -13 -13l-157 -887q-3 -20 -23 -20h-18q-18 0 -15 20zM1292 20l164 930q4 21 23 21h16q19 0 16 -21l-163 -930q-3 -20 -23 -20h-16q-20 0 -17 20zM1503 1294 l15 78q4 21 22 21h45q17 0 14 -21l-14 -78q-3 -20 -24 -20h-41q-20 0 -17 20z" />
<glyph unicode="&#xfb04;" horiz-adv-x="1656" d="M152 20l157 887q3 13 -10 13h-115q-19 0 -16 20l2 10q3 21 25 21h114q12 0 15 12l22 133q15 88 35 141t55 84t79.5 41.5t115.5 10.5h41q20 0 16 -21l-2 -10q-3 -21 -24 -21h-35q-115 0 -157.5 -38.5t-66.5 -172.5l-26 -147q-3 -12 10 -12h211q20 0 16 -21l-2 -10 q-3 -20 -24 -20h-211q-9 0 -12 -13l-158 -887q-3 -20 -23 -20h-18q-17 0 -14 20zM737 20l158 887q3 13 -10 13h-115q-19 0 -16 20l2 10q3 21 24 21h115q11 0 14 12l23 133q15 88 35 141t55 84t79.5 41.5t115.5 10.5h40q9 0 14 -6t3 -15l-2 -10q-3 -21 -25 -21h-35 q-115 0 -156.5 -38.5t-66.5 -172.5l-26 -147q-3 -12 10 -12h211q20 0 16 -21l-2 -10q-3 -20 -24 -20h-211q-10 0 -13 -13l-157 -887q-3 -20 -23 -20h-18q-18 0 -15 20zM1321 195l215 1177q4 21 23 21h16q19 0 16 -21l-215 -1177q-15 -84 3 -116t79 -32h29q19 0 16 -20 l-2 -11q-3 -20 -24 -20h-27q-87 0 -117.5 47t-11.5 152z" />
<glyph horiz-adv-x="2048" />
<glyph horiz-adv-x="2048" />
<glyph unicode="&#xd;" horiz-adv-x="2048" />
<glyph unicode=" "  horiz-adv-x="491" />
<glyph unicode="&#x09;" horiz-adv-x="491" />
<glyph unicode="&#xa0;" horiz-adv-x="491" />
<glyph unicode="!" horiz-adv-x="485" d="M121 20l18 99q3 20 23 20h51q19 0 16 -20l-16 -99q-7 -20 -25 -20h-51q-19 0 -16 20zM203 367l174 1005q3 21 22 21h21q20 0 16 -21l-182 -1005q-4 -21 -23 -21h-12q-8 0 -12.5 6t-3.5 15z" />
<glyph unicode="&#x22;" horiz-adv-x="587" d="M276 1122l43 250q3 21 23 21h16q20 0 17 -21l-43 -250q-3 -20 -23 -20h-16q-20 0 -17 20zM492 1122l43 250q3 21 22 21h16q9 0 14 -6t3 -15l-43 -250q-3 -20 -23 -20h-16q-19 0 -16 20z" />
<glyph unicode="#" horiz-adv-x="1017" d="M63 483l3 9q3 20 24 20h182l125 408h-188q-19 0 -16 20l2 8q3 21 24 21h193l125 403q6 21 24 21h14q22 0 15 -21l-125 -403h328l122 403q6 21 25 21h14q22 0 15 -21l-125 -403h186q20 0 17 -21l-3 -8q-3 -20 -24 -20h-191l-124 -408h198q20 0 17 -20l-2 -9 q-3 -20 -25 -20h-203l-135 -443q-7 -20 -25 -20h-14q-21 0 -14 20l135 443h-328l-135 -443q-7 -20 -24 -20h-15q-21 0 -14 20l135 443h-176q-20 0 -17 20zM326 512h325l125 408h-325z" />
<glyph unicode="$" d="M54.5 102.5q0.5 8.5 6.5 14.5l11 10q12 12 28 2q134 -93 312 -96l114 647q-284 46 -284 297q0 187 117 307t298 129l19 105q3 20 22 20h13q19 0 16 -20l-18 -107q146 -6 264 -84q14 -11 2 -29l-6 -8q-11 -16 -31 -4q-117 68 -240 74l-110 -633h2q297 -44 297 -293 q0 -189 -117 -314t-313 -138l-19 -107q-3 -20 -24 -20h-13q-19 0 -16 20l18 105q-96 1 -193 32.5t-151 77.5q-5 4 -4.5 12.5zM297 981q0 -105 54.5 -164t185.5 -82l110 625q-151 -7 -250.5 -115.5t-99.5 -263.5zM465 33q162 12 264 121t102 274q0 104 -57.5 164.5 t-193.5 81.5h-2z" />
<glyph unicode="%" horiz-adv-x="1499" d="M247.5 -14.5q-2.5 5.5 4.5 14.5l1018 1393q14 20 30 20h19q21 0 8 -20l-1016 -1393q-17 -20 -32 -20h-19q-10 0 -12.5 5.5zM270 860q0 69 27.5 209t54.5 195q70 145 217 145q84 0 132.5 -48t48.5 -136q0 -69 -27.5 -209t-54.5 -195q-70 -145 -217 -145q-84 0 -132.5 48 t-48.5 136zM322 862q0 -65 33.5 -102t99.5 -37q106 0 163 108q29 59 54.5 188t25.5 204q0 65 -33.5 102t-99.5 37q-107 0 -164 -109q-29 -59 -54 -187.5t-25 -203.5zM831 168q0 69 27.5 208.5t54.5 194.5q70 146 217 146q84 0 132.5 -48.5t48.5 -136.5q0 -69 -27.5 -208.5 t-54.5 -194.5q-70 -145 -217 -145q-84 0 -132.5 48t-48.5 136zM883 170q0 -65 33.5 -102t99.5 -37q107 0 164 108q29 59 54.5 187.5t25.5 203.5q0 65 -34 102.5t-100 37.5q-106 0 -163 -109q-29 -59 -54.5 -187.5t-25.5 -203.5z" />
<glyph unicode="&#x26;" horiz-adv-x="1189" d="M102 258q0 75 24.5 143t76.5 132.5t115.5 122t156.5 126.5q-77 143 -105 210t-28 120q0 128 86.5 214.5t222.5 86.5q99 0 160 -60.5t61 -156.5t-68.5 -190t-260.5 -236l256 -475l184 201q15 15 29 4l12 -11q12 -12 -4 -28l-195 -213l78 -146q18 -31 33.5 -41t44.5 -10h31 q19 0 16 -20l-2 -11q-3 -20 -22 -20h-21q-47 0 -73 14.5t-46 51.5l-78 141q-112 -117 -210.5 -172t-202.5 -55q-125 0 -198 76t-73 202zM158 264q0 -111 58 -172t163 -61q91 0 180.5 54t202.5 171l-262 481q-168 -123 -255 -235t-87 -238zM397 1116q0 -46 25 -108.5 t96 -194.5q172 126 235.5 212.5t63.5 164.5q0 82 -46 127t-130 45q-106 0 -175 -71.5t-69 -174.5z" />
<glyph unicode="'" horiz-adv-x="372" d="M276 1122l43 250q3 21 23 21h16q20 0 17 -21l-43 -250q-3 -20 -23 -20h-16q-20 0 -17 20z" />
<glyph unicode="(" horiz-adv-x="557" d="M205 375q0 563 370 1120q15 21 31 21h15q9 0 12.5 -6t-2.5 -15q-371 -567 -371 -1116q0 -277 80 -531q3 -9 -2 -14.5t-14 -5.5h-13q-17 0 -24 20q-82 257 -82 527z" />
<glyph unicode=")" horiz-adv-x="557" d="M-6.5 -166.5q-3.5 5.5 2.5 14.5q371 567 371 1117q0 276 -80 530q-3 9 2 15t14 6h12q18 0 25 -21q82 -257 82 -526q0 -563 -371 -1121q-14 -20 -31 -20h-14q-9 0 -12.5 5.5z" />
<glyph unicode="*" horiz-adv-x="702" d="M205 977q-6 18 14 29l199 108l-158 109q-16 10 -4 26l6 8q11 15 27 5l157 -107l39 217q1 9 8.5 15t16.5 6h8q20 0 17 -21l-39 -215l198 107q22 13 29 -7l2 -8q6 -17 -14 -28l-197 -109l160 -106q7 -4 8 -12.5t-4 -14.5l-6 -8q-10 -14 -27 -4l-164 104l-37 -215 q-3 -20 -24 -20h-8q-20 0 -17 20l37 211l-196 -104q-23 -13 -29 6z" />
<glyph unicode="+" d="M135 561v10q0 9 6 15t15 6h329q13 0 13 12v334q0 20 20 20h14q21 0 21 -20v-334q0 -12 12 -12h330q20 0 20 -21v-10q0 -20 -20 -20h-330q-12 0 -12 -13v-333q0 -9 -6 -15t-15 -6h-14q-20 0 -20 21v333q0 13 -13 13h-329q-21 0 -21 20z" />
<glyph unicode="," horiz-adv-x="399" d="M53 -190l53 309q3 20 23 20h41q19 0 16 -20l-20 -115q-5 -24 -14 -47l-64 -150q-6 -16 -20 -16q-7 0 -12 5.5t-3 13.5z" />
<glyph unicode="-" horiz-adv-x="722" d="M115 543l2 12q3 16 22 16h484q19 0 16 -20l-2 -12q-3 -17 -23 -17h-483q-19 0 -16 21z" />
<glyph unicode="." horiz-adv-x="399" d="M80 20l16 99q3 20 23 20h51q19 0 16 -20l-16 -99q-3 -20 -23 -20h-51q-19 0 -16 20z" />
<glyph unicode="/" horiz-adv-x="786" d="M66 0l679 1393q9 20 31 20h17q20 0 10 -20l-680 -1393q-9 -20 -31 -20h-16q-20 0 -10 20z" />
<glyph unicode="0" d="M147 270q0 146 62.5 475.5t109.5 428.5q115 239 367 239q136 0 211.5 -79t75.5 -212q0 -145 -62.5 -474.5t-109.5 -428.5q-115 -239 -367 -239q-136 0 -211.5 78.5t-75.5 211.5zM203 279q0 -118 60.5 -183t178.5 -65q207 0 308 207q48 97 108 420.5t60 455.5 q0 118 -61 183t-179 65q-206 0 -307 -207q-48 -97 -108 -420.5t-60 -455.5z" />
<glyph unicode="1" d="M348 1130l4 27q3 16 17 25l297 198q20 13 30 13h15q9 0 14 -6t4 -15l-237 -1352q-3 -20 -23 -20h-16q-20 0 -17 20l228 1295h-5l-290 -197q-9 -6 -15.5 -2t-5.5 14z" />
<glyph unicode="2" d="M78 18v5q0 12 14 26l621 703q97 109 140.5 193t43.5 169q0 111 -66 179.5t-178 68.5q-119 0 -207.5 -75t-130.5 -202q-7 -19 -24 -16l-15 2q-17 3 -10 25q42 137 145.5 227t247.5 90q132 0 211.5 -83t79.5 -212q0 -106 -49 -197t-158 -214l-579 -654v-2h581q20 0 17 -20 l-2 -11q-3 -20 -25 -20h-641q-16 0 -16 18z" />
<glyph unicode="3" d="M109 260q-3 19 14 25l14 4q19 6 23 -15q31 -243 268 -243q158 0 264.5 118.5t106.5 288.5q0 118 -67.5 192.5t-186.5 74.5h-62q-17 0 -14 20l2 12q3 19 21 19h61q142 0 243 105.5t101 252.5q0 112 -64.5 180t-179.5 68q-123 0 -205.5 -67.5t-117.5 -164.5q-7 -20 -25 -16 l-14 2q-17 3 -10 25q34 111 135.5 191.5t245.5 80.5q134 0 211 -81t77 -212q0 -140 -71.5 -239t-190.5 -152v-4q75 -32 120.5 -104.5t45.5 -171.5q0 -199 -120.5 -334t-311.5 -135q-81 0 -142 26t-95 69.5t-52 89t-24 95.5z" />
<glyph unicode="4" d="M92 332l2 10q3 13 8 20l617 1014q11 17 29 17h20q9 0 12 -5.5t-2 -13.5l-614 -1007v-2h463q11 0 14 12l70 401q3 21 22 21h17q20 0 16 -21l-70 -401q-3 -12 11 -12h167q20 0 17 -21l-2 -12q-3 -19 -25 -19h-168q-11 0 -14 -12l-49 -281q-3 -20 -23 -20h-16q-19 0 -16 20 l51 281q3 12 -11 12h-509q-20 0 -17 19z" />
<glyph unicode="5" d="M147 276q0 22 19 25l14 2q21 3 21 -18q0 -116 61.5 -185t186.5 -69q194 0 286 186q36 74 60 192.5t24 200.5q0 124 -53 186t-166 62q-104 0 -186 -59.5t-119 -147.5q-10 -20 -25 -20h-14q-19 0 -16 20l127 721q3 21 22 21h590q9 0 14 -6t4 -15l-2 -10q-2 -9 -8.5 -15 t-15.5 -6h-545q-11 0 -14 -12l-101 -573h2q40 64 116 108.5t177 44.5q129 0 198.5 -72.5t69.5 -213.5q0 -88 -24.5 -216t-65.5 -212q-106 -215 -344 -215q-145 0 -219 81.5t-74 214.5z" />
<glyph unicode="6" d="M127 311q0 92 33 183t110 208l449 674q11 17 29 17h22q10 0 12.5 -6.5t-2.5 -12.5l-418 -626l5 -3q77 64 211 64q145 0 229 -89t84 -237q0 -94 -31.5 -184t-88 -161t-142.5 -114.5t-187 -43.5q-147 0 -231 88t-84 243zM182 311q0 -127 70 -203.5t192 -76.5q111 0 202 64 t140.5 165.5t49.5 216.5q0 127 -71.5 204t-193.5 77q-111 0 -201.5 -64t-139 -166t-48.5 -217z" />
<glyph unicode="7" d="M218.5 6q-2.5 6 2.5 17l731 1314v4h-555q-11 0 -14 -12l-37 -211q-3 -20 -24 -20h-15q-19 0 -16 20l45 254q4 21 22 21h643q9 0 14 -6t3 -15l-4 -22q-4 -16 -10 -25l-725 -1307q-10 -18 -29 -18h-21q-8 0 -10.5 6z" />
<glyph unicode="8" d="M121 291q0 150 82 271.5t223 176.5v4q-69 34 -106 98t-37 152q0 110 48 205t141.5 155t213.5 60q130 0 207.5 -78t77.5 -205q0 -135 -70 -242t-190 -153v-4q83 -36 129.5 -109t46.5 -173q0 -196 -129 -332.5t-324 -136.5q-142 0 -227.5 86t-85.5 225zM174 301 q0 -120 73 -195t197 -75q160 0 275 118.5t115 288.5q0 120 -73.5 195.5t-197.5 75.5q-159 0 -274 -120.5t-115 -287.5zM336 999q0 -107 65 -173t174 -66q147 0 245 105t98 257q0 107 -65.5 173.5t-174.5 66.5q-146 0 -244 -105.5t-98 -257.5z" />
<glyph unicode="9" d="M227 909q0 94 31.5 184t88 161.5t142.5 115t187 43.5q147 0 231 -88.5t84 -243.5q0 -92 -33 -183t-110 -208l-449 -674q-11 -16 -28 -16h-23q-10 0 -12.5 6t2.5 12l418 627l-4 2q-76 -63 -211 -63q-145 0 -229.5 89t-84.5 236zM283 915q0 -127 71 -203.5t193 -76.5 q111 0 201.5 64t139 165.5t48.5 216.5q0 127 -70 204t-192 77q-111 0 -202 -64t-140 -166t-49 -217z" />
<glyph unicode=":" horiz-adv-x="399" d="M80 20l16 99q3 20 23 20h51q19 0 16 -20l-16 -99q-3 -20 -23 -20h-51q-19 0 -16 20zM227 852l17 98q4 21 22 21h51q9 0 14 -6t3 -15l-17 -98q-3 -21 -22 -21h-51q-20 0 -17 21z" />
<glyph unicode=";" horiz-adv-x="399" d="M49 -190l53 309q3 20 23 20h41q19 0 16 -20l-20 -115q-4 -19 -15 -47l-63 -150q-6 -16 -21 -16q-7 0 -11.5 5.5t-2.5 13.5zM227 852l17 98q4 21 22 21h51q9 0 14 -6t3 -15l-17 -98q-3 -21 -22 -21h-51q-20 0 -17 21z" />
<glyph unicode="&#x3c;" d="M119 561v8q0 17 20 25l740 299q9 3 14.5 -1t5.5 -13v-15q0 -17 -20 -26l-680 -271v-4l680 -270q20 -9 20 -27v-14q0 -9 -5.5 -13t-14.5 -1l-740 299q-20 7 -20 24z" />
<glyph unicode="=" d="M125 365v10q0 20 20 20h740q20 0 20 -20v-10q0 -21 -20 -21h-740q-20 0 -20 21zM125 756v10q0 20 20 20h740q20 0 20 -20v-10q0 -21 -20 -21h-740q-20 0 -20 21z" />
<glyph unicode="&#x3e;" d="M131 252v14q0 18 21 27l679 270v4l-679 271q-21 9 -21 26v15q0 9 6 13t15 1l739 -299q20 -8 20 -25v-8q0 -17 -20 -24l-739 -299q-9 -3 -15 1t-6 13z" />
<glyph unicode="?" horiz-adv-x="862" d="M203 1106q45 142 145.5 224.5t237.5 82.5q127 0 198.5 -75t71.5 -197q0 -91 -47.5 -182t-149.5 -199l-108 -117q-59 -64 -79 -100t-34 -103l-16 -82q-3 -20 -23 -20h-16q-19 0 -16 20l16 82q13 68 35 114.5t71 98.5l109 115q114 120 159.5 201.5t45.5 167.5 q0 106 -62 165.5t-163 59.5q-112 0 -196.5 -70t-127.5 -196q-7 -20 -25 -17l-16 4q-17 3 -10 23zM299 20l16 99q3 20 23 20h51q20 0 17 -20l-17 -99q-3 -20 -22 -20h-52q-19 0 -16 20z" />
<glyph unicode="@" horiz-adv-x="1816" d="M123 391q0 208 65.5 385.5t182.5 304t287 198t372 71.5q195 0 345 -77.5t234.5 -226t84.5 -348.5q0 -85 -12 -165t-40.5 -156.5t-71 -133.5t-107 -91.5t-144.5 -34.5q-76 0 -132.5 49t-66.5 129h-2q-103 -178 -309 -178q-111 2 -176.5 69.5t-65.5 190.5q0 84 20.5 187 t57.5 181q101 207 309 207q179 0 230 -139h4l16 100q4 21 25 21h14q9 0 14 -6t3 -15l-89 -501q-21 -117 26 -180.5t128 -63.5q69 0 125 35.5t90 90t57 126t32 138.5t9 132q0 288 -167 448t-451 160q-182 0 -338 -65.5t-267 -182t-174 -285t-63 -366.5q0 -282 168 -445 t451 -163q136 0 233 27t199 78q15 7 22 -7l9 -16q6 -15 -13 -25q-207 -108 -461 -108q-300 0 -481.5 175.5t-181.5 475.5zM623 381q0 -99 47 -156t145 -57q185 0 264 166q33 68 54.5 169.5t21.5 184.5q0 98 -48 155.5t-144 57.5q-186 0 -265 -166q-33 -68 -54 -169t-21 -185 z" />
<glyph unicode="A" horiz-adv-x="1161" d="M4 20l711 1352q11 21 24 21h21q14 0 18 -21l230 -1352q1 -9 -4.5 -14.5t-14.5 -5.5h-16q-21 0 -23 20l-63 383h-619l-200 -383q-10 -20 -29 -20h-25q-13 0 -13 9q0 4 3 11zM297 457h580l-140 833h-4z" />
<glyph unicode="B" horiz-adv-x="1193" d="M125 20l237 1352q4 21 23 21h422q155 0 240.5 -75.5t85.5 -213.5q0 -153 -80 -257.5t-213 -135.5v-4q75 -17 135.5 -85.5t60.5 -187.5q0 -202 -120 -318t-338 -116h-437q-8 0 -12.5 5.5t-3.5 14.5zM190 66q-1 -2 -1 -4q0 -9 12 -9h387q187 0 290 103.5t103 271.5 q0 119 -72 187.5t-211 68.5h-387q-11 0 -14 -12zM311 750q-1 -3 -1 -5q0 -8 9 -8h381q175 0 276 101t101 258q0 117 -69 180t-201 63h-381q-11 0 -14 -12z" />
<glyph unicode="C" horiz-adv-x="1087" d="M137 365q0 143 46 384.5t104 360.5q76 158 183 230.5t261 72.5q119 0 211 -63t133 -189q1 -4 1 -7q0 -10 -11 -15l-16 -6q-8 -3 -14.5 -0.5t-8.5 8.5q-77 219 -299 219q-130 0 -225 -63.5t-160 -198.5q-58 -118 -102.5 -351.5t-44.5 -371.5q0 -165 80 -253.5t235 -88.5 q119 0 207 53t162 162q9 12 22 6l19 -10q13 -8 2 -27q-150 -237 -420 -237q-172 0 -268.5 101t-96.5 284z" />
<glyph unicode="D" horiz-adv-x="1239" d="M125 20l237 1352q4 21 23 21h395q181 0 278 -88t97 -267q0 -141 -49 -396t-107 -374q-69 -143 -180 -205.5t-282 -62.5h-396q-16 0 -16 15v5zM190 66q-1 -3 0 -5q0 -8 9 -8h342q152 0 250 57t157 177q56 115 103 359t47 386q0 157 -80 232t-248 75h-344q-12 0 -14 -12z " />
<glyph unicode="E" horiz-adv-x="1085" d="M125 20l237 1352q4 21 23 21h735q17 0 17 -16v-5l-2 -12q-3 -21 -25 -21h-684q-11 0 -14 -12l-101 -577q-3 -15 13 -15h587q20 0 17 -20l-2 -13q-3 -20 -25 -20h-590q-11 0 -14 -12l-107 -604q-3 -13 11 -13h684q19 0 16 -20l-2 -13q-3 -20 -25 -20h-733q-16 0 -16 15v5z " />
<glyph unicode="F" horiz-adv-x="1073" d="M125 20l237 1352q4 21 23 21h735q17 0 17 -16v-5l-2 -12q-3 -21 -25 -21h-684q-11 0 -14 -12l-103 -592q-3 -14 13 -14h587q9 0 14 -6t3 -15l-2 -12q-3 -20 -25 -20h-590q-11 0 -14 -13l-113 -635q-3 -20 -22 -20h-19q-16 0 -16 15v5z" />
<glyph unicode="G" horiz-adv-x="1181" d="M139 365q0 143 46 384.5t104 360.5q75 155 189 229t280 74q78 0 146.5 -24t126.5 -79.5t85 -138.5q1 -4 1 -7q0 -10 -11 -15l-16 -6q-8 -3 -14.5 -0.5t-8.5 8.5q-38 106 -121.5 157.5t-197.5 51.5q-276 0 -404 -262q-58 -118 -102.5 -351.5t-44.5 -371.5 q0 -165 80.5 -253.5t236.5 -88.5q278 0 408 266q64 129 92 313q3 13 -10 13h-345q-17 0 -14 20l2 14q3 19 21 19h393q17 0 14 -21l-10 -67q-29 -181 -90 -307q-76 -157 -190 -230t-279 -73q-174 0 -270.5 101t-96.5 284z" />
<glyph unicode="H" horiz-adv-x="1273" d="M125 20l237 1352q4 21 23 21h18q9 0 14 -6t3 -15l-111 -624q-3 -13 10 -13h732q11 0 14 13l111 624q4 21 22 21h19q16 0 16 -16v-5l-238 -1352q-3 -20 -22 -20h-19q-19 0 -16 20l113 650q3 12 -9 12h-731q-11 0 -14 -12l-115 -650q-3 -20 -22 -20h-19q-16 0 -16 15v5z " />
<glyph unicode="I" horiz-adv-x="460" d="M125 20l237 1352q4 21 23 21h18q9 0 14 -6q4 -4 4 -10q0 -2 -1 -5l-238 -1352q-3 -20 -22 -20h-19q-16 0 -16 15v5z" />
<glyph unicode="J" horiz-adv-x="915" d="M29 72q-8 6 -8 13t8 15l10 11q15 15 31 2q104 -80 211 -80q302 0 366 358l172 981q3 21 23 21h18q17 0 17 -16v-5l-175 -987q-72 -405 -428 -405q-67 0 -132.5 25.5t-112.5 66.5z" />
<glyph unicode="K" horiz-adv-x="1144" d="M125 20l237 1352q4 21 23 21h18q9 0 14 -6t3 -15l-152 -864l848 864q21 21 39 21h29q8 -1 10 -7v-3q0 -5 -4 -11l-524 -532l313 -820q3 -8 -1 -14t-13 -6h-23q-16 0 -24 20l-293 777l-373 -379l-70 -398q-3 -20 -22 -20h-19q-16 0 -16 15v5z" />
<glyph unicode="L" horiz-adv-x="1024" d="M125 20l237 1352q4 21 23 21h18q9 0 14 -6t3 -15l-230 -1306q-3 -13 9 -13h684q8 0 12.5 -5.5t3.5 -14.5l-2 -13q-3 -20 -23 -20h-733q-8 0 -12.5 5.5t-3.5 14.5z" />
<glyph unicode="M" horiz-adv-x="1482" d="M125 20l237 1352q4 21 23 21h18q17 0 23 -21l283 -1081h4l659 1081q12 21 29 21h24q9 0 14 -6q4 -4 4 -10q0 -2 -1 -5l-238 -1352q-3 -20 -22 -20h-19q-19 0 -16 20l215 1221h-4l-619 -1008q-8 -12 -14.5 -16t-19.5 -4h-9q-24 0 -30 23l-265 1011h-4l-215 -1227 q-3 -20 -22 -20h-19q-8 0 -12.5 5.5t-3.5 14.5z" />
<glyph unicode="N" horiz-adv-x="1275" d="M125 20l237 1352q4 21 23 21h16q19 0 27 -21l524 -1251h4l222 1251q4 21 22 21h19q16 0 16 -16v-5l-238 -1352q-3 -20 -22 -20h-14q-22 0 -29 20l-524 1258h-5l-221 -1258q-3 -20 -22 -20h-19q-8 0 -12.5 5.5t-3.5 14.5z" />
<glyph unicode="O" horiz-adv-x="1187" d="M139 365q0 143 46 384.5t104 360.5q75 155 189 229t278 74q175 0 270.5 -101t95.5 -284q0 -143 -45.5 -384.5t-103.5 -360.5q-75 -155 -189 -229t-278 -74q-175 0 -271 101t-96 284zM197 375q0 -165 80.5 -253.5t236.5 -88.5q276 0 404 262q58 118 102.5 351.5 t44.5 371.5q0 165 -80.5 253.5t-236.5 88.5q-276 0 -404 -262q-58 -118 -102.5 -351.5t-44.5 -371.5z" />
<glyph unicode="P" horiz-adv-x="1136" d="M125 20l237 1352q4 21 23 21h422q164 0 252 -75.5t88 -213.5q0 -215 -130 -338t-341 -123h-373q-11 0 -14 -12l-107 -611q-3 -20 -22 -20h-19q-16 0 -16 15v5zM303 709q-1 -2 -1 -4q0 -9 11 -9h365q192 2 303 107.5t111 296.5q0 118 -73.5 178.5t-219.5 60.5h-373 q-11 0 -14 -12z" />
<glyph unicode="Q" horiz-adv-x="1187" d="M139 365q0 143 46 384.5t104 360.5q75 155 189 229t278 74q175 0 270.5 -101t95.5 -284q0 -143 -45.5 -384.5t-103.5 -360.5q-53 -106 -119 -172l90 -162q10 -17 -10 -27l-8 -4q-8 -5 -14 -5q-8 0 -13 9l-84 154q-122 -96 -309 -96q-175 0 -271 101t-96 284zM197 375 q0 -165 80.5 -253.5t236.5 -88.5q162 0 274 92l-114 209q-7 18 10 26l8 5q18 11 27 -5l108 -198q50 53 91 133q58 118 102.5 351.5t44.5 371.5q0 165 -80.5 253.5t-236.5 88.5q-276 0 -404 -262q-58 -118 -102.5 -351.5t-44.5 -371.5z" />
<glyph unicode="R" horiz-adv-x="1206" d="M125 20l237 1352q4 21 23 21h420q164 0 251 -77t87 -220q0 -179 -95 -291.5t-268 -140.5l191 -644q7 -20 -13 -20h-24q-18 0 -23 18l-184 639q-18 -2 -53 -2h-367q-11 0 -14 -12l-111 -623q-3 -20 -22 -20h-19q-16 0 -16 15v5zM305 721q-1 -2 -1 -4q0 -8 11 -8h369 q194 0 298.5 103.5t104.5 279.5q0 125 -72.5 186t-219.5 61h-369q-11 0 -14 -12z" />
<glyph unicode="S" horiz-adv-x="1177" d="M92 131q-5 6 -5 13t7 14l10 10q16 16 29 2q154 -137 375 -137q200 0 323 104.5t123 278.5q0 118 -64.5 177t-230.5 83l-57 8q-165 24 -243 101t-78 206q0 186 123.5 304t330.5 118q99 0 193 -31t155 -79q8 -6 8 -14q0 -7 -6 -15l-8 -10q-11 -15 -30 -2q-143 98 -324 98 q-171 0 -278 -103t-107 -258q0 -119 66.5 -180.5t234.5 -85.5l57 -8q169 -24 241.5 -99.5t72.5 -207.5q0 -199 -138 -318.5t-387 -119.5q-114 0 -224.5 45t-168.5 106z" />
<glyph unicode="T" horiz-adv-x="1005" d="M203 1360l2 12q3 21 22 21h883q8 0 12 -6q3 -4 3 -9q0 -3 -1 -6l-2 -12q-4 -21 -22 -21h-402q-11 0 -14 -12l-229 -1307q-3 -20 -23 -20h-18q-20 0 -17 20l230 1307q3 12 -9 12h-401q-14 0 -14 15v6z" />
<glyph unicode="U" horiz-adv-x="1243" d="M190 475l158 897q4 21 23 21h18q9 0 14 -6t3 -15l-158 -899q-12 -72 -12 -132q0 -308 327 -308q188 0 293.5 101.5t147.5 338.5l157 899q3 21 23 21h18q17 0 17 -16v-5l-158 -897q-45 -262 -165 -378.5t-337 -116.5t-315 124q-68 86 -67 231q0 64 13 140z" />
<glyph unicode="V" horiz-adv-x="1095" d="M223 1360q-1 6 -1 12q0 21 20 21h12q22 0 25 -23l204 -1274h2l645 1276q10 21 33 21h15q17 0 17 -12q0 -8 -7 -21l-684 -1340q-11 -20 -27 -20h-18q-16 0 -19 20z" />
<glyph unicode="W" horiz-adv-x="1603" d="M244 1370q0 23 20 23h15q22 0 22 -23l68 -1247h4l555 1249q9 21 28 21h17q19 0 22 -21l117 -1249h4l506 1249q9 21 31 21h16q11 -1 15 -7q2 -3 1 -6q0 -4 -2 -10l-550 -1350q-9 -20 -29 -20h-17q-17 0 -20 20l-119 1250h-4l-561 -1250q-9 -20 -29 -20h-16q-18 0 -21 20z " />
<glyph unicode="X" horiz-adv-x="1046" d="M2 6q-1 2 0 4q0 5 4 10l539 715l-250 637q-3 8 0 14.5t12 6.5h27q13 0 20 -17l230 -583h2l434 583q14 17 27 17h28q9 -1 11 -7q1 -2 1 -3q0 -5 -4 -11l-475 -639l281 -713q3 -8 0 -14t-12 -6h-25q-17 0 -23 16l-260 660h-2l-495 -660q-13 -16 -25 -16h-33q-10 0 -12 6z " />
<glyph unicode="Y" horiz-adv-x="995" d="M225 1368q-1 4 -1 8q0 6 3 10q5 7 15 7h12q21 0 29 -21l241 -729h4l500 729q13 21 35 21h16q10 0 13 -8q2 -3 2 -6q0 -5 -4 -11l-545 -797l-96 -551q-3 -20 -23 -20h-18q-20 0 -17 20l96 553z" />
<glyph unicode="Z" horiz-adv-x="1064" d="M37 20l2 15q3 16 16 31l983 1271v2h-721q-19 0 -16 21l2 12q3 21 23 21h772q17 0 17 -15q0 -3 -1 -6l-2 -14q-3 -15 -14 -29l-983 -1274v-2h747q20 0 17 -20l-2 -13q-3 -20 -25 -20h-799q-16 0 -16 15v5z" />
<glyph unicode="[" horiz-adv-x="577" d="M143 -152l291 1647q4 21 23 21h188q9 0 14 -6t3 -15l-3 -12q-3 -21 -22 -21h-141q-12 0 -15 -12l-274 -1556q-3 -13 10 -13h141q20 0 17 -20l-2 -13q-3 -20 -25 -20h-188q-20 0 -17 20z" />
<glyph unicode="\" horiz-adv-x="786" d="M313 1393q-1 9 4 14.5t13 5.5h14q20 0 23 -20l188 -1393q1 -9 -3.5 -14.5t-12.5 -5.5h-15q-19 0 -22 20z" />
<glyph unicode="]" horiz-adv-x="577" d="M-10 -152l2 13q3 20 22 20h142q11 0 14 13l274 1556q3 12 -10 12h-141q-9 0 -14 6t-3 15l3 12q3 21 24 21h189q20 0 16 -21l-291 -1647q-3 -20 -22 -20h-189q-19 0 -16 20z" />
<glyph unicode="^" d="M166 621l352 751q10 21 29 21h10q19 0 29 -21l352 -751q4 -9 -0.5 -15t-13.5 -6h-11q-17 0 -26 21l-334 708h-4l-332 -708q-9 -21 -27 -21h-10q-9 0 -13.5 6t-0.5 15z" />
<glyph unicode="_" horiz-adv-x="870" d="M-121 -236l10 54h871l-10 -54h-871z" />
<glyph unicode="`" horiz-adv-x="825" d="M551 1413q-4 7 0.5 14t13.5 7h19q11 0 16 -4.5t10 -16.5l111 -246q4 -9 -0.5 -14.5t-13.5 -5.5h-5q-12 0 -17 3.5t-13 16.5z" />
<glyph unicode="a" horiz-adv-x="999" d="M104 211q0 160 101.5 243t296.5 83h258q11 0 14 12l25 131q11 55 11 98q0 30 -6 54q-12 58 -62.5 83t-153.5 25q-162 0 -260 -84q-19 -16 -31 -4l-12 12q-13 12 2 27q111 100 309 100q166 -1 227 -71q41 -47 41 -139q0 -45 -10 -101l-117 -660q-3 -20 -22 -20h-17 q-19 0 -16 20l20 115h-2q-39 -69 -124 -112t-203 -43q-128 0 -198.5 62.5t-70.5 168.5zM160 215q0 -87 57 -135.5t170 -48.5q130 0 226.5 73.5t115.5 184.5l33 184q1 3 1 5q0 7 -9 7h-250q-344 0 -344 -270z" />
<glyph unicode="b" d="M121 20l237 1352q4 21 23 21h16q9 0 14 -6t3 -15l-99 -559h2q114 178 326 178q139 0 211 -82t72 -231q0 -118 -33 -257.5t-68 -209.5q-111 -231 -354 -231q-106 0 -173.5 52t-94.5 136h-2l-25 -148q-3 -20 -22 -20h-17q-16 0 -16 15v5zM233 283q0 -112 64 -182t178 -70 q205 0 301 200q42 85 68 214.5t26 230.5q0 264 -237 264q-209 0 -316 -217q-23 -45 -53.5 -199.5t-30.5 -240.5z" />
<glyph unicode="c" horiz-adv-x="921" d="M113 305q0 240 94 436q59 119 155.5 184.5t217.5 65.5q108 0 176.5 -50.5t95.5 -145.5q2 -5 2 -10q0 -12 -12 -17l-15 -6q-18 -7 -24 10q-26 87 -82 127.5t-150 40.5q-90 0 -175.5 -57.5t-135.5 -157.5q-47 -95 -69.5 -209t-22.5 -199q0 -286 242 -286q167 0 295 168 q12 17 28 4l10 -8q15 -12 0 -31q-71 -93 -154 -138.5t-188 -45.5q-143 0 -215.5 84t-72.5 241z" />
<glyph unicode="d" d="M113 293q0 118 32.5 257.5t67.5 209.5q111 231 354 231q107 0 174.5 -52t94.5 -136h2l98 569q4 21 22 21h17q16 0 16 -16v-5l-237 -1352q-3 -20 -23 -20h-16q-20 0 -17 20l25 138h-2q-114 -178 -326 -178q-139 0 -210.5 82t-71.5 231zM168 295q0 -264 238 -264 q208 0 315 217q23 45 53.5 199.5t30.5 240.5q0 112 -64 182t-178 70q-204 0 -301 -201q-42 -85 -68 -214t-26 -230z" />
<glyph unicode="e" horiz-adv-x="960" d="M113 291q0 118 24 240t70 217q57 118 153 180.5t218 62.5q131 0 208.5 -79.5t77.5 -229.5q0 -71 -18 -176q-4 -21 -25 -21h-622q-14 0 -17 -12q-14 -74 -14 -182q0 -122 62 -191t186 -69q176 0 307 145q16 16 29 6l12 -10q14 -14 -2 -29q-140 -163 -350 -163 q-145 0 -222 81t-77 230zM199 549q-1 -2 -1 -4q0 -8 11 -8h575q12 0 15 12q12 68 12 125q0 131 -61 198.5t-177 67.5q-103 0 -184.5 -54.5t-132.5 -158.5q-37 -75 -57 -178z" />
<glyph unicode="f" horiz-adv-x="585" d="M152 20l157 887q3 13 -10 13h-115q-19 0 -16 20l2 10q3 21 25 21h114q12 0 15 12l22 133q15 88 35 141t55 84t79.5 41.5t115.5 10.5h41q17 0 17 -15q0 -2 -1 -6l-2 -10q-3 -21 -24 -21h-35q-115 0 -157.5 -38.5t-66.5 -172.5l-26 -147q-3 -12 10 -12h211q20 0 16 -21 l-2 -10q-3 -20 -24 -20h-211q-9 0 -12 -13l-158 -887q-3 -20 -23 -20h-18q-14 0 -14 14v6z" />
<glyph unicode="g" horiz-adv-x="1015" d="M61 -242q-4 8 -4 14q0 10 13 15l14 6q17 6 27 -10q78 -121 229 -121q284 0 342 346l25 144h-2q-102 -172 -314 -172q-134 0 -206 80.5t-72 220.5q0 108 27.5 246.5t74.5 232.5q113 231 348 231q104 0 169 -53t89 -135h2l25 147q4 21 24 21h15q16 0 16 -16v-5l-168 -946 q-38 -211 -139.5 -302t-263.5 -91q-89 0 -160 36.5t-111 110.5zM168 283q0 -118 57.5 -185t175.5 -67q90 0 167.5 47t127.5 147q35 71 65 227t30 236q0 110 -61 181t-171 71q-198 0 -295 -201q-46 -100 -71 -222.5t-25 -233.5z" />
<glyph unicode="h" horiz-adv-x="1056" d="M121 20l237 1352q4 21 23 21h16q9 0 14 -6t3 -15l-97 -553h2q52 82 136 127t182 45q161 0 229 -95q46 -64 46 -169q0 -51 -11 -111l-108 -596q-3 -20 -23 -20h-18q-18 0 -15 20l107 582q11 64 11 115q0 91 -34 143q-53 80 -194 80q-115 0 -216.5 -84.5t-125.5 -218.5 l-109 -617q-3 -20 -22 -20h-19q-14 0 -14 14v6z" />
<glyph unicode="i" horiz-adv-x="452" d="M121 20l164 930q3 21 22 21h17q20 0 16 -21l-164 -930q-3 -20 -22 -20h-17q-16 0 -16 15v5zM332 1294l14 78q4 21 23 21h45q8 0 12 -6q3 -4 3 -9q0 -3 -1 -6l-14 -78q-3 -20 -25 -20h-41q-16 0 -16 15v5z" />
<glyph unicode="j" horiz-adv-x="452" d="M-125 -348l2 10q3 21 25 21h6q90 0 127.5 35t56.5 137l193 1095q3 21 22 21h17q20 0 16 -21l-193 -1095q-23 -130 -76 -177t-171 -47h-9q-16 0 -16 16v5zM332 1294l14 78q4 21 23 21h45q8 0 12 -6q3 -4 3 -9q0 -3 -1 -6l-14 -78q-3 -20 -25 -20h-41q-16 0 -16 15v5z" />
<glyph unicode="k" horiz-adv-x="962" d="M121 20l237 1352q4 21 23 21h16q9 0 14 -6t3 -15l-176 -997l567 577q19 19 35 19h28q11 0 11 -9q0 -5 -5 -12l-327 -334l246 -596q3 -7 -2.5 -13.5t-14.5 -6.5h-16q-17 0 -27 20l-227 555l-283 -286l-47 -269q-3 -20 -22 -20h-19q-14 0 -14 14v6z" />
<glyph unicode="l" horiz-adv-x="485" d="M150 195l215 1177q3 21 22 21h16q9 0 14 -6q4 -4 4 -10q0 -2 -1 -5l-215 -1177q-7 -38 -7 -66q0 -33 10 -50q18 -32 79 -32h28q20 0 17 -20l-2 -11q-3 -20 -25 -20h-26q-87 0 -117 47q-19 29 -19 80q0 32 7 72z" />
<glyph unicode="m" horiz-adv-x="1675" d="M121 20l164 930q3 21 22 21h17q20 0 16 -21l-23 -131h2q52 82 136 127t182 45q120 0 187 -52.5t81 -152.5h2q49 93 140.5 149t207.5 56q161 -1 229 -95q47 -64 46 -171q0 -50 -10 -109l-109 -596q-3 -20 -22 -20h-15q-21 0 -18 20l106 582q11 64 11 115q0 91 -34 143 q-53 80 -194 80q-117 0 -217.5 -83.5t-124.5 -221.5l-108 -615q-3 -20 -23 -20h-16q-8 0 -13 5.5t-4 14.5l103 582q12 65 12 117q0 88 -34 139q-52 82 -193 82q-115 0 -216.5 -84.5t-125.5 -218.5l-109 -617q-3 -20 -22 -20h-17q-16 0 -16 15v5z" />
<glyph unicode="n" horiz-adv-x="1056" d="M121 20l164 930q3 21 22 21h17q20 0 16 -21l-23 -131h2q52 82 136 127t182 45q161 0 229 -95q46 -64 46 -169q0 -51 -11 -111l-108 -596q-3 -20 -23 -20h-18q-18 0 -15 20l107 582q11 64 11 115q0 91 -34 143q-53 80 -194 80q-115 0 -216.5 -84.5t-125.5 -218.5 l-109 -617q-3 -20 -22 -20h-19q-14 0 -14 14v6z" />
<glyph unicode="o" horiz-adv-x="980" d="M113 301q0 110 31 245.5t67 209.5q113 235 371 235q149 0 224 -84t75 -237q0 -109 -31.5 -244.5t-67.5 -210.5q-113 -235 -370 -235q-149 0 -224 84t-75 237zM168 315q0 -140 61 -212t191 -72q211 0 317 213q29 60 58.5 189t29.5 222q0 285 -252 285q-211 0 -317 -213 q-29 -60 -58.5 -189.5t-29.5 -222.5z" />
<glyph unicode="p" d="M55 -348l230 1298q3 21 22 21h17q20 0 16 -21l-25 -137h2q114 178 326 178q139 0 211 -82t72 -231q0 -118 -33 -257.5t-68 -209.5q-111 -231 -354 -231q-106 0 -173.5 52t-94.5 136h-2l-90 -516q-3 -21 -23 -21h-16q-17 0 -17 16v5zM233 283q0 -112 64 -182t178 -70 q205 0 301 200q42 85 68 214.5t26 230.5q0 264 -237 264q-209 0 -316 -217q-23 -45 -53.5 -199.5t-30.5 -240.5z" />
<glyph unicode="q" d="M113 293q0 117 33.5 256.5t68.5 210.5q56 117 142.5 174t211.5 57q108 0 175.5 -49t91.5 -135h2l24 143q4 21 23 21h16q9 0 14 -6q4 -4 4 -10q0 -2 -1 -5l-230 -1298q-4 -21 -22 -21h-17q-19 0 -16 21l88 500h-2q-113 -172 -324 -172q-140 0 -211 80.5t-71 232.5z M168 295q0 -264 238 -264q208 0 315 217q23 45 53.5 199.5t30.5 240.5q0 113 -62 182.5t-180 69.5q-100 0 -176.5 -52t-122.5 -149q-43 -86 -69.5 -215t-26.5 -229z" />
<glyph unicode="r" horiz-adv-x="757" d="M121 20l164 930q3 21 22 21h17q20 0 16 -21l-25 -143h2q36 84 110.5 134t174.5 50q105 0 176 -61q5 -5 5 -11q0 -7 -7 -16l-10 -12q-12 -12 -29 0q-69 49 -147 49q-66 0 -121.5 -32t-94 -87t-64 -119.5t-38.5 -136.5l-96 -545q-3 -20 -22 -20h-17q-16 0 -16 15v5z" />
<glyph unicode="s" horiz-adv-x="931" d="M61 109q-6 6 -6 12q0 7 8 14l13 10q13 13 26 0q63 -53 130.5 -83.5t164.5 -30.5q150 0 240 75.5t90 200.5q0 74 -44.5 111t-154.5 49l-90 10q-235 27 -235 211q0 132 98.5 217.5t261.5 85.5q72 0 150 -24.5t129 -57.5q6 -4 6 -11q0 -6 -4 -13l-6 -11q-10 -17 -33 -6 q-124 72 -248 72q-131 0 -215 -71t-84 -179q0 -73 49.5 -112.5t161.5 -51.5l90 -10q223 -23 223 -203q0 -151 -106 -242t-283 -91q-108 0 -194 38.5t-138 90.5z" />
<glyph unicode="t" horiz-adv-x="591" d="M170 940l2 10q3 21 25 21h114q12 0 15 12l49 287q3 20 22 20h17q19 0 16 -20l-49 -287q-3 -12 10 -12h195q17 0 17 -15q0 -3 -1 -6l-2 -10q-3 -20 -25 -20h-194q-11 0 -14 -13l-125 -653q-10 -53 -9 -91q1 -51 17 -75q30 -42 133 -41h33q19 0 16 -20l-2 -11 q-3 -20 -24 -20h-33q-125 0 -169 56q-29 36 -28 107q0 38 8 87l127 661q3 13 -10 13h-115q-16 0 -16 15v5z" />
<glyph unicode="u" horiz-adv-x="1044" d="M162 354l108 596q4 21 23 21h18q8 0 12 -6t3 -15l-107 -581q-11 -65 -11 -117q0 -88 32 -140q52 -80 190 -81q112 0 213 84.5t125 218.5l109 616q3 21 22 21h19q8 0 12 -6q3 -4 3 -9q0 -3 -1 -6l-164 -930q-3 -20 -23 -20h-16q-19 0 -16 20l22 132h-2q-52 -82 -135 -127 t-178 -45q-157 0 -224 94q-45 63 -45 168q0 51 11 112z" />
<glyph unicode="v" horiz-adv-x="903" d="M162 950q-1 4 -1 6q0 15 17 15h17q19 0 22 -21l164 -860h2l465 860q10 21 29 21h20q14 0 14 -9q0 -5 -4 -12l-506 -930q-10 -20 -24 -20h-21q-13 0 -16 20z" />
<glyph unicode="w" horiz-adv-x="1431" d="M174 950q-1 4 -1 6q0 15 17 15h15q19 0 22 -21l115 -852h2l420 852q9 21 27 21h14q19 0 22 -21l125 -852h2l412 852q10 21 29 21h16q9 0 13 -6q1 -2 2 -5q0 -4 -3 -10l-454 -930q-10 -20 -27 -20h-12q-18 0 -21 20l-121 863h-2l-426 -863q-11 -20 -28 -20h-13 q-17 0 -20 20z" />
<glyph unicode="x" horiz-adv-x="874" d="M5 8q0 5 5 12l410 492l-207 438q-3 8 1 14.5t11 6.5h21q14 0 22 -15l189 -399h2l329 399q12 15 29 15h25q8 -1 10 -7q0 -1 1 -2q0 -5 -5 -12l-367 -444l234 -486q3 -8 -1.5 -14t-13.5 -6h-20q-16 0 -23 14l-211 451h-2l-372 -451q-12 -14 -27 -14h-29q-11 0 -11 8z" />
<glyph unicode="y" horiz-adv-x="903" d="M-8 -348l2 10q3 21 24 21h33q65 0 113.5 45t120.5 178l59 108l-180 936q-4 21 16 21h17q19 0 22 -21l164 -860h2l465 860q10 21 29 21h20q14 0 14 -9q0 -5 -4 -12l-577 -1063q-44 -81 -80.5 -132t-72 -78t-67 -36.5t-73.5 -9.5h-31q-17 0 -17 15q0 2 1 6z" />
<glyph unicode="z" horiz-adv-x="901" d="M41 20l2 13q3 14 16 30l738 855v2h-553q-20 0 -17 20l2 10q3 21 23 21h606q17 0 17 -15q0 -3 -1 -6l-2 -12q-2 -12 -18 -31l-737 -854v-2h579q20 0 17 -20l-2 -11q-3 -20 -23 -20h-631q-16 0 -16 15v5z" />
<glyph unicode="{" horiz-adv-x="600" d="M197 670l2 14q3 18 22 18q52 3 82 40t49 139l80 446q19 103 62.5 146t128.5 43h45q20 0 16 -21l-2 -10q-3 -21 -25 -21h-41q-55 0 -87 -32.5t-44 -106.5l-73 -424q-21 -115 -47.5 -160t-77.5 -67v-4q78 -47 45 -224l-76 -432q-13 -77 4.5 -106t73.5 -29h45q19 0 16 -20 l-2 -11q-3 -20 -24 -20h-41q-85 0 -114.5 46t-10.5 151l78 446q14 66 5.5 105t-26 54.5t-47.5 18.5q-19 3 -16 21z" />
<glyph unicode="|" horiz-adv-x="493" d="M254 -152v1647q0 21 20 21h15q20 0 20 -21v-1647q0 -20 -20 -20h-15q-20 0 -20 20z" />
<glyph unicode="}" horiz-adv-x="600" d="M-10 -152l2 11q3 20 24 20h41q55 0 87 32.5t44 106.5l76 433q21 115 47.5 160t77.5 67v4q-78 47 -45 223l74 424q13 77 -4.5 106t-73.5 29h-45q-19 0 -16 21l2 10q3 21 24 21h41q85 0 114.5 -46t10.5 -151l-76 -438q-17 -94 2.5 -134t65.5 -45q19 -3 16 -20l-2 -14 q-3 -19 -22 -19q-52 -3 -82 -39.5t-49 -138.5l-82 -455q-19 -102 -62.5 -145t-128.5 -43h-45q-19 0 -16 20z" />
<glyph unicode="~" d="M127 522q37 68 94 106t127 38q40 0 78.5 -14t60 -28.5t56.5 -41.5q32 -24 49 -35t48 -23t62 -12q54 0 95 27.5t82 93.5q10 16 26 6l8 -4q18 -11 7 -29q-37 -68 -94.5 -105.5t-127.5 -37.5q-40 0 -78.5 14.5t-59 28t-56.5 41.5q-30 23 -49 35t-49.5 23t-61.5 11 q-54 0 -94.5 -27t-81.5 -93q-10 -17 -27 -7l-8 5q-16 10 -6 28z" />
<glyph unicode="&#xa1;" horiz-adv-x="485" d="M63 -401l183 1005q4 21 22 21h13q8 0 12.5 -6t3.5 -15l-174 -1005q-3 -21 -23 -21h-20q-20 0 -17 21zM270 852l17 98q7 21 24 21h51q20 0 17 -21l-19 -98q-4 -21 -22 -21h-51q-9 0 -14 6t-3 15z" />
<glyph unicode="&#xa2;" d="M164 305q0 240 94 436q55 110 142 174.5t198 73.5l31 172q3 21 22 21h13q20 0 16 -21l-31 -170q208 -9 262 -196q6 -19 -10 -27l-14 -6q-19 -8 -25 10q-26 85 -79 125t-142 43l-160 -909q159 6 283 168q13 17 29 4l10 -8q15 -12 0 -31q-70 -91 -150.5 -136t-181.5 -48 l-29 -170q-4 -21 -22 -21h-12q-20 0 -17 21l29 172q-127 9 -191.5 92t-64.5 231zM219 317q0 -267 211 -284l160 905q-85 -11 -160.5 -67t-118.5 -146q-47 -95 -69.5 -209t-22.5 -199z" />
<glyph unicode="&#xa3;" d="M141 20l2 15q2 8 15 18q53 49 80.5 101t44.5 141l57 328q3 12 -10 12h-99q-19 0 -16 20l2 11q3 20 25 20h98q12 0 14 12l66 373q30 173 112.5 257.5t208.5 84.5q104 0 166.5 -62.5t71.5 -176.5q0 -20 -16 -25l-15 -4q-20 -6 -20 14q-6 97 -57.5 150t-131.5 53 q-104 0 -172.5 -74t-93.5 -215l-65 -375q-3 -12 8 -12h282q20 0 17 -20l-2 -11q-3 -20 -25 -20h-282q-10 0 -13 -12l-57 -330q-17 -98 -44 -151t-75 -89v-2h561q8 0 13 -5.5t4 -14.5l-2 -11q-3 -20 -21 -20h-614q-20 0 -17 20z" />
<glyph unicode="&#xa4;" d="M74 252q-13 13 4 27l162 139q-47 74 -47 172q0 198 135 330l-107 135q-12 15 2 26l10 9q17 14 27 0l111 -134q113 82 247 82q138 0 220 -88l161 140q15 12 27 0l10 -13q12 -12 -4 -26l-162 -142q48 -73 48 -170q0 -194 -136 -327l111 -138q12 -15 -2 -26l-10 -8 q-17 -14 -27 0l-113 135q-111 -84 -249 -84q-140 0 -222 88l-159 -139q-15 -12 -27 0zM246 596q0 -113 68 -183.5t180 -70.5q154 0 262 114t108 277q0 113 -68 183.5t-180 70.5q-154 0 -262 -114t-108 -277z" />
<glyph unicode="&#xa5;" d="M182 375l2 10q4 21 25 21h268q12 0 15 12l24 151q3 13 -10 13h-268q-20 0 -17 20l2 10q1 9 8.5 15t16.5 6h254v2l-199 733q-3 11 1.5 18t14.5 7h17q18 0 24 -21l195 -725h4l445 725q8 13 14 17t20 4h13q12 0 15 -8.5t-5 -20.5l-451 -729v-2h254q20 0 17 -21l-2 -10 q-3 -20 -25 -20h-270q-12 0 -15 -13l-24 -151q-3 -12 8 -12h272q9 0 14 -6t3 -15l-2 -10q-4 -21 -25 -21h-272q-10 0 -13 -12l-57 -322q-3 -20 -22 -20h-15q-19 0 -16 20l57 320q3 14 -10 14h-268q-9 0 -14 6t-3 15z" />
<glyph unicode="&#xa6;" horiz-adv-x="493" d="M254 -152v689q0 20 20 20h15q20 0 20 -20v-689q0 -20 -20 -20h-15q-20 0 -20 20zM254 815v680q0 21 20 21h15q20 0 20 -21v-680q0 -20 -20 -20h-15q-20 0 -20 20z" />
<glyph unicode="&#xa7;" horiz-adv-x="997" d="M106 -86q4 22 19 25l18 2q10 1 14.5 -4t2.5 -13q-43 -266 200 -266q124 0 203.5 82.5t79.5 216.5q0 90 -54 138t-194 75q-213 41 -213 256q0 166 79.5 286.5t221.5 147.5v2q-69 28 -107 83t-38 126q0 149 88 247.5t248 98.5q119 0 181 -72.5t44 -199.5q-3 -20 -20 -23 l-17 -2q-10 -1 -14 4t-2 13q16 103 -29 166t-153 63q-124 0 -197.5 -80.5t-73.5 -204.5q0 -82 54 -133t178 -80q213 -46 213 -258q0 -161 -76 -280t-213 -152v-2q72 -25 110.5 -79t38.5 -132q0 -156 -97 -257t-251 -101q-140 0 -202.5 81t-41.5 226zM238 434 q0 -102 60.5 -159.5t160.5 -57.5q147 0 235 110t88 275q0 102 -60.5 159.5t-160.5 57.5q-147 0 -235 -110t-88 -275z" />
<glyph unicode="&#xa8;" horiz-adv-x="821" d="M319 1294l15 78q4 21 22 21h45q9 0 14 -6t3 -15l-15 -78q-3 -20 -22 -20h-45q-20 0 -17 20zM715 1294l14 78q3 21 23 21h45q19 0 16 -21l-14 -78q-3 -20 -23 -20h-45q-19 0 -16 20z" />
<glyph unicode="&#xa9;" horiz-adv-x="1705" d="M178 696q0 151 55 284t150 228t228 150t284 55t284 -55t228 -150t150 -228t55 -284q0 -201 -93.5 -365t-258 -257.5t-365.5 -93.5t-365.5 93.5t-258 257.5t-93.5 365zM231 696q0 -141 51 -265t139 -211.5t211 -138t263 -50.5q139 0 262 50.5t210.5 138t138 211.5 t50.5 265t-50.5 265t-138 212t-210.5 138.5t-262 50.5q-187 0 -339 -86t-238.5 -238.5t-86.5 -341.5zM604 696q0 125 23 199q32 99 104 151t174 52q93 0 161.5 -44t104.5 -114q4 -8 2 -15t-10 -10l-8 -4q-17 -7 -27 9q-76 129 -223 129q-177 0 -231 -168q-21 -65 -21 -185 t21 -184q54 -168 231 -168q147 0 223 129q9 15 27 8l8 -4q18 -7 8 -24q-36 -70 -104.5 -114t-161.5 -44q-102 0 -174 52t-104 151q-23 74 -23 198z" />
<glyph unicode="&#xaa;" horiz-adv-x="671" d="M184 938q0 103 71 154t191 51h150q11 0 14 12l11 57q14 78 -16 113t-122 35q-85 0 -161 -51q-22 -15 -29 2l-4 10q-9 18 8 29q33 25 86.5 41t112.5 16q111 0 151 -49.5t21 -153.5l-68 -381q-3 -20 -20 -20h-11q-8 0 -12.5 5.5t-3.5 14.5l8 47h-2q-30 -38 -84.5 -58.5 t-118.5 -20.5q-78 0 -125 40t-47 107zM236 944q0 -50 36.5 -78t100.5 -28q75 0 136.5 41.5t70.5 93.5l18 110q3 13 -10 13h-146q-96 0 -151 -39t-55 -113z" />
<glyph unicode="&#xab;" horiz-adv-x="976" d="M125 526q-13 16 4 29l365 324q6 6 12.5 3t5.5 -12l-4 -30q-3 -19 -19 -35l-290 -260q-9 -9 -4 -17l196 -260q11 -14 8 -35l-4 -26q-1 -9 -8.5 -10.5t-11.5 4.5zM498 526q-13 16 4 29l364 324q6 6 13 3t6 -12l-4 -30q-3 -19 -19 -35l-291 -260q-9 -9 -4 -17l197 -260 q11 -14 8 -35l-4 -26q-1 -9 -8.5 -10.5t-11.5 4.5z" />
<glyph unicode="&#xac;" d="M125 561v10q0 21 20 21h740q20 0 20 -21v-282q0 -21 -20 -21h-15q-20 0 -20 21v239q0 13 -12 13h-693q-20 0 -20 20z" />
<glyph unicode="&#xad;" horiz-adv-x="722" d="M115 543l2 12q3 16 22 16h484q19 0 16 -20l-2 -12q-3 -17 -23 -17h-483q-19 0 -16 21z" />
<glyph unicode="&#xae;" horiz-adv-x="952" d="M174 1010q0 169 112 281t281 112q170 0 283 -112t113 -281q0 -170 -113 -283t-283 -113q-169 0 -281 113t-112 283zM221 1010q0 -151 98.5 -251t247.5 -100t248.5 100t99.5 251q0 149 -99.5 248.5t-248.5 99.5t-247.5 -99.5t-98.5 -248.5zM430 809v405q0 19 19 19h153 q61 0 96 -34.5t35 -88.5q0 -45 -24 -79t-66 -44l88 -176q9 -20 -10 -20h-19q-12 0 -20 14l-90 180h-111q-6 0 -6 -4v-172q0 -18 -18 -18h-8q-19 0 -19 18zM475 1032q0 -4 6 -4h121q43 0 64.5 22t21.5 60q0 37 -21.5 58.5t-64.5 21.5h-121q-6 0 -6 -4v-154z" />
<glyph unicode="&#xaf;" horiz-adv-x="821" d="M313 1325l2 10q3 21 23 21h461q19 0 16 -21l-2 -10q-3 -20 -22 -20h-461q-20 0 -17 20z" />
<glyph unicode="&#xb0;" horiz-adv-x="858" d="M250 1114q0 124 82 206.5t207 82.5q124 0 205 -82t81 -207q0 -123 -81 -205t-205 -82t-206.5 82t-82.5 205zM305 1114q0 -101 67 -168t167 -67t165.5 67t65.5 168q0 102 -65 170t-166 68t-167.5 -68t-66.5 -170z" />
<glyph unicode="&#xb1;" d="M125 20v11q0 20 20 20h740q20 0 20 -20v-11q0 -20 -20 -20h-740q-20 0 -20 20zM125 561v10q0 21 20 21h330q12 0 12 12v334q0 20 21 20h14q21 0 21 -20v-334q0 -12 12 -12h330q20 0 20 -21v-10q0 -20 -20 -20h-330q-12 0 -12 -13v-333q0 -9 -6 -15t-15 -6h-14q-9 0 -15 6 t-6 15v333q0 13 -12 13h-330q-20 0 -20 20z" />
<glyph unicode="&#xb2;" horiz-adv-x="634" d="M162 901l2 8q3 13 16 29l387 395q109 113 109 209q0 62 -36.5 97.5t-100.5 35.5q-66 0 -116.5 -38t-78.5 -105q-6 -19 -25 -16l-12 2q-16 3 -10 24q26 78 92 130t154 52q87 0 135.5 -50t48.5 -124q0 -124 -123 -250l-364 -368v-2h370q8 0 13 -6t4 -15l-2 -8 q-1 -9 -8 -14.5t-15 -5.5h-424q-19 0 -16 20z" />
<glyph unicode="&#xb3;" horiz-adv-x="634" d="M186 1028q-3 20 15 25l12 4q20 6 23 -15q22 -124 159 -124q92 0 154.5 64.5t62.5 158.5q0 66 -40.5 107.5t-110.5 41.5h-33q-8 0 -12 6t-2 15l2 10q3 18 22 18h27q80 0 140.5 60.5t60.5 146.5q0 58 -37 93.5t-103 35.5q-67 0 -114 -31.5t-72 -84.5q-10 -20 -25 -17l-12 2 q-16 3 -10 25q28 66 88.5 110.5t150.5 44.5q86 0 135.5 -47.5t49.5 -124.5q0 -74 -38.5 -136.5t-111.5 -98.5v-2q39 -17 68 -60.5t29 -105.5q0 -121 -76 -201t-199 -80q-89 0 -141 47t-62 113z" />
<glyph unicode="&#xb4;" horiz-adv-x="821" d="M419 1152.5q-2 5.5 5 14.5l192 246q18 21 37 21h23q9 0 11.5 -7t-3.5 -14l-209 -246q-18 -20 -37 -20h-8q-9 0 -11 5.5z" />
<glyph unicode="&#xb6;" horiz-adv-x="1036" d="M193 885q0 219 144.5 363.5t367.5 144.5h276q19 0 16 -21l-303 -1720q-4 -21 -22 -21h-17q-19 0 -16 21l295 1677q3 12 -10 12h-215q-10 0 -13 -12l-295 -1677q-3 -21 -22 -21h-17q-20 0 -16 21l160 905q-149 9 -231 98t-82 230z" />
<glyph unicode="&#xb7;" horiz-adv-x="399" d="M162 496l16 98q3 20 23 20h51q19 0 16 -20l-16 -98q-4 -21 -23 -21h-51q-20 0 -16 21z" />
<glyph unicode="&#xb8;" horiz-adv-x="821" d="M206.5 -289q-3.5 6 0.5 15l151 274q11 20 29 20h10q9 0 13 -5.5t0 -14.5l-140 -274q-10 -21 -34 -21h-17q-9 0 -12.5 6z" />
<glyph unicode="&#xb9;" horiz-adv-x="634" d="M354 1552l2 17q2 17 19 28l157 103q18 12 33 12h10q9 0 14.5 -5.5t4.5 -14.5l-139 -791q-3 -20 -25 -20h-10q-20 0 -17 20l129 741h-2l-157 -100q-8 -5 -14 -2t-5 12z" />
<glyph unicode="&#xba;" horiz-adv-x="671" d="M201 1001q0 137 55 250q75 156 242 156q91 0 141.5 -54.5t50.5 -158.5q0 -137 -55 -250q-75 -156 -242 -156q-91 0 -141.5 54.5t-50.5 158.5zM252 1006q0 -170 147 -170q124 0 191 127q23 44 36 110t13 117q0 170 -145 170q-126 0 -193 -127q-23 -44 -36 -110t-13 -117z " />
<glyph unicode="&#xbb;" horiz-adv-x="976" d="M117 209l4 31q3 19 18 34l291 261q9 9 4 16l-196 260q-12 15 -9 35l4 26q1 9 9 11t12 -4l250 -326q13 -16 -4 -29l-365 -323q-6 -6 -12.5 -3.5t-5.5 11.5zM489 209l5 31q3 19 18 34l291 261q9 9 4 16l-197 260q-11 14 -8 35l4 26q1 9 9 11t12 -4l250 -326q12 -15 -5 -29 l-364 -323q-6 -6 -13 -3.5t-6 11.5z" />
<glyph unicode="&#xbc;" horiz-adv-x="1609" d="M299 -14.5q-3 5.5 4 14.5l1018 1393q14 20 31 20h18q21 0 8 -20l-1016 -1393q-17 -20 -32 -20h-19q-9 0 -12 5.5zM332 1233l2 16q3 19 18 29l158 102q20 13 33 13h10q9 0 14 -6t4 -15l-139 -790q-4 -21 -24 -21h-11q-19 0 -16 21l129 741h-2l-158 -100q-8 -5 -13.5 -2 t-4.5 12zM881 195l2 10q2 10 14 28l373 578q11 20 26 20h23q8 0 11 -6.5t-3 -13.5l-379 -586v-2h275q11 0 14 13l39 221q3 20 22 20h15q17 0 14 -20l-37 -221q-3 -13 10 -13h86q20 0 17 -20l-2 -10q-3 -19 -21 -19h-90q-11 0 -14 -12l-25 -142q-3 -20 -22 -20h-15 q-17 0 -14 20l25 142q3 12 -11 12h-317q-8 0 -12.5 6t-3.5 15z" />
<glyph unicode="&#xbd;" horiz-adv-x="1665" d="M299 -14.5q-3 5.5 4 14.5l1018 1393q14 20 31 20h18q21 0 8 -20l-1016 -1393q-17 -20 -32 -20h-19q-9 0 -12 5.5zM332 1233l2 16q3 19 18 29l158 102q20 13 33 13h10q9 0 14 -6t4 -15l-139 -790q-4 -21 -24 -21h-11q-19 0 -16 21l129 741h-2l-158 -100q-8 -5 -13.5 -2 t-4.5 12zM963 20l2 9q2 12 16 28l387 396q109 113 109 209q0 62 -37 97.5t-101 35.5q-66 0 -116 -38t-78 -106q-6 -19 -25 -16l-12 2q-16 3 -10 25q26 79 92 130.5t153 51.5t136 -50t49 -124q0 -124 -123 -250l-365 -369v-2h371q8 0 12.5 -5.5t3.5 -14.5l-2 -9 q-1 -9 -7.5 -14.5t-14.5 -5.5h-424q-19 0 -16 20z" />
<glyph unicode="&#xbe;" horiz-adv-x="1746" d="M250 709q-3 19 14 24l12 4q20 6 23 -14q10 -56 49 -90.5t111 -34.5q92 0 154.5 64.5t62.5 158.5q0 66 -41 108t-111 42h-32q-18 0 -15 20l2 10q3 19 23 19h26q80 0 140.5 60.5t60.5 146.5q0 58 -36.5 93.5t-102.5 35.5q-67 0 -114.5 -32t-72.5 -85q-9 -18 -24 -16l-12 2 q-17 3 -11 24q28 66 89 111t151 45q86 0 135 -47.5t49 -124.5q0 -75 -38 -137.5t-111 -98.5v-2q39 -17 67.5 -60.5t28.5 -105.5q0 -121 -75.5 -200.5t-198.5 -79.5q-89 0 -141 47t-62 113zM436 -14.5q-3 5.5 4 14.5l1018 1393q14 20 31 20h18q9 0 12 -5.5t-3 -14.5 l-1016 -1393q-17 -20 -33 -20h-18q-10 0 -13 5.5zM1018 195l2 10q2 10 14 28l373 578q11 20 27 20h22q8 0 11 -6.5t-3 -13.5l-379 -586v-2h275q11 0 14 13l39 221q3 20 23 20h14q17 0 14 -20l-37 -221q-3 -13 11 -13h86q19 0 16 -20l-2 -10q-3 -19 -20 -19h-91 q-11 0 -14 -12l-24 -142q-3 -20 -23 -20h-14q-18 0 -15 20l25 142q3 12 -10 12h-318q-8 0 -12.5 6t-3.5 15z" />
<glyph unicode="&#xbf;" horiz-adv-x="862" d="M20 -170q0 91 47.5 182t149.5 199l109 117q59 64 78.5 99.5t33.5 102.5l17 82q3 21 22 21h17q20 0 16 -21l-16 -82q-13 -68 -35.5 -114.5t-71.5 -98.5l-108 -114q-114 -120 -159.5 -201.5t-45.5 -167.5q0 -106 62 -165.5t163 -59.5q112 0 196.5 70t127.5 196q6 19 24 16 l17 -4q16 -3 10 -22q-45 -142 -145.5 -224.5t-237.5 -82.5q-127 0 -199 75t-72 197zM471 852l16 98q3 21 23 21h51q9 0 14 -6t3 -15l-17 -98q-3 -21 -22 -21h-52q-19 0 -16 21z" />
<glyph unicode="&#xc0;" horiz-adv-x="1161" d="M4 20l711 1352q11 21 24 21h21q14 0 18 -21l230 -1352q1 -9 -4.5 -14.5t-14.5 -5.5h-16q-21 0 -23 20l-63 383h-619l-200 -383q-10 -20 -29 -20h-25q-20 0 -10 20zM297 457h580l-140 833h-4zM593 1812.5q3 6.5 11 6.5h21q18 0 30 -21l119 -209q6 -9 2.5 -14.5t-12.5 -5.5 h-6q-12 0 -18 3.5t-15 16.5l-131 209q-4 8 -1 14.5z" />
<glyph unicode="&#xc1;" horiz-adv-x="1161" d="M4 20l711 1352q11 21 24 21h21q14 0 18 -21l230 -1352q1 -9 -4.5 -14.5t-14.5 -5.5h-16q-21 0 -23 20l-63 383h-619l-200 -383q-10 -20 -29 -20h-25q-20 0 -10 20zM297 457h580l-140 833h-4zM762 1575.5q-1 6.5 8 15.5l186 207q18 21 39 21h23q9 0 11 -6.5t-5 -14.5 l-203 -209q-20 -20 -39 -20h-10q-9 0 -10 6.5z" />
<glyph unicode="&#xc2;" horiz-adv-x="1161" d="M4 20l711 1352q11 21 24 21h21q14 0 18 -21l230 -1352q1 -9 -4.5 -14.5t-14.5 -5.5h-16q-21 0 -23 20l-63 383h-619l-200 -383q-10 -20 -29 -20h-25q-20 0 -10 20zM297 457h580l-140 833h-4zM578.5 1555q-1.5 7 5.5 14l211 246q15 18 32 18h11q15 0 24 -18l127 -246 q5 -7 2 -14t-10 -7h-8q-18 0 -29 19l-115 213h-4l-192 -213q-16 -19 -35 -19h-10q-8 0 -9.5 7z" />
<glyph unicode="&#xc3;" horiz-adv-x="1161" d="M4 20l711 1352q11 21 24 21h21q14 0 18 -21l230 -1352q1 -9 -4.5 -14.5t-14.5 -5.5h-16q-21 0 -23 20l-63 383h-619l-200 -383q-10 -20 -29 -20h-25q-20 0 -10 20zM297 457h580l-140 833h-4zM575 1647l5 28q3 16 18 29q56 53 123 53q51 0 104 -43q50 -37 84 -37 q49 0 119 70q6 6 12 4t4 -10l-4 -29q-3 -16 -18 -29q-56 -53 -123 -53q-51 0 -104 43q-50 37 -84 37q-49 0 -119 -70q-6 -6 -12.5 -3.5t-4.5 10.5z" />
<glyph unicode="&#xc4;" horiz-adv-x="1161" d="M4 20l711 1352q11 21 24 21h21q14 0 18 -21l230 -1352q1 -9 -4.5 -14.5t-14.5 -5.5h-16q-21 0 -23 20l-63 383h-619l-200 -383q-10 -20 -29 -20h-25q-20 0 -10 20zM297 457h580l-140 833h-4zM561 1651l14 78q3 20 23 20h45q19 0 16 -20l-14 -78q-3 -21 -22 -21h-45 q-20 0 -17 21zM956 1651l15 78q3 20 22 20h45q20 0 17 -20l-15 -78q-4 -21 -22 -21h-45q-9 0 -14 6t-3 15z" />
<glyph unicode="&#xc5;" horiz-adv-x="1161" d="M4 20l711 1352q11 21 24 21h21q14 0 18 -21l230 -1352q1 -9 -4.5 -14.5t-14.5 -5.5h-16q-21 0 -23 20l-63 383h-619l-200 -383q-10 -20 -29 -20h-25q-20 0 -10 20zM297 457h580l-140 833h-4zM645 1669q0 82 55.5 138.5t139.5 56.5q59 0 97 -39.5t38 -98.5 q0 -82 -55.5 -138t-139.5 -56q-59 0 -97 39t-38 98zM694 1675q0 -44 26 -71t71 -27q56 0 95.5 41.5t39.5 101.5q0 44 -26 71.5t-71 27.5q-56 0 -95.5 -42t-39.5 -102z" />
<glyph unicode="&#xc6;" horiz-adv-x="1878" d="M2.5 6q-2.5 6 3.5 14l1102 1354q16 19 35 19h770q19 0 16 -21l-2 -12q-3 -21 -24 -21h-684q-12 0 -15 -12l-100 -577q-3 -15 12 -15h588q19 0 16 -20l-2 -13q-3 -20 -24 -20h-590q-11 0 -14 -12l-107 -604q-3 -13 10 -13h684q20 0 17 -20l-2 -13q-3 -20 -25 -20h-733 q-19 0 -16 20l65 371q3 12 -10 12h-586l-309 -383q-15 -20 -33 -20h-31q-9 0 -11.5 6zM430 457h551q11 0 14 12l154 864h-6z" />
<glyph unicode="&#xc7;" horiz-adv-x="1087" d="M137 365q0 143 46 384.5t104 360.5q76 158 183 230.5t261 72.5q119 0 211 -63t133 -189q5 -16 -10 -22l-16 -6q-8 -3 -14.5 -0.5t-8.5 8.5q-77 219 -299 219q-130 0 -225 -63.5t-160 -198.5q-58 -118 -102.5 -351.5t-44.5 -371.5q0 -165 80 -253.5t235 -88.5 q119 0 207 53t162 162q9 12 22 6l19 -10q13 -8 2 -27q-150 -237 -420 -237l-129 -254q-11 -21 -35 -21h-16q-9 0 -13 6t0 15l142 256q-149 14 -231.5 114t-82.5 269z" />
<glyph unicode="&#xc8;" horiz-adv-x="1085" d="M125 20l237 1352q4 21 23 21h735q20 0 17 -21l-2 -12q-3 -21 -25 -21h-684q-11 0 -14 -12l-101 -577q-3 -15 13 -15h587q20 0 17 -20l-2 -13q-3 -20 -25 -20h-590q-11 0 -14 -12l-107 -604q-3 -13 11 -13h684q19 0 16 -20l-2 -13q-3 -20 -25 -20h-733q-19 0 -16 20z M622 1812.5q3 6.5 11 6.5h20q19 0 31 -21l119 -209q6 -9 2.5 -14.5t-12.5 -5.5h-7q-12 0 -17.5 3.5t-14.5 16.5l-131 209q-4 8 -1 14.5z" />
<glyph unicode="&#xc9;" horiz-adv-x="1085" d="M125 20l237 1352q4 21 23 21h735q20 0 17 -21l-2 -12q-3 -21 -25 -21h-684q-11 0 -14 -12l-101 -577q-3 -15 13 -15h587q20 0 17 -20l-2 -13q-3 -20 -25 -20h-590q-11 0 -14 -12l-107 -604q-3 -13 11 -13h684q19 0 16 -20l-2 -13q-3 -20 -25 -20h-733q-19 0 -16 20z M725 1575.5q-1 6.5 8 15.5l187 207q18 21 38 21h23q9 0 11 -6.5t-5 -14.5l-203 -209q-20 -20 -39 -20h-10q-9 0 -10 6.5z" />
<glyph unicode="&#xca;" horiz-adv-x="1085" d="M125 20l237 1352q4 21 23 21h735q20 0 17 -21l-2 -12q-3 -21 -25 -21h-684q-11 0 -14 -12l-101 -577q-3 -15 13 -15h587q20 0 17 -20l-2 -13q-3 -20 -25 -20h-590q-11 0 -14 -12l-107 -604q-3 -13 11 -13h684q19 0 16 -20l-2 -13q-3 -20 -25 -20h-733q-19 0 -16 20z M565.5 1555q-1.5 7 5.5 14l211 246q15 18 33 18h10q16 0 25 -18l127 -246q5 -7 2 -14t-10 -7h-8q-18 0 -29 19l-115 213h-4l-192 -213q-16 -19 -35 -19h-11q-8 0 -9.5 7z" />
<glyph unicode="&#xcb;" horiz-adv-x="1085" d="M125 20l237 1352q4 21 23 21h735q20 0 17 -21l-2 -12q-3 -21 -25 -21h-684q-11 0 -14 -12l-101 -577q-3 -15 13 -15h587q20 0 17 -20l-2 -13q-3 -20 -25 -20h-590q-11 0 -14 -12l-107 -604q-3 -13 11 -13h684q19 0 16 -20l-2 -13q-3 -20 -25 -20h-733q-19 0 -16 20z M555 1651l14 78q3 20 23 20h45q19 0 16 -20l-14 -78q-3 -21 -23 -21h-45q-19 0 -16 21zM950 1651l15 78q3 20 22 20h45q20 0 17 -20l-15 -78q-4 -21 -22 -21h-45q-9 0 -14 6t-3 15z" />
<glyph unicode="&#xcc;" horiz-adv-x="460" d="M125 20l237 1352q4 21 23 21h18q9 0 14 -6t3 -15l-238 -1352q-3 -20 -22 -20h-19q-19 0 -16 20zM251 1812.5q3 6.5 11 6.5h21q18 0 30 -21l119 -209q6 -9 2.5 -14.5t-12.5 -5.5h-6q-12 0 -18 3.5t-15 16.5l-131 209q-4 8 -1 14.5z" />
<glyph unicode="&#xcd;" horiz-adv-x="460" d="M125 20l237 1352q4 21 23 21h18q9 0 14 -6t3 -15l-238 -1352q-3 -20 -22 -20h-19q-19 0 -16 20zM406 1575.5q-1 6.5 8 15.5l186 207q18 21 39 21h23q9 0 11 -6.5t-5 -14.5l-203 -209q-20 -20 -39 -20h-10q-9 0 -10 6.5z" />
<glyph unicode="&#xce;" horiz-adv-x="460" d="M125 20l237 1352q4 21 23 21h18q9 0 14 -6t3 -15l-238 -1352q-3 -20 -22 -20h-19q-19 0 -16 20zM217.5 1555q-1.5 7 5.5 14l211 246q15 18 33 18h10q16 0 25 -18l127 -246q5 -7 2 -14t-10 -7h-9q-17 0 -28 19l-115 213h-4l-193 -213q-16 -19 -34 -19h-11q-8 0 -9.5 7z " />
<glyph unicode="&#xcf;" horiz-adv-x="460" d="M125 20l237 1352q4 21 23 21h18q9 0 14 -6t3 -15l-238 -1352q-3 -20 -22 -20h-19q-19 0 -16 20zM215 1651l14 78q3 20 23 20h45q19 0 16 -20l-14 -78q-3 -21 -23 -21h-45q-19 0 -16 21zM610 1651l15 78q3 20 22 20h45q20 0 17 -20l-15 -78q-4 -21 -22 -21h-45q-9 0 -14 6 t-3 15z" />
<glyph unicode="&#xd0;" horiz-adv-x="1239" d="M123 705l2 10q3 20 25 20h88q11 0 14 13l110 624q4 21 23 21h395q181 0 278 -88t97 -267q0 -141 -49 -396t-107 -374q-69 -143 -180 -205.5t-282 -62.5h-396q-19 0 -16 20l115 652q3 12 -11 12h-90q-19 0 -16 21zM190 66q-3 -13 9 -13h342q152 0 250 57t157 177 q56 115 103 359t47 386q0 157 -80 232t-248 75h-344q-12 0 -14 -12l-103 -579q-3 -13 8 -13h287q20 0 17 -20l-3 -10q-3 -21 -24 -21h-283q-11 0 -14 -12z" />
<glyph unicode="&#xd1;" horiz-adv-x="1275" d="M125 20l237 1352q4 21 23 21h16q19 0 27 -21l524 -1251h4l222 1251q4 21 22 21h19q19 0 16 -21l-238 -1352q-3 -20 -22 -20h-14q-22 0 -29 20l-524 1258h-5l-221 -1258q-3 -20 -22 -20h-19q-8 0 -12.5 5.5t-3.5 14.5zM614 1647l4 28q3 15 19 29q56 53 123 53 q51 0 104 -43q50 -37 84 -37q49 0 119 70q6 6 12 4t4 -10l-4 -29q-3 -16 -18 -29q-56 -53 -123 -53q-51 0 -104 43q-50 37 -84 37q-49 0 -119 -70q-6 -6 -12.5 -3.5t-4.5 10.5z" />
<glyph unicode="&#xd2;" horiz-adv-x="1187" d="M139 365q0 143 46 384.5t104 360.5q75 155 189 229t278 74q175 0 270.5 -101t95.5 -284q0 -143 -45.5 -384.5t-103.5 -360.5q-75 -155 -189 -229t-278 -74q-175 0 -271 101t-96 284zM197 375q0 -165 80.5 -253.5t236.5 -88.5q276 0 404 262q58 118 102.5 351.5 t44.5 371.5q0 165 -80.5 253.5t-236.5 88.5q-276 0 -404 -262q-58 -118 -102.5 -351.5t-44.5 -371.5zM613.5 1812.5q3.5 6.5 11.5 6.5h20q19 0 31 -21l119 -209q6 -9 2 -14.5t-13 -5.5h-6q-12 0 -18 3.5t-15 16.5l-131 209q-4 8 -0.5 14.5z" />
<glyph unicode="&#xd3;" horiz-adv-x="1187" d="M139 365q0 143 46 384.5t104 360.5q75 155 189 229t278 74q175 0 270.5 -101t95.5 -284q0 -143 -45.5 -384.5t-103.5 -360.5q-75 -155 -189 -229t-278 -74q-175 0 -271 101t-96 284zM197 375q0 -165 80.5 -253.5t236.5 -88.5q276 0 404 262q58 118 102.5 351.5 t44.5 371.5q0 165 -80.5 253.5t-236.5 88.5q-276 0 -404 -262q-58 -118 -102.5 -351.5t-44.5 -371.5zM783 1575.5q-1 6.5 8 15.5l186 207q18 21 39 21h22q9 0 11 -6.5t-5 -14.5l-202 -209q-20 -20 -39 -20h-10q-9 0 -10 6.5z" />
<glyph unicode="&#xd4;" horiz-adv-x="1187" d="M139 365q0 143 46 384.5t104 360.5q75 155 189 229t278 74q175 0 270.5 -101t95.5 -284q0 -143 -45.5 -384.5t-103.5 -360.5q-75 -155 -189 -229t-278 -74q-175 0 -271 101t-96 284zM197 375q0 -165 80.5 -253.5t236.5 -88.5q276 0 404 262q58 118 102.5 351.5 t44.5 371.5q0 165 -80.5 253.5t-236.5 88.5q-276 0 -404 -262q-58 -118 -102.5 -351.5t-44.5 -371.5zM588.5 1577.5q-1.5 6.5 5.5 13.5l211 246q15 18 33 18h10q15 0 24 -18l127 -246q5 -7 2 -13.5t-10 -6.5h-8q-19 0 -29 18l-114 213h-4l-193 -213q-15 -18 -35 -18h-10 q-8 0 -9.5 6.5z" />
<glyph unicode="&#xd5;" horiz-adv-x="1187" d="M139 365q0 143 46 384.5t104 360.5q75 155 189 229t278 74q175 0 270.5 -101t95.5 -284q0 -143 -45.5 -384.5t-103.5 -360.5q-75 -155 -189 -229t-278 -74q-175 0 -271 101t-96 284zM197 375q0 -165 80.5 -253.5t236.5 -88.5q276 0 404 262q58 118 102.5 351.5 t44.5 371.5q0 165 -80.5 253.5t-236.5 88.5q-276 0 -404 -262q-58 -118 -102.5 -351.5t-44.5 -371.5zM582 1647l4 28q3 16 18 29q56 53 123 53q51 0 104 -43q50 -37 84 -37q49 0 119 70q6 6 12.5 4t4.5 -10l-4 -29q-3 -15 -19 -29q-56 -53 -123 -53q-51 0 -104 43 q-50 37 -84 37q-49 0 -119 -70q-6 -6 -12 -3.5t-4 10.5z" />
<glyph unicode="&#xd6;" horiz-adv-x="1187" d="M139 365q0 143 46 384.5t104 360.5q75 155 189 229t278 74q175 0 270.5 -101t95.5 -284q0 -143 -45.5 -384.5t-103.5 -360.5q-75 -155 -189 -229t-278 -74q-175 0 -271 101t-96 284zM197 375q0 -165 80.5 -253.5t236.5 -88.5q276 0 404 262q58 118 102.5 351.5 t44.5 371.5q0 165 -80.5 253.5t-236.5 88.5q-276 0 -404 -262q-58 -118 -102.5 -351.5t-44.5 -371.5zM567 1651l15 78q3 20 22 20h45q20 0 17 -20l-15 -78q-3 -21 -22 -21h-45q-20 0 -17 21zM963 1651l14 78q3 20 22 20h45q20 0 17 -20l-14 -78q-3 -21 -23 -21h-45 q-19 0 -16 21z" />
<glyph unicode="&#xd7;" d="M211 272.5q0 8.5 6 14.5l272 270q8 8 0 16l-272 271q-14 14 0 28l8 9q6 6 14.5 6t14.5 -6l270 -271q8 -8 17 0l272 271q6 6 14.5 6t14.5 -6l8 -9q14 -14 0 -28l-272 -271q-8 -8 0 -16l272 -270q14 -15 0 -29l-8 -8q-14 -14 -29 0l-272 270q-9 8 -17 0l-270 -270 q-14 -14 -29 0l-8 8q-6 6 -6 14.5z" />
<glyph unicode="&#xd8;" horiz-adv-x="1187" d="M78 -41l121 166q-60 89 -60 240q0 143 46 384.5t104 360.5q75 155 189 229t278 74q185 0 278 -110l94 131q13 20 33 20h17q21 0 8 -20l-123 -170q59 -92 59 -236q0 -143 -45.5 -384.5t-103.5 -360.5q-75 -155 -189 -229t-278 -74q-186 0 -279 110l-92 -131 q-13 -20 -33 -20h-16q-21 0 -8 20zM197 375q0 -120 39 -197l763 1073q-83 109 -251 109q-276 0 -404 -262q-58 -118 -102.5 -351.5t-44.5 -371.5zM262 139q80 -106 252 -106q276 0 404 262q58 118 102.5 351.5t44.5 371.5q0 115 -41 192z" />
<glyph unicode="&#xd9;" horiz-adv-x="1243" d="M190 475l158 897q4 21 23 21h18q9 0 14 -6t3 -15l-158 -899q-76 -440 315 -440q188 0 293.5 101.5t147.5 338.5l157 899q3 21 23 21h18q20 0 17 -21l-158 -897q-45 -262 -165 -378.5t-337 -116.5t-314.5 124t-54.5 371zM669 1812.5q3 6.5 11 6.5h20q19 0 31 -21l119 -209 q6 -9 2.5 -14.5t-12.5 -5.5h-6q-12 0 -18 3.5t-15 16.5l-131 209q-4 8 -1 14.5z" />
<glyph unicode="&#xda;" horiz-adv-x="1243" d="M190 475l158 897q4 21 23 21h18q9 0 14 -6t3 -15l-158 -899q-76 -440 315 -440q188 0 293.5 101.5t147.5 338.5l157 899q3 21 23 21h18q20 0 17 -21l-158 -897q-45 -262 -165 -378.5t-337 -116.5t-314.5 124t-54.5 371zM758 1575.5q-1 6.5 8 15.5l186 207q18 21 39 21h23 q9 0 11 -6.5t-5 -14.5l-203 -209q-20 -20 -39 -20h-10q-9 0 -10 6.5z" />
<glyph unicode="&#xdb;" horiz-adv-x="1243" d="M190 475l158 897q4 21 23 21h18q9 0 14 -6t3 -15l-158 -899q-76 -440 315 -440q188 0 293.5 101.5t147.5 338.5l157 899q3 21 23 21h18q20 0 17 -21l-158 -897q-45 -262 -165 -378.5t-337 -116.5t-314.5 124t-54.5 371zM621.5 1555q-1.5 7 5.5 14l211 246q15 18 32 18h11 q15 0 24 -18l127 -246q5 -7 2 -14t-10 -7h-8q-18 0 -29 19l-115 213h-4l-192 -213q-16 -19 -35 -19h-10q-8 0 -9.5 7z" />
<glyph unicode="&#xdc;" horiz-adv-x="1243" d="M190 475l158 897q4 21 23 21h18q9 0 14 -6t3 -15l-158 -899q-76 -440 315 -440q188 0 293.5 101.5t147.5 338.5l157 899q3 21 23 21h18q20 0 17 -21l-158 -897q-45 -262 -165 -378.5t-337 -116.5t-314.5 124t-54.5 371zM604 1651l14 78q3 20 23 20h45q19 0 16 -20 l-14 -78q-4 -21 -22 -21h-45q-9 0 -14 6t-3 15zM999 1651l15 78q3 20 22 20h45q20 0 17 -20l-15 -78q-3 -21 -22 -21h-45q-20 0 -17 21z" />
<glyph unicode="&#xdd;" horiz-adv-x="995" d="M225 1368q-3 11 2 18t15 7h12q21 0 29 -21l241 -729h4l500 729q13 21 35 21h16q10 0 13.5 -8t-2.5 -17l-545 -797l-96 -551q-3 -20 -23 -20h-18q-20 0 -17 20l96 553zM666 1575.5q-1 6.5 8 15.5l186 207q18 21 39 21h23q9 0 11 -6.5t-5 -14.5l-203 -209q-20 -20 -39 -20 h-10q-9 0 -10 6.5z" />
<glyph unicode="&#xde;" horiz-adv-x="1136" d="M125 20l237 1352q4 21 23 21h18q9 0 14 -6t3 -15l-49 -282q-3 -13 10 -13h371q164 0 252 -75.5t88 -213.5q0 -214 -130 -337t-341 -123h-373q-12 0 -15 -13l-51 -295q-3 -20 -22 -20h-19q-19 0 -16 20zM248 393q-3 -12 10 -12h365q192 2 302.5 107t110.5 296 q0 118 -74 179t-219 61h-372q-12 0 -15 -12z" />
<glyph unicode="&#xdf;" horiz-adv-x="1064" d="M121 20l176 1004q35 198 134.5 293.5t289.5 95.5q141 0 214 -60t73 -165q0 -106 -52.5 -192.5t-154.5 -112.5v-4q127 -47 127 -201q0 -79 -33 -259.5t-64 -242.5q-52 -104 -135 -146t-211 -42h-16q-19 0 -16 20l2 10q3 21 22 21h19q107 0 177.5 37.5t110.5 120.5 q27 56 58.5 229t31.5 244q0 99 -55 142.5t-174 43.5h-22q-9 0 -14 6t-3 15l2 10q3 20 25 20h31q138 0 214 74t76 203q0 178 -241 178q-160 0 -244.5 -79.5t-116.5 -262.5l-176 -1000q-3 -20 -22 -20h-17q-19 0 -16 20z" />
<glyph unicode="&#xe0;" horiz-adv-x="999" d="M104 211q0 160 101.5 243t296.5 83h258q11 0 14 12l25 131q18 94 5.5 152t-63 83t-153.5 25q-162 0 -260 -84q-19 -16 -31 -4l-12 12q-13 12 2 27q111 100 309 100q166 0 227 -70.5t31 -240.5l-117 -660q-3 -20 -22 -20h-17q-19 0 -16 20l20 115h-2q-39 -69 -124 -112 t-203 -43q-128 0 -198.5 62.5t-70.5 168.5zM160 215q0 -87 57 -135.5t170 -48.5q130 0 226.5 73.5t115.5 184.5l33 184q3 12 -8 12h-250q-344 0 -344 -270zM489 1413q-4 7 1 14t14 7h18q18 0 27 -21l110 -246q4 -9 -0.5 -14.5t-13.5 -5.5h-4q-19 0 -31 20z" />
<glyph unicode="&#xe1;" horiz-adv-x="999" d="M104 211q0 160 101.5 243t296.5 83h258q11 0 14 12l25 131q18 94 5.5 152t-63 83t-153.5 25q-162 0 -260 -84q-19 -16 -31 -4l-12 12q-13 12 2 27q111 100 309 100q166 0 227 -70.5t31 -240.5l-117 -660q-3 -20 -22 -20h-17q-19 0 -16 20l20 115h-2q-39 -69 -124 -112 t-203 -43q-128 0 -198.5 62.5t-70.5 168.5zM160 215q0 -87 57 -135.5t170 -48.5q130 0 226.5 73.5t115.5 184.5l33 184q3 12 -8 12h-250q-344 0 -344 -270zM595 1152.5q-2 5.5 5 14.5l193 246q17 21 36 21h23q9 0 11.5 -7t-3.5 -14l-209 -246q-17 -20 -37 -20h-8 q-9 0 -11 5.5z" />
<glyph unicode="&#xe2;" horiz-adv-x="999" d="M104 211q0 160 101.5 243t296.5 83h258q11 0 14 12l25 131q18 94 5.5 152t-63 83t-153.5 25q-162 0 -260 -84q-19 -16 -31 -4l-12 12q-13 12 2 27q111 100 309 100q166 0 227 -70.5t31 -240.5l-117 -660q-3 -20 -22 -20h-17q-19 0 -16 20l20 115h-2q-39 -69 -124 -112 t-203 -43q-128 0 -198.5 62.5t-70.5 168.5zM160 215q0 -87 57 -135.5t170 -48.5q130 0 226.5 73.5t115.5 184.5l33 184q3 12 -8 12h-250q-344 0 -344 -270zM445.5 1155.5q-1.5 6.5 5.5 13.5l211 246q16 19 32 19h11q15 0 24 -19l127 -246q4 -7 2 -13.5t-10 -6.5h-8 q-19 0 -29 18l-115 213h-4l-192 -213q-15 -18 -35 -18h-10q-8 0 -9.5 6.5z" />
<glyph unicode="&#xe3;" horiz-adv-x="999" d="M104 211q0 160 101.5 243t296.5 83h258q11 0 14 12l25 131q18 94 5.5 152t-63 83t-153.5 25q-162 0 -260 -84q-19 -16 -31 -4l-12 12q-13 12 2 27q111 100 309 100q166 0 227 -70.5t31 -240.5l-117 -660q-3 -20 -22 -20h-17q-19 0 -16 20l20 115h-2q-39 -69 -124 -112 t-203 -43q-128 0 -198.5 62.5t-70.5 168.5zM160 215q0 -87 57 -135.5t170 -48.5q130 0 226.5 73.5t115.5 184.5l33 184q3 12 -8 12h-250q-344 0 -344 -270zM446 1276l5 29q3 15 18 28q56 53 123 53q51 0 104 -43q49 -36 84 -36q50 0 119 69q6 6 12 4t4 -10l-4 -29 q-3 -15 -18 -28q-56 -53 -123 -53q-51 0 -104 43q-49 36 -84 36q-50 0 -119 -69q-6 -6 -12.5 -4t-4.5 10z" />
<glyph unicode="&#xe4;" horiz-adv-x="999" d="M104 211q0 160 101.5 243t296.5 83h258q11 0 14 12l25 131q18 94 5.5 152t-63 83t-153.5 25q-162 0 -260 -84q-19 -16 -31 -4l-12 12q-13 12 2 27q111 100 309 100q166 0 227 -70.5t31 -240.5l-117 -660q-3 -20 -22 -20h-17q-19 0 -16 20l20 115h-2q-39 -69 -124 -112 t-203 -43q-128 0 -198.5 62.5t-70.5 168.5zM160 215q0 -87 57 -135.5t170 -48.5q130 0 226.5 73.5t115.5 184.5l33 184q3 12 -8 12h-250q-344 0 -344 -270zM438 1294l15 78q3 21 22 21h45q20 0 17 -21l-15 -78q-3 -20 -22 -20h-45q-20 0 -17 20zM834 1294l14 78q4 21 22 21 h45q9 0 14 -6t3 -15l-14 -78q-3 -20 -23 -20h-45q-19 0 -16 20z" />
<glyph unicode="&#xe5;" horiz-adv-x="999" d="M104 211q0 160 101.5 243t296.5 83h258q11 0 14 12l25 131q18 94 5.5 152t-63 83t-153.5 25q-162 0 -260 -84q-19 -16 -31 -4l-12 12q-13 12 2 27q111 100 309 100q166 0 227 -70.5t31 -240.5l-117 -660q-3 -20 -22 -20h-17q-19 0 -16 20l20 115h-2q-39 -69 -124 -112 t-203 -43q-128 0 -198.5 62.5t-70.5 168.5zM160 215q0 -87 57 -135.5t170 -48.5q130 0 226.5 73.5t115.5 184.5l33 184q3 12 -8 12h-250q-344 0 -344 -270zM510 1260q0 82 55.5 138t139.5 56q59 0 97 -39t38 -98q0 -82 -55.5 -138.5t-139.5 -56.5q-59 0 -97 39.5t-38 98.5z M559 1266q0 -44 25.5 -71.5t70.5 -27.5q56 0 96 42t40 102q0 44 -26 71t-71 27q-56 0 -95.5 -41.5t-39.5 -101.5z" />
<glyph unicode="&#xe6;" horiz-adv-x="1591" d="M104 211q0 160 101.5 243t296.5 83h258q11 0 14 12l25 131q18 94 5.5 152t-63 83t-153.5 25q-162 0 -260 -84q-19 -16 -31 -4l-12 12q-13 12 2 27q111 100 309 100q137 0 201 -46t65 -152h2q123 198 344 198q131 0 209 -79.5t78 -229.5q0 -71 -18 -176q-3 -21 -25 -21 h-618q-14 0 -17 -12q-18 -95 -18 -182q0 -122 62 -191t186 -69q176 0 307 145q15 15 28 6l13 -10q13 -14 -2 -29q-140 -163 -351 -163q-238 0 -288 208h-2q-113 -208 -379 -208q-128 0 -198.5 62.5t-70.5 168.5zM160 215q0 -87 57 -135.5t170 -48.5q130 0 226.5 73.5 t115.5 184.5l33 184q3 12 -8 12h-250q-344 0 -344 -270zM829 549q-3 -12 11 -12h575q12 0 15 12q12 67 12 125q0 131 -61 198.5t-177 67.5q-104 0 -188 -57t-135 -162q-30 -62 -52 -172z" />
<glyph unicode="&#xe7;" horiz-adv-x="921" d="M113 305q0 240 94 436q59 119 155.5 184.5t217.5 65.5q108 0 176.5 -50.5t95.5 -145.5q6 -19 -10 -27l-15 -6q-18 -7 -24 10q-26 87 -82 127.5t-150 40.5q-90 0 -175.5 -57.5t-135.5 -157.5q-47 -95 -69.5 -209t-22.5 -199q0 -286 242 -286q167 0 295 168q12 17 28 4 l10 -8q15 -12 0 -31q-70 -92 -150.5 -137.5t-182.5 -46.5l-129 -254q-11 -21 -35 -21h-17q-9 0 -12.5 6t0.5 15l141 256q-121 12 -183 95.5t-62 227.5z" />
<glyph unicode="&#xe8;" horiz-adv-x="960" d="M113 291q0 118 24 240t70 217q57 118 153 180.5t218 62.5q131 0 208.5 -79.5t77.5 -229.5q0 -71 -18 -176q-4 -21 -25 -21h-622q-14 0 -17 -12q-14 -74 -14 -182q0 -122 62 -191t186 -69q176 0 307 145q16 16 29 6l12 -10q14 -14 -2 -29q-140 -163 -350 -163 q-145 0 -222 81t-77 230zM199 549q-3 -12 10 -12h575q12 0 15 12q12 68 12 125q0 131 -61 198.5t-177 67.5q-103 0 -184.5 -54.5t-132.5 -158.5q-37 -75 -57 -178zM444 1413q-4 7 1 14t14 7h18q18 0 27 -21l110 -246q4 -9 -0.5 -14.5t-13.5 -5.5h-4q-12 0 -17.5 4t-13.5 16z " />
<glyph unicode="&#xe9;" horiz-adv-x="960" d="M113 291q0 118 24 240t70 217q57 118 153 180.5t218 62.5q131 0 208.5 -79.5t77.5 -229.5q0 -71 -18 -176q-4 -21 -25 -21h-622q-14 0 -17 -12q-14 -74 -14 -182q0 -122 62 -191t186 -69q176 0 307 145q16 16 29 6l12 -10q14 -14 -2 -29q-140 -163 -350 -163 q-145 0 -222 81t-77 230zM199 549q-3 -12 10 -12h575q12 0 15 12q12 68 12 125q0 131 -61 198.5t-177 67.5q-103 0 -184.5 -54.5t-132.5 -158.5q-37 -75 -57 -178zM570.5 1152.5q-2.5 5.5 4.5 14.5l193 246q18 21 37 21h22q9 0 12 -7t-3 -14l-209 -246q-17 -20 -37 -20h-8 q-9 0 -11.5 5.5z" />
<glyph unicode="&#xea;" horiz-adv-x="960" d="M113 291q0 118 24 240t70 217q57 118 153 180.5t218 62.5q131 0 208.5 -79.5t77.5 -229.5q0 -71 -18 -176q-4 -21 -25 -21h-622q-14 0 -17 -12q-14 -74 -14 -182q0 -122 62 -191t186 -69q176 0 307 145q16 16 29 6l12 -10q14 -14 -2 -29q-140 -163 -350 -163 q-145 0 -222 81t-77 230zM199 549q-3 -12 10 -12h575q12 0 15 12q12 68 12 125q0 131 -61 198.5t-177 67.5q-103 0 -184.5 -54.5t-132.5 -158.5q-37 -75 -57 -178zM404.5 1155.5q-1.5 6.5 5.5 13.5l211 246q16 19 32 19h11q14 0 24 -19l127 -246q5 -7 2 -13.5t-10 -6.5h-8 q-19 0 -29 18l-115 213h-4l-192 -213q-15 -18 -35 -18h-10q-8 0 -9.5 6.5z" />
<glyph unicode="&#xeb;" horiz-adv-x="960" d="M113 291q0 118 24 240t70 217q57 118 153 180.5t218 62.5q131 0 208.5 -79.5t77.5 -229.5q0 -71 -18 -176q-4 -21 -25 -21h-622q-14 0 -17 -12q-14 -74 -14 -182q0 -122 62 -191t186 -69q176 0 307 145q16 16 29 6l12 -10q14 -14 -2 -29q-140 -163 -350 -163 q-145 0 -222 81t-77 230zM199 549q-3 -12 10 -12h575q12 0 15 12q12 68 12 125q0 131 -61 198.5t-177 67.5q-103 0 -184.5 -54.5t-132.5 -158.5q-37 -75 -57 -178zM395 1294l15 78q4 21 22 21h45q9 0 14 -6t3 -15l-15 -78q-3 -20 -22 -20h-45q-20 0 -17 20zM791 1294l14 78 q3 21 22 21h45q20 0 17 -21l-15 -78q-3 -20 -22 -20h-45q-19 0 -16 20z" />
<glyph unicode="&#xec;" horiz-adv-x="452" d="M121 20l164 930q3 21 22 21h17q20 0 16 -21l-164 -930q-3 -20 -22 -20h-17q-19 0 -16 20zM180 1413q-4 7 1 14t14 7h18q18 0 27 -21l110 -246q4 -9 -0.5 -14.5t-13.5 -5.5h-4q-12 0 -17.5 4t-13.5 16z" />
<glyph unicode="&#xed;" horiz-adv-x="452" d="M121 20l164 930q3 21 22 21h17q20 0 16 -21l-164 -930q-3 -20 -22 -20h-17q-19 0 -16 20zM314.5 1152.5q-2.5 5.5 4.5 14.5l193 246q18 21 37 21h22q9 0 12 -7t-3 -14l-209 -246q-17 -20 -37 -20h-8q-9 0 -11.5 5.5z" />
<glyph unicode="&#xee;" horiz-adv-x="452" d="M121 20l164 930q3 21 22 21h17q20 0 16 -21l-164 -930q-3 -20 -22 -20h-17q-19 0 -16 20zM137.5 1155.5q-1.5 6.5 5.5 13.5l211 246q16 19 33 19h10q15 0 25 -19l127 -246q5 -7 2 -13.5t-10 -6.5h-9q-18 0 -28 18l-115 213h-4l-192 -213q-15 -18 -35 -18h-11 q-8 0 -9.5 6.5z" />
<glyph unicode="&#xef;" horiz-adv-x="452" d="M121 20l164 930q3 21 22 21h17q20 0 16 -21l-164 -930q-3 -20 -22 -20h-17q-19 0 -16 20zM125 1294l14 78q3 21 23 21h45q19 0 16 -21l-14 -78q-3 -20 -23 -20h-45q-19 0 -16 20zM520 1294l15 78q3 21 22 21h45q20 0 16 -21l-14 -78q-3 -20 -22 -20h-45q-20 0 -17 20z " />
<glyph unicode="&#xf0;" horiz-adv-x="983" d="M113 301q0 110 31 245.5t67 209.5q113 235 367 235q107 0 172 -55h2l-144 231l-200 -59q-10 -3 -17.5 0.5t-7.5 11.5v13q0 19 18 24l181 53l-99 162q-5 8 -1.5 14.5t12.5 6.5h20q19 0 33 -21l88 -147l196 59q10 3 17.5 -0.5t7.5 -11.5v-12q0 -20 -18 -25l-176 -53 l110 -183q57 -95 83 -172.5t26 -164.5q0 -101 -32 -237.5t-67 -209.5q-113 -235 -370 -235q-149 0 -224 84t-75 237zM168 315q0 -140 61 -212t191 -72q211 0 317 213q29 60 58.5 189t29.5 222q0 285 -252 285q-211 0 -317 -213q-29 -60 -58.5 -189.5t-29.5 -222.5z" />
<glyph unicode="&#xf1;" horiz-adv-x="1056" d="M121 20l164 930q3 21 22 21h17q20 0 16 -21l-23 -131h2q52 82 136 127t182 45q160 0 228.5 -95t35.5 -280l-108 -596q-3 -20 -23 -20h-18q-18 0 -15 20l107 582q30 177 -23 257.5t-194 80.5q-115 0 -216.5 -84.5t-125.5 -218.5l-109 -617q-3 -20 -22 -20h-19 q-17 0 -14 20zM432 1276l4 29q3 14 19 28q56 53 123 53q51 0 104 -43q49 -36 84 -36q50 0 119 69q6 6 12 4t4 -10l-4 -29q-3 -15 -18 -28q-56 -53 -123 -53q-52 0 -105 43q-49 36 -84 36q-49 0 -118 -69q-6 -6 -12.5 -4t-4.5 10z" />
<glyph unicode="&#xf2;" horiz-adv-x="980" d="M113 301q0 110 31 245.5t67 209.5q113 235 371 235q149 0 224 -84t75 -237q0 -109 -31.5 -244.5t-67.5 -210.5q-113 -235 -370 -235q-149 0 -224 84t-75 237zM168 315q0 -140 61 -212t191 -72q211 0 317 213q29 60 58.5 189t29.5 222q0 285 -252 285q-211 0 -317 -213 q-29 -60 -58.5 -189.5t-29.5 -222.5zM467 1413q-4 7 0.5 14t13.5 7h19q11 0 16 -4.5t10 -16.5l111 -246q4 -9 -0.5 -14.5t-13.5 -5.5h-5q-12 0 -17 3.5t-13 16.5z" />
<glyph unicode="&#xf3;" horiz-adv-x="980" d="M113 301q0 110 31 245.5t67 209.5q113 235 371 235q149 0 224 -84t75 -237q0 -109 -31.5 -244.5t-67.5 -210.5q-113 -235 -370 -235q-149 0 -224 84t-75 237zM168 315q0 -140 61 -212t191 -72q211 0 317 213q29 60 58.5 189t29.5 222q0 285 -252 285q-211 0 -317 -213 q-29 -60 -58.5 -189.5t-29.5 -222.5zM575 1152.5q-2 5.5 5 14.5l192 246q18 21 37 21h22q9 0 12 -7t-3 -14l-209 -246q-17 -20 -37 -20h-8q-9 0 -11 5.5z" />
<glyph unicode="&#xf4;" horiz-adv-x="980" d="M113 301q0 110 31 245.5t67 209.5q113 235 371 235q149 0 224 -84t75 -237q0 -109 -31.5 -244.5t-67.5 -210.5q-113 -235 -370 -235q-149 0 -224 84t-75 237zM168 315q0 -140 61 -212t191 -72q211 0 317 213q29 60 58.5 189t29.5 222q0 285 -252 285q-211 0 -317 -213 q-29 -60 -58.5 -189.5t-29.5 -222.5zM420.5 1155.5q-1.5 6.5 5.5 13.5l211 246q16 19 33 19h10q16 0 25 -19l126 -246q5 -7 2 -13.5t-10 -6.5h-8q-19 0 -29 18l-114 213h-4l-193 -213q-15 -18 -35 -18h-10q-8 0 -9.5 6.5z" />
<glyph unicode="&#xf5;" horiz-adv-x="980" d="M113 301q0 110 31 245.5t67 209.5q113 235 371 235q149 0 224 -84t75 -237q0 -109 -31.5 -244.5t-67.5 -210.5q-113 -235 -370 -235q-149 0 -224 84t-75 237zM168 315q0 -140 61 -212t191 -72q211 0 317 213q29 60 58.5 189t29.5 222q0 285 -252 285q-211 0 -317 -213 q-29 -60 -58.5 -189.5t-29.5 -222.5zM420 1276l4 29q3 15 18 28q56 53 123 53q52 0 105 -43q49 -36 84 -36q49 0 118 69q6 6 12.5 4t4.5 -10l-4 -29q-3 -14 -19 -28q-56 -53 -123 -53q-51 0 -104 43q-49 36 -84 36q-50 0 -119 -69q-6 -6 -12 -4t-4 10z" />
<glyph unicode="&#xf6;" horiz-adv-x="980" d="M113 301q0 110 31 245.5t67 209.5q113 235 371 235q149 0 224 -84t75 -237q0 -109 -31.5 -244.5t-67.5 -210.5q-113 -235 -370 -235q-149 0 -224 84t-75 237zM168 315q0 -140 61 -212t191 -72q211 0 317 213q29 60 58.5 189t29.5 222q0 285 -252 285q-211 0 -317 -213 q-29 -60 -58.5 -189.5t-29.5 -222.5zM412 1294l14 78q4 21 23 21h45q20 0 16 -21l-14 -78q-3 -20 -23 -20h-45q-19 0 -16 20zM807 1294l14 78q3 21 23 21h45q19 0 16 -21l-14 -78q-3 -20 -23 -20h-45q-19 0 -16 20z" />
<glyph unicode="&#xf7;" d="M125 561v10q0 21 20 21h740q20 0 20 -21v-10q0 -20 -20 -20h-740q-20 0 -20 20zM449 297q0 28 18.5 46.5t46.5 18.5t47 -18.5t19 -46.5t-19 -47t-47 -19t-46.5 19t-18.5 47zM449 831q0 28 18.5 47t46.5 19t47 -19t19 -47t-19 -46.5t-47 -18.5t-46.5 18.5t-18.5 46.5z" />
<glyph unicode="&#xf8;" horiz-adv-x="980" d="M38.5 -54.5q-1.5 6.5 4.5 13.5l117 141q-47 75 -47 201q0 110 31 245.5t67 209.5q113 235 371 235q146 0 223 -86l86 107q15 20 33 20h16q9 0 11 -6t-3 -14l-114 -144q47 -77 47 -198q0 -109 -31.5 -244.5t-67.5 -210.5q-113 -235 -370 -235q-149 0 -226 86l-88 -107 q-15 -20 -32 -20h-17q-9 0 -10.5 6.5zM168 315q0 -98 29 -163l571 710q-63 78 -195 78q-211 0 -317 -213q-29 -60 -58.5 -189.5t-29.5 -222.5zM223 109q63 -78 197 -78q211 0 317 213q29 60 58.5 189t29.5 222q0 99 -30 166z" />
<glyph unicode="&#xf9;" horiz-adv-x="1044" d="M162 354l108 596q4 21 23 21h18q8 0 12 -6t3 -15l-107 -581q-30 -177 21.5 -257.5t189.5 -80.5q112 0 213 84.5t125 218.5l109 616q3 21 22 21h19q8 0 12 -6t2 -15l-164 -930q-3 -20 -23 -20h-16q-19 0 -16 20l22 132h-2q-52 -82 -135 -127t-178 -45q-157 0 -224 94.5 t-34 279.5zM506 1413q-4 7 0.5 14t13.5 7h19q11 0 16 -4.5t10 -16.5l111 -246q4 -9 -0.5 -14.5t-13.5 -5.5h-5q-12 0 -17 3.5t-13 16.5z" />
<glyph unicode="&#xfa;" horiz-adv-x="1044" d="M162 354l108 596q4 21 23 21h18q8 0 12 -6t3 -15l-107 -581q-30 -177 21.5 -257.5t189.5 -80.5q112 0 213 84.5t125 218.5l109 616q3 21 22 21h19q8 0 12 -6t2 -15l-164 -930q-3 -20 -23 -20h-16q-19 0 -16 20l22 132h-2q-52 -82 -135 -127t-178 -45q-157 0 -224 94.5 t-34 279.5zM581 1152.5q-2 5.5 5 14.5l192 246q18 21 37 21h23q9 0 11.5 -7t-3.5 -14l-209 -246q-17 -20 -37 -20h-8q-9 0 -11 5.5z" />
<glyph unicode="&#xfb;" horiz-adv-x="1044" d="M162 354l108 596q4 21 23 21h18q8 0 12 -6t3 -15l-107 -581q-30 -177 21.5 -257.5t189.5 -80.5q112 0 213 84.5t125 218.5l109 616q3 21 22 21h19q8 0 12 -6t2 -15l-164 -930q-3 -20 -23 -20h-16q-19 0 -16 20l22 132h-2q-52 -82 -135 -127t-178 -45q-157 0 -224 94.5 t-34 279.5zM430.5 1155.5q-1.5 6.5 5.5 13.5l211 246q16 19 33 19h10q16 0 25 -19l127 -246q4 -7 2 -13.5t-10 -6.5h-9q-18 0 -28 18l-115 213h-4l-193 -213q-15 -18 -34 -18h-11q-8 0 -9.5 6.5z" />
<glyph unicode="&#xfc;" horiz-adv-x="1044" d="M162 354l108 596q4 21 23 21h18q8 0 12 -6t3 -15l-107 -581q-30 -177 21.5 -257.5t189.5 -80.5q112 0 213 84.5t125 218.5l109 616q3 21 22 21h19q8 0 12 -6t2 -15l-164 -930q-3 -20 -23 -20h-16q-19 0 -16 20l22 132h-2q-52 -82 -135 -127t-178 -45q-157 0 -224 94.5 t-34 279.5zM418 1294l14 78q4 21 23 21h45q20 0 16 -21l-14 -78q-3 -20 -23 -20h-45q-19 0 -16 20zM813 1294l14 78q3 21 23 21h45q19 0 16 -21l-14 -78q-3 -20 -23 -20h-45q-19 0 -16 20z" />
<glyph unicode="&#xfd;" horiz-adv-x="903" d="M-8 -348l2 10q3 21 24 21h33q65 0 113.5 45t120.5 178l59 108l-180 936q-4 21 16 21h17q19 0 22 -21l164 -860h2l465 860q10 21 29 21h20q21 0 10 -21l-577 -1063q-44 -81 -80.5 -132t-72 -78t-67 -36.5t-73.5 -9.5h-31q-20 0 -16 21zM521 1152.5q-2 5.5 5 14.5l193 246 q17 21 37 21h22q9 0 11.5 -7t-3.5 -14l-208 -246q-18 -20 -37 -20h-9q-9 0 -11 5.5z" />
<glyph unicode="&#xfe;" d="M55 -348l303 1720q4 21 23 21h16q9 0 14 -6t3 -15l-99 -559h2q114 178 326 178q139 0 211 -82t72 -231q0 -118 -33 -257.5t-68 -209.5q-111 -231 -354 -231q-106 0 -173.5 52t-94.5 136h-2l-90 -516q-3 -21 -23 -21h-16q-20 0 -17 21zM233 283q0 -112 64 -182t178 -70 q205 0 301 200q42 85 68 214.5t26 230.5q0 264 -237 264q-209 0 -316 -217q-23 -45 -53.5 -199.5t-30.5 -240.5z" />
<glyph unicode="&#xff;" horiz-adv-x="903" d="M-8 -348l2 10q3 21 24 21h33q65 0 113.5 45t120.5 178l59 108l-180 936q-4 21 16 21h17q19 0 22 -21l164 -860h2l465 860q10 21 29 21h20q21 0 10 -21l-577 -1063q-44 -81 -80.5 -132t-72 -78t-67 -36.5t-73.5 -9.5h-31q-20 0 -16 21zM362 1294l15 78q3 21 22 21h45 q20 0 17 -21l-15 -78q-3 -20 -22 -20h-45q-20 0 -17 20zM758 1294l14 78q4 21 23 21h45q20 0 16 -21l-14 -78q-3 -20 -23 -20h-45q-19 0 -16 20z" />
<glyph unicode="&#x152;" horiz-adv-x="1871" d="M139 365q0 143 46 384.5t104 360.5q75 155 189 229t278 74q144 0 234.5 -70t115.5 -202h2l41 231q3 21 22 21h736q19 0 16 -21l-2 -12q-3 -21 -25 -21h-684q-11 0 -14 -12l-100 -577q-3 -15 12 -15h588q19 0 16 -20l-2 -13q-3 -20 -24 -20h-590q-12 0 -15 -12l-106 -604 q-3 -13 10 -13h684q20 0 17 -20l-2 -13q-3 -20 -25 -20h-733q-20 0 -17 20l39 222h-2q-73 -135 -181 -198.5t-261 -63.5q-175 0 -271 101t-96 284zM197 375q0 -165 80.5 -253.5t236.5 -88.5q276 0 404 262q58 118 102.5 351.5t44.5 371.5q0 165 -80.5 253.5t-236.5 88.5 q-276 0 -404 -262q-58 -118 -102.5 -351.5t-44.5 -371.5z" />
<glyph unicode="&#x153;" horiz-adv-x="1638" d="M113 301q0 110 31 245.5t67 209.5q113 235 371 235q261 0 295 -262h2q55 130 154.5 196t221.5 66q131 0 209 -79.5t78 -229.5q0 -71 -18 -176q-4 -21 -25 -21h-618q-14 0 -17 -12q-18 -95 -18 -182q0 -122 62 -191t186 -69q176 0 307 145q16 16 29 6l12 -10 q14 -14 -2 -29q-140 -163 -350 -163q-132 0 -206.5 66t-86.5 196h-2q-55 -128 -151.5 -195t-231.5 -67q-149 0 -224 84t-75 237zM168 315q0 -140 61 -212t191 -72q211 0 317 213q29 60 58.5 189t29.5 222q0 285 -252 285q-211 0 -317 -213q-29 -60 -58.5 -189.5 t-29.5 -222.5zM877 549q-3 -12 10 -12h575q12 0 15 12q12 67 12 125q0 131 -61 198.5t-177 67.5q-103 0 -183.5 -54.5t-131.5 -158.5q-40 -82 -59 -178z" />
<glyph unicode="&#x178;" horiz-adv-x="995" d="M225 1368q-3 11 2 18t15 7h12q21 0 29 -21l241 -729h4l500 729q13 21 35 21h16q10 0 13.5 -8t-2.5 -17l-545 -797l-96 -551q-3 -20 -23 -20h-18q-20 0 -17 20l96 553zM473 1651l14 78q3 20 23 20h45q19 0 16 -20l-14 -78q-3 -21 -22 -21h-46q-19 0 -16 21zM868 1651 l15 78q3 20 22 20h45q20 0 17 -20l-15 -78q-4 -21 -22 -21h-45q-9 0 -14 6t-3 15z" />
<glyph unicode="&#x2c6;" horiz-adv-x="821" d="M322.5 1155.5q-1.5 6.5 5.5 13.5l211 246q16 19 32 19h11q14 0 24 -19l127 -246q5 -7 2 -13.5t-10 -6.5h-8q-19 0 -29 18l-115 213h-4l-192 -213q-15 -18 -35 -18h-10q-8 0 -9.5 6.5z" />
<glyph unicode="&#x2dc;" horiz-adv-x="821" d="M328 1276l4 29q3 15 18 28q56 53 123 53q52 0 105 -43q49 -36 84 -36q49 0 118 69q6 6 12.5 4t4.5 -10l-4 -29q-3 -14 -19 -28q-56 -53 -123 -53q-51 0 -104 43q-49 36 -84 36q-50 0 -119 -69q-6 -6 -12 -4t-4 10z" />
<glyph unicode="&#x2000;" horiz-adv-x="932" />
<glyph unicode="&#x2001;" horiz-adv-x="1864" />
<glyph unicode="&#x2002;" horiz-adv-x="932" />
<glyph unicode="&#x2003;" horiz-adv-x="1864" />
<glyph unicode="&#x2004;" horiz-adv-x="621" />
<glyph unicode="&#x2005;" horiz-adv-x="466" />
<glyph unicode="&#x2006;" horiz-adv-x="310" />
<glyph unicode="&#x2007;" horiz-adv-x="310" />
<glyph unicode="&#x2008;" horiz-adv-x="233" />
<glyph unicode="&#x2009;" horiz-adv-x="372" />
<glyph unicode="&#x200a;" horiz-adv-x="103" />
<glyph unicode="&#x2010;" horiz-adv-x="722" d="M115 543l2 12q3 16 22 16h484q19 0 16 -20l-2 -12q-3 -17 -23 -17h-483q-19 0 -16 21z" />
<glyph unicode="&#x2011;" horiz-adv-x="722" d="M115 543l2 12q3 16 22 16h484q19 0 16 -20l-2 -12q-3 -17 -23 -17h-483q-19 0 -16 21z" />
<glyph unicode="&#x2012;" horiz-adv-x="722" d="M115 543l2 12q3 16 22 16h484q19 0 16 -20l-2 -12q-3 -17 -23 -17h-483q-19 0 -16 21z" />
<glyph unicode="&#x2013;" horiz-adv-x="976" d="M76 543l2 12q3 16 22 16h815q20 0 17 -20l-2 -12q-3 -17 -23 -17h-815q-20 0 -16 21z" />
<glyph unicode="&#x2014;" horiz-adv-x="1597" d="M76 543l2 12q3 16 22 16h1436q19 0 16 -20l-2 -12q-3 -17 -22 -17h-1436q-20 0 -16 21z" />
<glyph unicode="&#x2018;" horiz-adv-x="393" d="M276 1124l21 113q6 32 14 47l47 92q10 19 23 19q17 0 14 -19l-43 -252q-3 -20 -22 -20h-39q-18 0 -15 20z" />
<glyph unicode="&#x2019;" horiz-adv-x="393" d="M276 1120l43 252q3 21 23 21h39q17 0 14 -21l-20 -112q-6 -30 -15 -48l-47 -92q-9 -18 -22 -18q-18 0 -15 18z" />
<glyph unicode="&#x201a;" horiz-adv-x="393" d="M53 -145l43 251q4 21 23 21h39q18 0 14 -21l-20 -112q-6 -28 -15 -47l-47 -92q-10 -19 -22 -19q-18 0 -15 19z" />
<glyph unicode="&#x201c;" horiz-adv-x="632" d="M276 1124l21 113q6 32 14 47l47 92q10 19 23 19q17 0 14 -19l-43 -252q-3 -20 -22 -20h-39q-18 0 -15 20zM516 1124l21 113q6 32 14 47l47 92q10 19 23 19q17 0 14 -19l-43 -252q-3 -20 -23 -20h-39q-17 0 -14 20z" />
<glyph unicode="&#x201d;" horiz-adv-x="632" d="M276 1120l43 252q3 21 23 21h39q17 0 14 -21l-20 -112q-6 -30 -15 -48l-47 -92q-9 -18 -22 -18q-18 0 -15 18zM516 1120l43 252q3 21 23 21h39q17 0 14 -21l-21 -112q-7 -33 -14 -48l-47 -92q-9 -18 -23 -18q-17 0 -14 18z" />
<glyph unicode="&#x201e;" horiz-adv-x="632" d="M53 -145l43 251q4 21 23 21h39q18 0 14 -21l-20 -112q-6 -28 -15 -47l-47 -92q-10 -19 -22 -19q-18 0 -15 19zM293 -145l43 251q4 21 22 21h39q19 0 15 -21l-21 -112q-6 -32 -14 -47l-47 -92q-10 -19 -23 -19q-17 0 -14 19z" />
<glyph unicode="&#x2022;" horiz-adv-x="700" d="M172 631q0 91 61 152t152 61t152 -61t61 -152t-61 -152t-152 -61t-152 61t-61 152z" />
<glyph unicode="&#x2026;" horiz-adv-x="1198" d="M80 20l16 99q3 20 23 20h51q19 0 16 -20l-16 -99q-3 -20 -23 -20h-51q-19 0 -16 20zM479 20l17 99q3 20 22 20h51q20 0 17 -20l-17 -99q-3 -20 -22 -20h-51q-20 0 -17 20zM879 20l16 99q3 20 23 20h51q19 0 16 -20l-16 -99q-3 -20 -23 -20h-51q-19 0 -16 20z" />
<glyph unicode="&#x202f;" horiz-adv-x="372" />
<glyph unicode="&#x2039;" horiz-adv-x="604" d="M125 526q-13 16 4 29l365 324q6 6 12.5 3t5.5 -12l-4 -30q-3 -19 -19 -35l-290 -260q-9 -9 -4 -17l196 -260q11 -14 8 -35l-4 -26q-1 -9 -8.5 -10.5t-11.5 4.5z" />
<glyph unicode="&#x203a;" horiz-adv-x="604" d="M117 209l4 31q3 19 18 34l291 261q9 9 4 16l-196 260q-12 15 -9 35l4 26q1 9 9 11t12 -4l250 -326q13 -16 -4 -29l-365 -323q-6 -6 -12.5 -3.5t-5.5 11.5z" />
<glyph unicode="&#x205f;" horiz-adv-x="466" />
<glyph unicode="&#x20ac;" d="M119 575l2 11q3 20 24 20h99q11 0 14 12l31 170q4 13 -8 13h-103q-19 0 -16 20l2 10q4 21 24 21h99q11 0 14 10q26 132 44 200t42 118q114 233 369 233q125 0 196 -68t92 -169q3 -19 -12 -25l-12 -4q-17 -7 -23 12q-27 101 -85.5 152t-163.5 51q-101 0 -183 -51 t-127 -144q-49 -101 -84 -303q-3 -12 11 -12h423q20 0 17 -21l-2 -10q-3 -20 -25 -20h-424q-11 0 -14 -13l-29 -170q-3 -12 11 -12h362q19 0 16 -20l-2 -11q-1 -9 -8.5 -14.5t-15.5 -5.5h-363q-11 0 -14 -12q-31 -193 -31 -246q0 -137 61.5 -201.5t184.5 -64.5 q198 0 322 202q10 19 26 13l10 -4q17 -7 7 -27q-56 -101 -151 -168t-222 -67q-138 0 -213.5 77t-75.5 228q0 83 31 258q3 12 -10 12h-101q-19 0 -16 20z" />
<glyph unicode="&#x2122;" horiz-adv-x="1714" d="M158 1366v6q0 21 20 21h549q9 0 15 -6t6 -15v-6q0 -20 -21 -20h-235q-13 0 -13 -13v-727q0 -20 -20 -20h-10q-21 0 -21 20v727q0 13 -12 13h-238q-20 0 -20 20zM903 606v766q0 9 6 15t15 6h18q16 0 25 -17l295 -610h4l288 610q8 17 25 17h18q9 0 15 -6t6 -15v-766 q0 -20 -21 -20h-10q-20 0 -20 20v670h-4l-273 -561q-8 -17 -22 -17h-15q-13 0 -22 17l-273 561h-4v-670q0 -20 -20 -20h-10q-21 0 -21 20z" />
<glyph unicode="&#x25fc;" horiz-adv-x="972" d="M0 0v973h973v-973h-973z" />
</font>
</defs>
</svg>
